<svg width="149" height="36" viewBox="0 0 149 36" fill="none" xmlns="http://www.w3.org/2000/svg">
<g id="03-dark-blue-docker-logo 1" clip-path="url(#clip0_220_6843)">
<path id="Vector" d="M47.6922 13.0136C47.4086 11.068 46.2739 9.37864 44.2266 7.85243L43.0426 7.09515L42.2532 8.22524C41.2419 9.68155 40.7362 11.7087 40.8966 13.6544C40.9706 14.3301 41.2049 15.565 41.9326 16.6252C41.2049 17.0097 39.7619 17.5223 37.8379 17.4874H1.08457L1.01057 17.8951C0.665239 19.8408 0.665239 25.934 4.79691 30.6058C7.94191 34.1592 12.6409 35.965 18.7829 35.965C32.1029 35.965 41.9449 30.1049 46.5699 19.433C48.3829 19.468 52.2926 19.4447 54.3029 15.7748C54.3522 15.6932 54.4756 15.4718 54.8209 14.7728L55.0182 14.3883L53.8959 13.666C52.6626 12.9087 49.8629 12.6175 47.6922 13.0136ZM30.4749 0H24.8879V4.85825H30.4749V0ZM30.4749 5.83689H24.8879V10.6951H30.4749V5.83689ZM23.8642 5.83689H18.2772V10.6951H23.8642V5.83689ZM17.2659 5.83689H11.6789V10.6951H17.2659V5.83689ZM10.6552 11.6738H5.06824V16.532H10.6552V11.6738ZM17.2659 11.6738H11.6789V16.532H17.2659V11.6738ZM23.8642 11.6738H18.2772V16.532H23.8642V11.6738ZM30.4749 11.6738H24.8879V16.532H30.4749V11.6738ZM37.0856 11.6738H31.4986V16.532H37.0856V11.6738ZM71.0516 10.5786C70.6446 10.5786 70.2992 10.7068 70.0402 10.9631C69.7689 11.2194 69.6332 11.5573 69.6332 11.9417V18.5243C68.2519 17.4408 66.6609 16.9049 64.8356 16.9049C62.7266 16.9049 60.9259 17.6272 59.4336 19.0718C57.9412 20.5165 57.2012 22.2524 57.2012 24.2913C57.2012 26.3301 57.9536 28.066 59.4336 29.5107C60.9259 30.9553 62.7266 31.6777 64.8356 31.6777C66.9446 31.6777 68.7329 30.9553 70.2376 29.5107C71.7299 28.0893 72.4699 26.3417 72.4699 24.2913V11.9534C72.4699 11.5573 72.3342 11.2311 72.0506 10.9748C71.7916 10.7068 71.4586 10.5786 71.0516 10.5786ZM69.2632 26.0854C69.0166 26.6447 68.6712 27.134 68.2396 27.5534C67.8079 27.9728 67.3022 28.3107 66.7226 28.5553C66.1429 28.8 65.5139 28.9282 64.8479 28.9282C64.1819 28.9282 63.5529 28.8117 62.9609 28.5553C62.3812 28.3107 61.8756 27.9728 61.4439 27.5534C61.0122 27.134 60.6792 26.6447 60.4326 26.0854C60.1859 25.5262 60.0626 24.9204 60.0626 24.2913C60.0626 23.6621 60.1859 23.0563 60.4326 22.4971C60.6792 21.9379 61.0246 21.4485 61.4439 21.0291C61.8756 20.6097 62.3812 20.2835 62.9609 20.0272C63.5406 19.7825 64.1696 19.6544 64.8479 19.6544C65.5262 19.6544 66.1306 19.7709 66.7226 20.0272C67.3022 20.2718 67.8079 20.6097 68.2396 21.0291C68.6712 21.4485 69.0166 21.9379 69.2632 22.4971C69.5099 23.0563 69.6332 23.6505 69.6332 24.2796C69.6332 24.9204 69.5099 25.5146 69.2632 26.0854ZM133.532 19.0718C132.028 17.6272 130.215 16.9049 128.13 16.9049C126.034 16.9049 124.221 17.6272 122.728 19.0718C121.236 20.5165 120.496 22.2524 120.496 24.2913C120.496 26.3301 121.248 28.066 122.728 29.5107C124.221 30.9553 126.021 31.6777 128.13 31.6777C130.054 31.6777 131.707 31.0835 133.125 29.8835C133.397 29.6155 133.532 29.2777 133.532 28.8932C133.532 28.5087 133.397 28.1709 133.125 27.9146C132.854 27.6583 132.521 27.5301 132.114 27.5301C131.756 27.5417 131.448 27.6466 131.177 27.8796C130.745 28.2291 130.289 28.4971 129.783 28.6718C129.277 28.8466 128.735 28.9398 128.13 28.9398C127.6 28.9398 127.094 28.8583 126.613 28.7068C126.132 28.5437 125.676 28.3223 125.281 28.0427C124.874 27.7515 124.529 27.4136 124.221 27.0175C123.925 26.6214 123.69 26.1786 123.542 25.6893H134.346C134.741 25.6893 135.086 25.5612 135.358 25.3049C135.641 25.0485 135.777 24.7107 135.777 24.3262C135.777 23.301 135.592 22.3573 135.222 21.4835C134.84 20.5864 134.285 19.7942 133.532 19.0718ZM123.518 22.9282C123.666 22.4505 123.888 22.0078 124.184 21.6C124.48 21.2039 124.837 20.8544 125.244 20.5748C125.651 20.2835 126.108 20.0738 126.601 19.9107C127.094 19.7476 127.6 19.6777 128.118 19.6777C128.636 19.6777 129.142 19.7592 129.623 19.9107C130.116 20.0738 130.56 20.2951 130.955 20.5748C131.362 20.866 131.719 21.2039 132.015 21.6C132.324 21.9961 132.546 22.4388 132.706 22.9282H123.518ZM148.493 17.8369C148.234 17.6039 147.913 17.4175 147.531 17.2777C147.148 17.1379 146.717 17.0447 146.26 16.9981C145.804 16.9398 145.372 16.9165 144.965 16.9165C144.053 16.9165 143.202 17.0563 142.4 17.3359C141.598 17.6155 140.858 18.0233 140.18 18.5476V18.2913C140.18 17.9068 140.044 17.5922 139.761 17.3243C139.477 17.0563 139.156 16.9165 138.762 16.9165C138.367 16.9165 138.022 17.0563 137.75 17.3243C137.467 17.5922 137.331 17.9184 137.331 18.2913V30.3146C137.331 30.699 137.467 31.0136 137.75 31.2816C138.034 31.5495 138.367 31.6893 138.762 31.6893C139.156 31.6893 139.489 31.5495 139.761 31.2816C140.044 31.0136 140.18 30.6874 140.18 30.3146V24.3029C140.18 23.6621 140.303 23.0563 140.55 22.4971C140.797 21.9379 141.142 21.4485 141.574 21.0291C142.005 20.6097 142.511 20.2835 143.091 20.0388C143.67 19.7942 144.299 19.6777 144.965 19.6777C145.631 19.6777 146.26 19.7942 146.84 20.0039C147.062 20.0971 147.272 20.1553 147.444 20.1553C147.642 20.1553 147.827 20.1204 147.999 20.0505C148.172 19.9806 148.32 19.8757 148.456 19.7592C148.579 19.6311 148.69 19.4913 148.764 19.3165C148.838 19.1534 148.875 18.967 148.875 18.7806C148.875 18.3845 148.752 18.0699 148.493 17.8369ZM87.1589 19.0718C85.6542 17.6272 83.8412 16.9049 81.7569 16.9049C79.6726 16.9049 77.8472 17.6272 76.3549 19.0718C74.8626 20.5165 74.1226 22.2524 74.1226 24.2913C74.1226 26.3301 74.8749 28.066 76.3549 29.5107C77.8472 30.9553 79.6479 31.6777 81.7569 31.6777C83.8659 31.6777 85.6542 30.9553 87.1589 29.5107C88.6512 28.0893 89.3912 26.3417 89.3912 24.2913C89.3789 23.266 89.1939 22.3223 88.8239 21.4602C88.4539 20.5981 87.8989 19.7942 87.1589 19.0718ZM86.1722 26.0854C85.9256 26.6447 85.5802 27.134 85.1486 27.5534C84.7169 27.9728 84.2112 28.3107 83.6316 28.5553C83.0519 28.8 82.4229 28.9282 81.7569 28.9282C81.0909 28.9282 80.4619 28.8117 79.8699 28.5553C79.2902 28.3107 78.7846 27.9728 78.3529 27.5534C77.9212 27.134 77.5882 26.6447 77.3416 26.0854C77.0949 25.5262 76.9716 24.9204 76.9716 24.2913C76.9716 23.6621 77.0949 23.0563 77.3416 22.4971C77.5882 21.9379 77.9336 21.4485 78.3529 21.0291C78.7846 20.6097 79.2902 20.2835 79.8699 20.0272C80.4496 19.7825 81.0786 19.6544 81.7569 19.6544C82.4352 19.6544 83.0396 19.7709 83.6316 20.0272C84.2112 20.2718 84.7169 20.6097 85.1486 21.0291C85.5802 21.4485 85.9256 21.9379 86.1722 22.4971C86.4189 23.0563 86.5422 23.6505 86.5422 24.2796C86.5422 24.9204 86.4189 25.5146 86.1722 26.0854ZM118.93 18.2796C118.93 18.0932 118.893 17.9184 118.819 17.7553C118.745 17.5922 118.646 17.4408 118.51 17.3126C118.387 17.1845 118.227 17.0796 118.054 17.0214C117.881 16.9515 117.696 16.9165 117.499 16.9165C117.215 16.9165 116.956 16.9864 116.734 17.1262L108.57 22.2524V11.965C108.57 11.5806 108.434 11.2544 108.15 10.9864C107.867 10.7184 107.546 10.5786 107.151 10.5786C106.757 10.5786 106.411 10.7184 106.14 10.9864C105.856 11.2544 105.721 11.5806 105.721 11.965V30.2913C105.721 30.6757 105.856 31.0019 106.14 31.2699C106.424 31.5379 106.757 31.6777 107.151 31.6777C107.546 31.6777 107.879 31.5379 108.15 31.2699C108.434 31.0019 108.57 30.6757 108.57 30.2913V25.5262L110.235 24.466L116.537 31.3049C116.796 31.5379 117.117 31.6544 117.487 31.6544C117.684 31.6544 117.869 31.6194 118.042 31.5495C118.214 31.4796 118.362 31.3748 118.498 31.2583C118.621 31.1301 118.732 30.9903 118.806 30.8155C118.88 30.6524 118.917 30.466 118.917 30.2913C118.917 29.9301 118.782 29.6155 118.523 29.3243L112.677 22.9515L118.399 19.3631C118.757 19.1301 118.93 18.7689 118.93 18.2796ZM95.2372 21.0175C95.6689 20.5981 96.1869 20.2718 96.7666 20.0272C97.3462 19.7825 97.9752 19.666 98.6412 19.666C99.2456 19.666 99.8006 19.7592 100.306 19.9573C100.812 20.1553 101.305 20.435 101.762 20.8078C102.033 21.0175 102.341 21.1223 102.687 21.1223C103.094 21.1223 103.439 20.9942 103.698 20.7262C103.969 20.4583 104.105 20.132 104.105 19.7359C104.105 19.3398 103.945 18.9786 103.612 18.699C102.206 17.499 100.553 16.9049 98.6289 16.9049C96.5199 16.9049 94.7192 17.6272 93.2269 19.0718C91.7346 20.5165 90.9946 22.2524 90.9946 24.2913C90.9946 26.3301 91.7469 28.066 93.2269 29.5107C94.7192 30.9553 96.5199 31.6777 98.6289 31.6777C100.541 31.6777 102.206 31.0835 103.612 29.8835C103.908 29.5922 104.068 29.2544 104.068 28.8699C104.068 28.4854 103.932 28.1476 103.661 27.8913C103.39 27.635 103.057 27.5068 102.65 27.5068C102.304 27.5184 102.008 27.6117 101.749 27.7981C101.293 28.1825 100.812 28.4621 100.306 28.6485C99.8006 28.835 99.2456 28.9282 98.6412 28.9282C97.9752 28.9282 97.3586 28.8117 96.7666 28.567C96.1869 28.3223 95.6689 27.9961 95.2372 27.5767C94.8056 27.1689 94.4602 26.668 94.2012 26.1087C93.9546 25.5495 93.8312 24.9437 93.8312 24.3029C93.8312 23.6621 93.9546 23.0563 94.2012 22.4971C94.4602 21.9262 94.8056 21.4485 95.2372 21.0175Z" fill="#1D63ED"/>
</g>
<defs>
<clipPath id="clip0_220_6843">
<rect width="148" height="36" fill="white" transform="translate(0.875)"/>
</clipPath>
</defs>
</svg>
