<svg width="121" height="60" viewBox="0 0 121 60" fill="none" xmlns="http://www.w3.org/2000/svg">
<g id="ansible-ar21 1">
<path id="Vector" d="M40.1447 30C40.1444 34.7472 38.2584 39.2999 34.9015 42.6566C31.5447 46.0133 26.9919 47.899 22.2447 47.899C12.3597 47.899 4.34668 39.886 4.34668 30.001C4.34668 20.116 12.3607 12.103 22.2447 12.103C32.1287 12.103 40.1427 20.117 40.1427 30.003" fill="#1A1918"/>
<path id="Vector_2" d="M22.5468 23.0362L27.1788 34.4682L20.1828 28.9582L22.5468 23.0362ZM30.7748 37.1012L23.6498 19.9552C23.4468 19.4612 23.0498 19.1992 22.5458 19.1992C22.0418 19.1992 21.6158 19.4612 21.4118 19.9552L13.5918 38.7622H16.2668L19.3618 31.0082L28.5998 38.4712C28.9718 38.7712 29.2398 38.9072 29.5878 38.9072C30.2858 38.9072 30.8958 38.3842 30.8958 37.6292C30.8958 37.5062 30.8528 37.3112 30.7748 37.1012Z" fill="white"/>
<path id="Vector_3" d="M64.6771 35.3538C64.4921 35.3538 64.2931 35.3068 64.1541 35.1198L58.2211 27.3178V35.2758H56.8681V25.4758C56.8681 25.0758 57.1911 24.7738 57.5601 24.7738C57.7751 24.7738 57.9601 24.8368 58.0981 25.0238L64.0151 32.8098V24.8828H65.3681V34.6668C65.369 34.7577 65.3518 34.8479 65.3173 34.932C65.2828 35.0161 65.2317 35.0924 65.1672 35.1565C65.1027 35.2205 65.026 35.271 64.9416 35.3049C64.8573 35.3388 64.768 35.3554 64.6771 35.3538ZM72.5041 35.4478C71.1521 35.4478 69.7371 35.1678 68.4161 34.6678L68.7391 33.5448C69.9531 33.9448 71.2751 34.2148 72.5041 34.2148C74.2101 34.2148 75.1021 33.6068 75.1021 32.7488C75.1021 31.9688 74.4101 31.5788 72.0281 30.4548C69.6461 29.3308 68.7081 28.6148 68.7081 27.2098C68.7081 25.4468 70.0601 24.7298 72.6121 24.7298C73.6721 24.7298 75.3121 24.9498 76.2401 25.2298L76.0251 26.3838C74.9168 26.1192 73.7825 25.9783 72.6431 25.9638C70.8451 25.9638 70.1071 26.3068 70.1071 27.1658C70.1071 28.0078 70.6451 28.3658 73.1651 29.5378C75.8251 30.7708 76.5001 31.3948 76.5001 32.6748C76.5001 34.5318 74.7471 35.4528 72.5041 35.4528M79.5481 24.8658H80.9461V35.2578H79.5481V24.8658ZM90.2881 30.4308H86.8141V33.9578H90.2881C91.4711 33.9578 92.1941 33.2078 92.1941 32.1628C92.1941 31.1798 91.4411 30.4308 90.2881 30.4308ZM89.6111 25.9368H86.8141V29.2608H89.6111C90.7331 29.2608 91.5481 28.5428 91.5481 27.5438C91.5481 26.5608 90.8411 25.9368 89.6111 25.9368ZM90.3031 35.1428H86.1231C85.7231 35.1428 85.4161 34.8308 85.4161 34.4408V25.4528C85.4182 25.2664 85.4935 25.0883 85.6258 24.957C85.7581 24.8256 85.9367 24.7516 86.1231 24.7508H89.5811C91.7011 24.7508 92.9611 25.7958 92.9611 27.4348C92.9611 28.3348 92.4381 29.1508 91.6391 29.6348C92.8231 29.9948 93.6221 30.9768 93.6221 32.1628C93.6221 33.8168 92.2561 35.1428 90.3031 35.1428ZM97.7021 35.0278C97.3181 35.0278 97.0021 34.6998 97.0021 34.3258V24.6258H98.4021V33.7538H103.985V35.0178L97.7021 35.0278ZM110.499 35.0848C107.639 35.0848 105.919 34.0248 105.919 31.8848C105.919 30.8708 106.489 29.9028 107.595 29.4508C106.695 28.8888 106.242 28.0928 106.242 27.2188C106.242 25.2838 107.734 24.3628 110.542 24.3628C111.673 24.3675 112.801 24.4878 113.908 24.7218L113.754 25.8768C112.586 25.6898 111.494 25.5808 110.434 25.5808C108.62 25.5808 107.652 26.0808 107.652 27.2808C107.652 28.2328 108.544 28.9808 109.728 28.9808H112.126C112.205 28.9796 112.283 28.9941 112.355 29.0234C112.428 29.0527 112.494 29.0962 112.55 29.1514C112.606 29.2067 112.65 29.2725 112.68 29.345C112.71 29.4175 112.726 29.4953 112.725 29.5738C112.725 29.9168 112.465 30.1818 112.125 30.1818H109.543C108.19 30.1818 107.33 30.8518 107.33 31.8818C107.33 33.3948 108.728 33.8478 110.48 33.8478C111.433 33.8478 112.724 33.7238 113.78 33.4738L113.98 34.6118C112.852 34.916 111.689 35.0736 110.521 35.0808M49.2181 26.9228L51.6681 33.0608L47.9681 30.1008L49.2181 26.9228ZM53.5701 34.4748L49.8021 25.2688C49.6941 25.0038 49.4791 24.8628 49.2181 24.8628C49.0885 24.8605 48.9613 24.8983 48.8539 24.9709C48.7465 25.0436 48.6642 25.1476 48.6181 25.2688L44.4961 35.6418L45.8961 35.3658L47.5331 31.2028L52.4181 35.2098C52.6151 35.3698 52.7561 35.4438 52.9411 35.4438C53.0319 35.4453 53.1221 35.4285 53.2063 35.3946C53.2906 35.3606 53.3672 35.3101 53.4316 35.2461C53.496 35.1821 53.5469 35.1058 53.5813 35.0217C53.6158 34.9377 53.633 34.8476 53.6321 34.7568C53.6257 34.6597 53.6041 34.5642 53.5681 34.4738L53.5701 34.4748Z" fill="#1A1918"/>
</g>
</svg>
