<svg width="64" height="64" viewBox="0 0 64 64" fill="none" xmlns="http://www.w3.org/2000/svg">
<path d="M42.6667 52.6667H25.3333C14.672 52.6667 6 43.9947 6 33.3333C6 22.672 14.672 14 25.3333 14C30.0373 14 34.5709 15.712 38.1016 18.8213C39.2056 19.7946 40.1896 20.8881 41.0456 22.0801C41.5816 22.0241 42.1173 21.9974 42.6667 21.9974C51.1227 21.9974 58 28.8747 58 37.3307C58 45.7867 51.1227 52.6667 42.6667 52.6667ZM25.3333 18C16.8773 18 10 24.8773 10 33.3333C10 41.7893 16.8773 48.6667 25.3333 48.6667H42.6667C48.9173 48.6667 54 43.584 54 37.3333C54 31.0827 48.9173 26 42.6667 26C41.912 26 41.1865 26.0667 40.4505 26.2054C39.6452 26.3601 38.8135 25.9947 38.3815 25.2907C37.5815 23.9974 36.5971 22.8294 35.4557 21.8241C32.6584 19.3574 29.0613 18 25.3333 18Z" fill="url(#paint0_linear_564_8753)"/>
<defs>
<linearGradient id="paint0_linear_564_8753" x1="32" y1="14" x2="-8.28572" y2="52.5714" gradientUnits="userSpaceOnUse">
<stop stop-color="#F89D13"/>
<stop offset="0.949" stop-color="#FEA217" stop-opacity="0"/>
</linearGradient>
</defs>
</svg>
