<svg width="64" height="64" viewBox="0 0 64 64" fill="none" xmlns="http://www.w3.org/2000/svg">
<path d="M48 11.334H16C9.552 11.334 6 14.886 6 21.334V42.6673C6 49.1153 9.552 52.6673 16 52.6673H48C54.448 52.6673 58 49.1153 58 42.6673V21.334C58 14.886 54.448 11.334 48 11.334ZM54 42.6673C54 46.8727 52.2053 48.6673 48 48.6673H16C11.7947 48.6673 10 46.8727 10 42.6673V28.6673H54V42.6673ZM54 24.6673H10V21.334C10 17.1287 11.7947 15.334 16 15.334H48C52.2053 15.334 54 17.1287 54 21.334V24.6673ZM16.6667 40.0006C16.6667 38.8967 17.5627 38.0006 18.6667 38.0006H26.6667C27.7707 38.0006 28.6667 38.8967 28.6667 40.0006C28.6667 41.1046 27.7707 42.0006 26.6667 42.0006H18.6667C17.5627 42.0006 16.6667 41.1046 16.6667 40.0006Z" fill="url(#paint0_linear_564_8749)"/>
<defs>
<linearGradient id="paint0_linear_564_8749" x1="32" y1="11.334" x2="-22.2857" y2="52.5721" gradientUnits="userSpaceOnUse">
<stop stop-color="#F89D13"/>
<stop offset="1" stop-color="#F89D13" stop-opacity="0"/>
</linearGradient>
</defs>
</svg>
