<svg width="64" height="64" viewBox="0 0 64 64" fill="none" xmlns="http://www.w3.org/2000/svg">
<path d="M47 6H17C9.90667 6 6 9.90667 6 17V47C6 54.0933 9.90667 58 17 58H47C54.0933 58 58 54.0933 58 47V17C58 9.90667 54.0933 6 47 6ZM54 47C54 51.84 51.84 54 47 54H17C12.0933 54 10 51.9067 10 47V17C10 12.0933 12.0933 10 17 10H47C51.84 10 54 12.16 54 17V47ZM34.6294 30.5921L30.3413 29.528C29.68 29.3627 29.1174 28.9919 28.6934 28.4505C28.2934 27.9439 28.0719 27.2934 28.0719 26.624C28.0719 24.9734 29.4133 23.6322 31.064 23.6322H32.9307C34.456 23.6322 35.7334 24.7788 35.9067 26.2988C36.0294 27.3975 37.0107 28.1921 38.1174 28.0641C39.216 27.9415 40.0053 26.9519 39.8827 25.8532C39.5227 22.6479 37.0426 20.1759 33.9386 19.7253V18.6667C33.9386 17.5627 33.0426 16.6667 31.9386 16.6667C30.8346 16.6667 29.9386 17.5627 29.9386 18.6667V19.7441C26.6186 20.2881 24.0719 23.1521 24.0719 26.6214C24.0719 28.1868 24.5973 29.7174 25.5439 30.9121C26.4933 32.1361 27.848 33.0213 29.368 33.4053L33.6559 34.4694C34.9919 34.8081 35.9253 36.0027 35.9253 37.3734C35.9253 38.168 35.6134 38.9174 35.0454 39.4854C34.4774 40.0534 33.7279 40.3652 32.9333 40.3652H31.0667C29.5414 40.3652 28.264 39.2186 28.0907 37.6986C27.968 36.5999 26.9707 35.7999 25.88 35.9333C24.7814 36.0559 23.9921 37.0452 24.1147 38.1439C24.4694 41.3092 26.8906 43.7655 29.9386 44.2588V45.3333C29.9386 46.4373 30.8346 47.3333 31.9386 47.3333C33.0426 47.3333 33.9386 46.4373 33.9386 45.3333V44.2721C35.4186 44.0561 36.7921 43.4 37.8721 42.32C39.1947 40.9973 39.9253 39.2426 39.9253 37.3786C39.9253 34.1706 37.7521 31.3841 34.6294 30.5921Z" fill="url(#paint0_linear_564_8755)"/>
<defs>
<linearGradient id="paint0_linear_564_8755" x1="32" y1="6" x2="-23.7143" y2="58.2857" gradientUnits="userSpaceOnUse">
<stop stop-color="#F89D13"/>
<stop offset="1" stop-color="#F89D13" stop-opacity="0"/>
</linearGradient>
</defs>
</svg>
