<svg width="121" height="60" viewBox="0 0 121 60" fill="none" xmlns="http://www.w3.org/2000/svg">
<g id="gitlab-ar21 1">
<path id="Vector" fill-rule="evenodd" clip-rule="evenodd" d="M82.9688 21.0638H80.5688L80.5768 38.9358H90.2898V36.7358H82.9748L82.9688 21.0638ZM99.5388 35.7978C99.1541 36.1978 98.6921 36.5154 98.1808 36.7311C97.6695 36.9469 97.1197 37.0563 96.5648 37.0528C94.7368 37.0528 93.9998 36.1528 93.9998 34.9788C93.9998 33.2058 95.2278 32.3588 97.8468 32.3588C98.3468 32.3588 99.1288 32.4138 99.5388 32.4948V35.7978ZM97.0548 24.9658C95.192 24.9629 93.3865 25.6101 91.9498 26.7958L92.7998 28.2658C93.7818 27.6928 94.9828 27.1198 96.7018 27.1198C98.6668 27.1198 99.5398 28.1198 99.5398 29.8198V30.6928C99.1578 30.6108 98.3668 30.5558 97.8758 30.5558C93.6738 30.5558 91.5458 32.0288 91.5458 35.1128C91.5458 37.8688 93.2378 39.2598 95.8018 39.2598C97.5298 39.2598 99.1848 38.4598 99.7578 37.1858L100.195 38.9318H101.887V29.7918C101.887 26.8998 100.632 24.9618 97.0568 24.9618L97.0548 24.9658ZM109.632 37.1358C108.732 37.1358 107.94 37.0358 107.34 36.7538V28.4868C108.16 27.8048 109.168 27.3138 110.44 27.3138C112.76 27.3138 113.66 28.9508 113.66 31.5978C113.66 35.3628 112.214 37.1378 109.622 37.1378M110.622 24.9678C108.476 24.9678 107.322 26.4278 107.322 26.4278V24.1198L107.314 21.0638H104.968L104.975 38.4998C106.148 38.9998 107.758 39.2638 109.505 39.2638C113.98 39.2638 116.135 36.3988 116.135 31.4608C116.135 27.5588 114.143 24.9668 110.623 24.9668M56.8678 22.9998C58.9958 22.9998 60.3598 23.6998 61.2608 24.4198L62.2928 22.6328C60.8868 21.3998 58.9948 20.7368 56.9768 20.7368C51.8748 20.7368 48.3008 23.8368 48.3008 30.1228C48.3008 36.6988 52.1568 39.2628 56.5678 39.2628C58.7678 39.2628 60.6608 38.7448 61.8878 38.2258L61.8378 31.1998V28.9998H55.2898V31.1998H59.4748L59.5248 36.5338C58.9788 36.8068 58.0248 37.0338 56.7418 37.0338C53.1948 37.0338 50.8218 34.8038 50.8218 30.1038C50.8218 25.3288 53.2778 23.0098 56.8788 23.0098M73.7548 21.0638H71.4078L71.4158 24.0638V34.4318C71.4158 37.3238 72.6708 39.2618 76.2458 39.2618C76.7307 39.2619 77.2146 39.2183 77.6918 39.1318V37.0248C77.3307 37.0799 76.966 37.1073 76.6008 37.1068C74.6358 37.1068 73.7628 36.1068 73.7628 34.4068V27.2568H77.6928V25.2918H73.7628L73.7548 21.0638ZM65.4548 38.9358H67.8018V25.2928H65.4548V38.9358ZM65.4548 23.4098H67.8018V21.0628H65.4548V23.4098Z" fill="#8C929D"/>
<path id="Vector_2" fill-rule="evenodd" clip-rule="evenodd" d="M25.3482 48.1941L32.6212 25.8091H18.0752L25.3482 48.1941Z" fill="#E24329"/>
<path id="Vector_3" fill-rule="evenodd" clip-rule="evenodd" d="M25.3479 48.1928L18.0749 25.7998H7.88086L25.3479 48.1928Z" fill="#FC6D26"/>
<path id="Vector_4" fill-rule="evenodd" clip-rule="evenodd" d="M7.88129 25.7998L5.68129 32.6028C5.47929 33.2228 5.70129 33.9028 6.22829 34.2868L25.3583 48.1868L7.88129 25.7998Z" fill="#FCA326"/>
<path id="Vector_5" fill-rule="evenodd" clip-rule="evenodd" d="M7.88086 25.7999H18.0749L13.6949 12.3179C13.4699 11.6239 12.4879 11.6239 12.2629 12.3179L7.88086 25.7999Z" fill="#E24329"/>
<path id="Vector_6" fill-rule="evenodd" clip-rule="evenodd" d="M25.3477 48.1931L32.6207 25.8081H42.8147L25.3477 48.1931Z" fill="#FC6D26"/>
<path id="Vector_7" fill-rule="evenodd" clip-rule="evenodd" d="M42.8149 25.7998L45.0149 32.6028C45.2169 33.2228 44.9949 33.9028 44.4679 34.2868L25.3379 48.1868L42.8149 25.7998Z" fill="#FCA326"/>
<path id="Vector_8" fill-rule="evenodd" clip-rule="evenodd" d="M42.8151 25.7999H32.6211L37.0011 12.3179C37.2261 11.6239 38.2081 11.6239 38.4331 12.3179L42.8151 25.7999Z" fill="#E24329"/>
</g>
</svg>
