<svg width="120" height="60" viewBox="0 0 120 60" fill="none" xmlns="http://www.w3.org/2000/svg">
<path d="M64.8698 11.5718L66.0138 11.5918L69.1218 8.48381L69.2718 7.16681C66.8018 4.96981 63.5518 3.63281 59.9948 3.63281C53.5548 3.63281 48.1188 8.01481 46.5088 13.9508C46.8488 13.7138 47.5738 13.8908 47.5738 13.8908L53.7858 12.8688C53.7858 12.8688 54.1058 12.3388 54.2658 12.3718C55.5992 10.9131 57.439 10.0181 59.4097 9.86943C61.3804 9.72077 63.3326 10.3296 64.8698 11.5718Z" fill="#EA4335"/>
<path d="M73.5003 13.962C72.7862 11.3347 71.321 8.97284 69.2843 7.16602L64.8823 11.568C65.7857 12.2941 66.5147 13.2135 67.0158 14.2587C67.5168 15.3038 67.777 16.448 67.7773 17.607V18.384C69.9193 18.384 71.6573 20.127 71.6573 22.264C71.6573 24.401 69.9143 26.144 67.7773 26.144H60.0153L59.2383 26.924V31.582L60.0153 32.355H67.7773C70.4505 32.3479 73.012 31.2823 74.9016 29.3914C76.7912 27.5005 77.855 24.9382 77.8603 22.265C77.8563 18.829 76.1243 15.785 73.4903 13.962H73.5003Z" fill="#4285F4"/>
<path d="M52.2337 32.3622H59.9937V26.1502H52.2337C51.6827 26.1505 51.138 26.0321 50.6367 25.8032L49.5167 26.1462L46.4087 29.2542L46.1367 30.3042C47.8854 31.6469 50.0301 32.3714 52.2347 32.3642L52.2337 32.3622Z" fill="#34A853"/>
<path d="M52.2337 12.1748C49.5579 12.179 46.9929 13.2439 45.1008 15.1359C43.2087 17.028 42.1439 19.593 42.1396 22.2688C42.1396 23.8269 42.5008 25.3638 43.1949 26.7588C43.8889 28.1539 44.8969 29.369 46.1396 30.3088L50.6396 25.8088C49.958 25.5021 49.3795 25.0051 48.9736 24.3774C48.5677 23.7498 48.3517 23.0183 48.3517 22.2708C48.3517 20.1288 50.0946 18.3908 52.2316 18.3908C52.9788 18.3921 53.7098 18.6086 54.3372 19.0143C54.9647 19.4201 55.4619 19.9979 55.7696 20.6788L60.2696 16.1788C58.4236 13.7488 55.5096 12.1788 52.2296 12.1788L52.2337 12.1748Z" fill="#FBBC05"/>
<path d="M11.9996 51.9369C9.87959 51.9369 8.05959 51.1869 6.52559 49.6869C4.99159 48.1869 4.22559 46.3829 4.22559 44.2789C4.22559 42.1749 4.99059 40.3709 6.52559 38.8709C8.06059 37.3709 9.88259 36.6199 11.9996 36.6199C12.9707 36.6058 13.935 36.7851 14.8362 37.1473C15.7373 37.5096 16.5574 38.0476 17.2486 38.7299L15.7716 40.2069C14.7609 39.2296 13.4044 38.6921 11.9986 38.7119C10.4686 38.7119 9.16859 39.2519 8.10259 40.3389C7.584 40.8539 7.17513 41.4686 6.90065 42.1459C6.62617 42.8233 6.49178 43.5492 6.50559 44.2799C6.50559 45.8259 7.03559 47.1369 8.10259 48.2199C8.604 48.746 9.20919 49.1623 9.87982 49.4423C10.5505 49.7224 11.2719 49.8602 11.9986 49.8469C13.5566 49.8469 14.8436 49.3469 15.8686 48.3129C16.4686 47.7129 16.8686 46.8129 17.0086 45.6779H12.0026V43.5859H19.0466C19.1216 43.9579 19.1466 44.3859 19.1466 44.8859C19.1466 46.9419 18.5436 48.5719 17.3336 49.7809C15.9616 51.2159 14.1836 51.9309 11.9886 51.9309L11.9996 51.9369ZM28.3696 50.5369C27.4096 51.4769 26.2396 51.9369 24.8576 51.9369C23.4756 51.9369 22.3036 51.4669 21.3456 50.5369C20.3876 49.6069 19.9076 48.4239 19.9076 47.0169C19.9076 45.6099 20.3876 44.4369 21.3456 43.4969C22.3036 42.5569 23.4756 42.0969 24.8576 42.0969C26.2396 42.0969 27.4116 42.5669 28.3696 43.4969C29.3276 44.4269 29.8076 45.6129 29.8076 47.0169C29.8076 48.4209 29.3276 49.5969 28.3696 50.5369ZM22.8956 49.1569C23.1451 49.428 23.4487 49.6437 23.7869 49.79C24.1251 49.9362 24.4902 50.0098 24.8586 50.0059C25.6186 50.0059 26.2726 49.7239 26.8216 49.1559C27.3706 48.5879 27.6436 47.8759 27.6436 47.0159C27.6436 46.1459 27.3736 45.4279 26.8306 44.8659C26.2876 44.3039 25.6326 44.0259 24.8586 44.0259C24.4894 44.0203 24.1232 44.0921 23.7835 44.2368C23.4438 44.3815 23.1383 44.5958 22.8866 44.8659C22.3436 45.4259 22.0736 46.1419 22.0736 47.0159C22.0736 47.8739 22.3466 48.5889 22.8956 49.1559V49.1569ZM39.1686 50.5369C38.2086 51.4769 37.0386 51.9369 35.6566 51.9369C34.2746 51.9369 33.1026 51.4669 32.1446 50.5369C31.1866 49.6069 30.7066 48.4239 30.7066 47.0169C30.7066 45.6099 31.1866 44.4369 32.1446 43.4969C33.1026 42.5569 34.2746 42.0969 35.6566 42.0969C37.0386 42.0969 38.2106 42.5669 39.1686 43.4969C40.1266 44.4269 40.6066 45.6129 40.6066 47.0169C40.6066 48.4209 40.1266 49.5969 39.1686 50.5369ZM33.6946 49.1569C33.9441 49.428 34.2477 49.6437 34.5859 49.79C34.9241 49.9362 35.2892 50.0098 35.6576 50.0059C36.4176 50.0059 37.0716 49.7239 37.6206 49.1559C38.1696 48.5879 38.4426 47.8759 38.4426 47.0159C38.4426 46.1459 38.1726 45.4279 37.6296 44.8659C37.0866 44.3039 36.4316 44.0259 35.6576 44.0259C35.2884 44.0203 34.9222 44.0921 34.5825 44.2368C34.2428 44.3815 33.9373 44.5958 33.6856 44.8659C33.1426 45.4259 32.8726 46.1419 32.8726 47.0159C32.8726 47.8739 33.1456 48.5889 33.6946 49.1559V49.1569ZM46.2676 56.3769C45.1726 56.3769 44.2506 56.0829 43.5036 55.4969C42.7566 54.9109 42.2216 54.2329 41.8976 53.4589L43.7856 52.6759C43.9836 53.1499 44.2856 53.5609 44.7186 53.9099C45.1516 54.2589 45.6586 54.4319 46.2706 54.4319C47.0926 54.4319 47.7386 54.1819 48.2036 53.6849C48.6686 53.1879 48.9036 52.4689 48.9036 51.5349V50.8349H48.8286C48.2286 51.5819 47.3516 51.9569 46.2326 51.9569C44.9746 51.9569 43.8726 51.4769 42.9256 50.5189C42.4656 50.0661 42.1025 49.5244 41.8584 48.9268C41.6142 48.3293 41.4942 47.6883 41.5056 47.0429C41.494 46.3935 41.6139 45.7484 41.8579 45.1464C42.1019 44.5444 42.4651 43.998 42.9256 43.5399C43.8706 42.5769 44.9756 42.0929 46.2326 42.0929C46.7926 42.0929 47.3006 42.1979 47.7546 42.4109C48.2086 42.6239 48.5676 42.8849 48.8286 43.1939H48.9036V42.3999H50.9596V51.2569C50.9596 52.9769 50.5216 54.2609 49.6416 55.1169C48.7616 55.9669 47.6396 56.3969 46.2686 56.3969L46.2676 56.3769ZM46.4176 50.0049C46.7741 50.0112 47.1275 49.9383 47.4525 49.7915C47.7774 49.6447 48.0657 49.4276 48.2966 49.1559C48.8006 48.5889 49.0526 47.8829 49.0526 47.0339C49.0526 46.1759 48.8006 45.4579 48.2966 44.8839C48.067 44.61 47.7792 44.3909 47.4541 44.2424C47.129 44.094 46.7749 44.02 46.4176 44.0259C45.6576 44.0259 45.0096 44.3139 44.4756 44.8839C43.9416 45.4539 43.6716 46.1719 43.6716 47.0339C43.6716 47.8799 43.9386 48.5889 44.4756 49.1559C45.0126 49.7229 45.6586 50.0049 46.4176 50.0049ZM54.6196 37.1399V51.6399H52.4526V37.1399H54.6196ZM60.5596 51.9359C59.1636 51.9359 57.9996 51.4619 57.0656 50.5159C56.1316 49.5699 55.6636 48.3999 55.6636 47.0039C55.6636 45.5599 56.1136 44.3739 57.0176 43.4539C57.4417 43.0076 57.9537 42.6542 58.5214 42.416C59.0891 42.1778 59.7 42.0599 60.3156 42.0699C60.9126 42.0699 61.4686 42.1779 61.9786 42.3969C62.4528 42.5912 62.8842 42.8766 63.2486 43.2369C63.5524 43.5394 63.8221 43.8744 64.0526 44.2359C64.2431 44.5449 64.4057 44.8701 64.5386 45.2079L64.7636 45.7679L58.1696 48.4999C58.6696 49.4959 59.4696 49.9949 60.5616 49.9949C61.5576 49.9949 62.3686 49.5419 62.9896 48.6319L64.6696 49.7539C64.2946 50.3139 63.7666 50.8189 63.0816 51.2669C62.3966 51.7149 61.5536 51.9369 60.5576 51.9369L60.5596 51.9359ZM57.8136 46.8559L62.2136 45.0259C62.0876 44.7139 61.8596 44.4619 61.5136 44.2699C61.1657 44.075 60.7723 43.9756 60.3736 43.9819C59.7376 43.9819 59.1436 44.2419 58.5906 44.7649C58.0376 45.2879 57.7706 45.9869 57.7956 46.8569L57.8136 46.8559ZM76.1436 51.9359C74.1736 51.9359 72.5236 51.2699 71.1916 49.9359C69.8596 48.6019 69.1916 46.9409 69.1916 44.9479C69.1916 42.9549 69.8576 41.2919 71.1916 39.9599C72.5256 38.6279 74.1746 37.9599 76.1436 37.9599C78.1606 37.9599 79.7996 38.6899 81.0566 40.1449L79.8616 41.3049C78.9616 40.1709 77.7116 39.6049 76.1416 39.6049C74.6816 39.6049 73.4556 40.0969 72.4416 41.0819C71.4276 42.0669 70.9376 43.3539 70.9376 44.9479C70.9376 46.5419 71.4376 47.8319 72.4416 48.8179C73.4456 49.8039 74.6746 50.2949 76.1416 50.2949C77.7476 50.2949 79.1186 49.6469 80.2416 48.3529L81.4366 49.5479C80.8104 50.2951 80.0244 50.8921 79.1366 51.2949C78.1949 51.7281 77.169 51.9473 76.1326 51.9369L76.1436 51.9359ZM84.6996 51.6399H82.9796V38.2629H84.6996V51.6399ZM87.5026 43.5799C88.3876 42.6529 89.5026 42.1869 90.8846 42.1869C92.2666 42.1869 93.3816 42.6519 94.2666 43.5799C95.1516 44.5079 95.5936 45.6799 95.5936 47.0649C95.5936 48.4499 95.1536 49.6219 94.2666 50.5499C93.3796 51.4779 92.2666 51.9429 90.8846 51.9429C89.5026 51.9429 88.3876 51.4779 87.5026 50.5499C86.6176 49.6219 86.1756 48.4499 86.1756 47.0649C86.1756 45.6799 86.6156 44.5079 87.5026 43.5799ZM88.7826 49.4629C89.3826 50.0659 90.0766 50.3689 90.8826 50.3689C91.6886 50.3689 92.3826 50.0659 92.9826 49.4629C93.5826 48.8599 93.8706 48.0579 93.8706 47.0629C93.8706 46.0679 93.5736 45.2649 92.9826 44.6629C92.3916 44.0609 91.6886 43.7569 90.8826 43.7569C90.0766 43.7569 89.3826 44.0599 88.7826 44.6629C88.1826 45.2659 87.8946 46.0679 87.8946 47.0629C87.8946 48.0579 88.1916 48.8609 88.7826 49.4629ZM105.103 51.6399H103.458V50.3699H103.383C103.123 50.8049 102.723 51.1769 102.188 51.4699C101.653 51.7629 101.088 51.9299 100.488 51.9299C99.3406 51.9299 98.4736 51.5819 97.8826 50.8829C97.2916 50.1839 96.9946 49.2499 96.9946 48.0799V42.4739H98.7146V47.7979C98.7146 49.5059 99.4676 50.3579 100.975 50.3579C101.312 50.365 101.646 50.2908 101.948 50.1414C102.251 49.9921 102.513 49.772 102.713 49.4999C103.157 48.9362 103.394 48.2368 103.385 47.5189V42.4739H105.105V51.6309L105.103 51.6399ZM110.931 51.9369C109.748 51.9369 108.725 51.4689 107.867 50.5349C107.009 49.6009 106.579 48.4429 106.579 47.0589C106.579 45.6749 107.009 44.5169 107.867 43.5829C108.725 42.6489 109.749 42.1809 110.931 42.1809C111.627 42.1809 112.255 42.3309 112.811 42.6279C113.367 42.9249 113.781 43.2999 114.054 43.7499H114.129L114.054 42.4799V38.2599H115.774V51.6399H114.129V50.3699H114.054C113.781 50.8169 113.367 51.1919 112.811 51.4919C112.256 51.7859 111.628 51.9369 110.931 51.9369ZM111.211 50.3669C111.599 50.3722 111.983 50.2949 112.339 50.1403C112.695 49.9857 113.015 49.7572 113.276 49.4699C113.843 48.8729 114.126 48.0679 114.126 47.0699C114.126 46.0719 113.844 45.2569 113.276 44.6699C113.015 44.3827 112.695 44.1542 112.339 43.9995C111.983 43.8449 111.599 43.7676 111.211 43.7729C110.413 43.7729 109.728 44.0759 109.155 44.6789C108.582 45.2819 108.297 46.0839 108.297 47.0789C108.297 48.0739 108.582 48.8769 109.155 49.4789C109.413 49.7672 109.731 49.997 110.085 50.1532C110.44 50.3094 110.823 50.3884 111.211 50.3849V50.3669Z" fill="#5F6368"/>
</svg>
