<svg width="158" height="38" viewBox="0 0 158 38" fill="none" xmlns="http://www.w3.org/2000/svg">
<g id="Group">
<path id="Vector" d="M64.2861 14.1068C68.9481 14.1068 69.9917 16.8252 69.9917 19.9623V23.087H61.8677V23.8369C61.8989 25.5742 62.5238 26.2616 64.7361 26.2616C66.2451 26.254 67.7446 26.0223 69.1855 25.5742L69.7542 28.3238C68.0388 28.9422 66.2283 29.2553 64.4049 29.2488C59.8367 29.2488 58.2493 27.1302 58.2493 23.6244V19.7811C58.2493 16.7065 59.6242 14.1068 64.2861 14.1068ZM94.9199 14.1005C99.4881 14.1005 100.838 15.7129 100.838 19.3562L100.825 28.9488H97.8383L97.5696 27.9614C96.2808 28.8001 94.7765 29.2473 93.2389 29.2487C90.5829 29.2487 89.4456 27.4239 89.4456 24.918C89.4456 21.9621 90.7329 20.8247 93.6888 20.8247H97.1821V19.2999C97.1821 17.6876 96.7322 17.1189 94.4012 17.1189C93.0451 17.1339 91.6953 17.2852 90.3705 17.5689L89.9205 14.788C91.5491 14.338 93.2303 14.1068 94.9199 14.1005ZM119.136 14.1005C124.123 14.1005 125.466 16.8502 125.466 19.8374V23.5119C125.472 26.4991 124.123 29.2487 119.136 29.2487C114.136 29.2487 112.805 26.4991 112.805 23.5119V19.8374C112.805 16.8502 114.149 14.1005 119.136 14.1005ZM61.3052 9.05116V12.3695H55.7434V28.9488H51.9939L51.9814 12.3695H46.4258V9.05116H61.3052ZM109.281 7.85749C110.336 7.85395 111.388 7.99482 112.405 8.27625L112.024 11.0822C111.336 10.9341 110.635 10.8546 109.931 10.8447C108.5 10.8447 108.287 11.4696 108.287 12.5757V14.4005H111.993L111.787 17.3002H108.293V28.9488H104.65V17.3002H102.319V14.4005H104.65V12.3695C104.65 9.35112 106.056 7.85749 109.281 7.85749ZM147.982 15.6566C149.8 14.7252 151.797 14.1946 153.838 14.1005C156.256 14.1005 157.125 15.8003 157.125 18.4V28.9488H153.482V18.7937C153.482 18.0188 153.15 17.6314 152.319 17.6314C150.981 17.7789 149.689 18.2046 148.526 18.8812V28.9488H144.858V18.7937C144.858 18.0188 144.526 17.6314 143.695 17.6314C142.36 17.7901 141.071 18.2151 139.902 18.8812V28.9488H136.259V14.4005H139.04L139.396 15.6504C141.212 14.7317 143.2 14.2038 145.233 14.1005C146.384 13.9918 147.482 14.613 147.982 15.6566ZM79.3593 14.1005L79.7343 17.4501C78.3923 18.0558 77.099 18.7641 75.866 19.5686V28.9425H72.2227V14.4005H75.2973L75.5348 16.0128C76.7202 15.2104 78.0061 14.5675 79.3593 14.1005ZM88.2707 14.1005L88.6332 17.4501C87.2954 18.0562 86.0063 18.7645 84.7774 19.5686V28.9425H81.1341V14.4005H84.2087L84.4462 16.0128C85.6317 15.2104 86.9175 14.5675 88.2707 14.1005ZM134.484 14.1005L134.846 17.4501C133.509 18.0562 132.22 18.7645 130.991 19.5686V28.9425H127.347V14.4005H130.422L130.659 16.0128C131.845 15.2103 133.131 14.5674 134.484 14.1005ZM97.1821 23.4494H94.495C93.3014 23.4494 92.9702 23.7806 92.9702 24.8805C92.9702 25.9804 93.3014 26.3428 94.4325 26.3428C95.3975 26.3281 96.3432 26.0702 97.1821 25.5929V23.4494ZM119.136 17.2064C117.192 17.2064 116.449 18.0751 116.449 19.7061V23.6182C116.449 25.2617 117.198 26.1178 119.136 26.1178C121.073 26.1178 121.823 25.2492 121.823 23.6182V19.7186C121.823 18.0751 121.079 17.2064 119.136 17.2064ZM64.3174 17.0877C62.5238 17.0877 61.8989 18.0438 61.8989 19.4187V20.1561H66.5296V19.4187C66.5296 18.0438 66.1109 17.0877 64.3174 17.0877Z" fill="black"/>
<g id="Group_2">
<path id="Vector_2" d="M23.6221 24.6115L33.8708 18.6997V6.85742L23.6221 12.7817V24.6115Z" fill="#4040B2"/>
<path id="Vector_3" d="M12.2486 6.85789L22.4974 12.7822V24.612L12.2486 18.694M0.875 12.0885L11.1238 18.0065V6.17048L0.875 0.252441M12.2486 31.8299L22.4974 37.7479V25.9118L12.2486 19.9938" fill="#5C4EE5"/>
</g>
</g>
</svg>
