<svg width="121" height="60" viewBox="0 0 121 60" fill="none" xmlns="http://www.w3.org/2000/svg">
<g id="jenkins-ar21 1">
<g id="Group">
<path id="Vector" fill-rule="evenodd" clip-rule="evenodd" d="M37.445 28.9347C37.445 37.9759 30.28 45.3047 21.4412 45.3047C12.6025 45.3047 5.4375 37.9747 5.4375 28.9347C5.4375 19.8947 12.6025 12.5647 21.4412 12.5647C30.28 12.5647 37.445 19.8934 37.445 28.9347Z" fill="#D33833"/>
<path id="Vector_2" d="M6.09008 32.9873C6.09008 32.9873 4.93133 15.9173 20.6626 15.4298L19.5626 13.5998L11.0276 16.4661L8.59008 19.2711L6.45633 23.3561L5.23633 28.1111L5.60258 31.2811" fill="#EF3D3A"/>
<path id="Vector_3" d="M10.4797 17.767C7.67223 20.6395 5.93473 24.607 5.93473 28.9958C5.93473 33.3845 7.68473 37.3508 10.4797 40.2233C13.2747 43.0958 17.161 44.8683 21.4422 44.8683C25.7235 44.8683 29.5947 43.0958 32.4047 40.2233C35.2147 37.3508 36.951 33.3833 36.951 28.9958C36.951 24.6083 35.201 20.6408 32.4047 17.767C29.6085 14.8933 25.7235 13.122 21.4422 13.122C17.161 13.122 13.2922 14.8945 10.4797 17.767ZM9.76723 40.917C6.78348 37.8645 4.93848 33.647 4.93848 28.9945C4.93848 24.342 6.78348 20.1233 9.76723 17.072C12.751 14.0208 16.8797 12.127 21.4397 12.1283C25.9997 12.1295 30.1272 14.0195 33.111 17.072C36.0947 20.1245 37.941 24.342 37.9397 28.9945C37.9385 33.647 36.0947 37.8645 33.111 40.917C30.1272 43.9695 25.9997 45.8745 21.441 45.8745C16.8822 45.8745 12.751 43.9695 9.76723 40.917Z" fill="#231F20"/>
<g id="Group_2">
<path id="Vector_4" fill-rule="evenodd" clip-rule="evenodd" d="M28.1786 29.0243L25.7411 29.3906L22.4486 29.7568L20.3148 29.8193L18.2423 29.7568L16.6573 29.2568L15.2548 27.7318L14.1573 24.6231L13.9136 23.9518L12.4511 23.4518L11.5973 22.0493L10.9873 20.0493L11.6586 18.2806L13.2436 17.7306L14.5236 18.3406L15.1336 19.6818L15.8648 19.5593L16.1086 19.2543L15.8748 17.8681L15.8123 16.0993L16.1786 13.6618L16.1661 12.2693L17.2786 10.4918L19.2286 9.08933L22.6411 7.62684L26.4211 8.17683L29.7136 10.5543L31.2386 12.9918L32.2136 14.7606L32.4573 19.1506L31.7261 22.9306L30.3848 26.2843L29.1048 28.0531" fill="#F0D6B7"/>
<path id="Vector_5" fill-rule="evenodd" clip-rule="evenodd" d="M26.1049 39.572L17.3874 39.937V41.3995L18.1186 46.5207L17.7524 46.9482L11.6561 44.877L11.2286 44.1457L10.6186 37.2582L9.21613 33.112L8.91113 32.137L13.7886 28.7832L15.3136 28.1732L16.6549 29.8195L17.8136 30.857L19.1549 31.282L19.7649 31.4645L20.4961 34.6345L21.0461 35.3057L22.4486 34.8057L21.4736 36.6957L26.7774 39.1957L26.1074 39.562" fill="#335061"/>
<path id="Vector_6" fill-rule="evenodd" clip-rule="evenodd" d="M11.6557 18.2946L13.2407 17.7445L14.5207 18.3546L15.1307 19.6958L15.862 19.5733L16.0445 18.8421L15.6782 17.4396L16.0445 14.0858L15.7395 12.2571L16.837 10.9771L19.2145 9.08705L18.5432 8.17205L15.1895 9.8183L13.787 10.9158L12.9945 12.6233L11.7745 14.2696L11.4082 16.2196L11.652 18.2921" fill="#6D6B6D"/>
<path id="Vector_7" fill-rule="evenodd" clip-rule="evenodd" d="M14.1546 12.5619C14.1546 12.5619 15.0696 10.3057 18.7271 9.20819C22.3846 8.11068 18.9096 8.41569 18.9096 8.41569L14.9471 9.94068L13.4221 11.4657L12.7521 12.6857L14.1546 12.5632M12.3246 17.8682C12.3246 17.8682 11.0459 13.5994 15.9246 12.9907L15.7421 12.2594L12.3746 13.0494L11.4121 16.2219L11.6559 18.2944L12.3259 17.8694" fill="#DCD9D8"/>
<path id="Vector_8" fill-rule="evenodd" clip-rule="evenodd" d="M14.2773 23.5371L15.0773 22.7621C15.0773 22.7621 15.4373 22.8046 15.4986 23.2309C15.5598 23.6571 15.7398 27.4996 18.3748 29.5746C18.6248 29.7621 16.4248 29.2696 16.4248 29.2696L14.4748 26.2196M25.4961 22.3796C25.4961 22.3796 25.6386 20.5321 26.1361 20.6734C26.6336 20.8146 26.6336 21.3134 26.6336 21.3134C26.6336 21.3134 25.4248 22.0959 25.5086 22.3796" fill="#F7E4CD"/>
</g>
<path id="Vector_9" d="M30.5557 15.6248C30.5557 15.6248 29.5507 15.8373 29.4582 16.7223C29.3657 17.6073 30.5557 16.9048 30.7382 16.8448M23.1782 15.6748C23.1782 15.6748 21.8369 15.8573 21.8369 16.7123C21.8369 17.5673 23.3619 17.5048 23.7869 17.1398" fill="#F7E4CD"/>
<g id="Group_3">
<path id="Vector_10" fill-rule="evenodd" clip-rule="evenodd" d="M14.8749 19.6245C14.8749 19.6245 12.5574 18.222 12.3124 19.562C12.0674 20.902 11.5199 21.8783 12.6786 23.2808L11.8861 23.037L11.1549 21.147L10.9111 19.3183L12.3136 17.8558L13.8986 17.9783L14.8136 18.7095L14.8749 19.6245ZM15.9849 15.782C15.9849 15.782 17.0224 10.417 22.2649 9.38201C26.5811 8.52826 28.8499 9.56451 29.7024 10.5408C29.7024 10.5408 25.8611 5.96826 22.2024 7.37076C18.5436 8.77326 15.8749 11.3445 15.9249 12.9908L15.9874 15.7958M30.1286 11.162C30.1286 11.162 28.3611 11.0995 28.2999 12.687C28.2999 12.687 28.2999 12.9308 28.4211 13.187C28.4211 13.187 29.8236 11.602 30.6774 12.4558M22.3749 13.337C22.3749 13.337 22.0711 10.9033 19.9961 12.3183C18.6549 13.2333 18.7774 14.5133 19.0211 14.7558C19.2649 14.9983 19.1986 15.4908 19.3961 15.1533C19.5936 14.8158 19.5211 13.7183 20.1911 13.4033C20.8611 13.0883 21.9611 12.7583 22.3874 13.3245" fill="#F7E4CD"/>
<path id="Vector_11" fill-rule="evenodd" clip-rule="evenodd" d="M16.6549 29.8167L10.9249 32.3779C10.9249 32.3779 13.3024 41.8279 12.0836 44.7529L11.2299 44.4479L11.1674 40.8504L9.58238 34.0217L8.91113 32.1317L14.8861 28.1067L16.6536 29.8129M17.2449 35.0442L18.0574 36.0367V39.6942H17.0824L16.9611 36.8292C16.9611 36.5242 17.0824 35.4267 17.0824 35.4267M17.2649 40.2429L14.5211 40.3642L15.3136 40.9142L17.2636 41.2192" fill="#49728B"/>
<g id="Group_4">
<path id="Vector_12" fill-rule="evenodd" clip-rule="evenodd" d="M26.6536 39.6331L28.9098 39.5706L29.4598 45.1794L27.1436 45.4844L26.6436 39.6319" fill="#335061"/>
<path id="Vector_13" fill-rule="evenodd" clip-rule="evenodd" d="M27.2627 39.6333L30.6752 39.4508L32.0777 35.7321C32.0777 35.5496 33.2977 30.6108 33.2977 30.6108L30.5539 27.7458L30.0039 27.2458L28.5414 28.7083V34.3783L27.2627 39.6333Z" fill="#335061"/>
</g>
<path id="Vector_14" fill-rule="evenodd" clip-rule="evenodd" d="M28.7871 39.2067L26.6533 39.6317L26.9583 41.3392C27.7508 41.7054 29.0921 40.7292 29.0921 40.7292M28.8496 28.5367L33.1171 31.7067L33.2396 30.2442L30.0083 27.2442L28.8496 28.5242" fill="#49728B"/>
<path id="Vector_15" fill-rule="evenodd" clip-rule="evenodd" d="M19.3802 51.6444L18.1302 46.5219L17.5027 42.7431L17.3877 39.9369L23.1002 39.6331H26.6539L26.3289 46.0356L26.8789 50.9731L26.8164 51.8881L22.1827 52.2544L19.3777 51.6444" fill="white"/>
<path id="Vector_16" fill-rule="evenodd" clip-rule="evenodd" d="M25.8625 39.5717C25.8625 39.5717 25.5575 45.913 26.4725 50.4242C26.4725 50.4242 24.6437 51.583 21.96 51.8867L27.0812 51.7042L27.6912 51.338L26.96 41.338L26.7775 39.2042" fill="#DCD9D8"/>
<path id="Vector_17" fill-rule="evenodd" clip-rule="evenodd" d="M29.5624 44.6943L31.9399 44.0231L36.4524 43.7793L37.1236 41.7068L35.9036 38.1093L34.5011 37.9268L32.5511 38.5368L30.6799 39.4493L29.6861 39.2668L28.9111 39.5706" fill="white"/>
<path id="Vector_18" fill-rule="evenodd" clip-rule="evenodd" d="M29.5186 43.4744C29.5186 43.4744 31.1036 42.7431 31.3473 42.8044L30.6773 39.4506L31.4698 39.1456L32.0198 42.6831L35.7386 42.8656C35.7386 42.8656 36.4698 41.4631 36.2886 40.0006L36.9598 41.9506L37.0223 43.0481L36.0473 44.5106L34.9498 44.7544L33.1211 44.6919L32.5111 43.8994L30.3773 44.2044L29.7061 44.4481" fill="#DCD9D8"/>
</g>
<path id="Vector_19" d="M27.1246 39.146L25.7834 35.7335L24.3809 33.7335C24.3809 33.7335 24.6859 32.8797 25.1121 32.8797H26.5146L27.8559 33.3797L27.7346 35.636L27.1246 39.146Z" fill="white"/>
<path id="Vector_20" fill-rule="evenodd" clip-rule="evenodd" d="M27.3844 37.9994C27.3844 37.9994 25.6769 34.7069 25.6769 34.2194C25.6769 34.2194 25.9819 33.4882 26.4082 33.6694C26.8344 33.8507 27.7494 34.3394 27.7494 34.3394V33.1807L25.6769 32.7532L24.2744 32.9357L26.6519 38.5444L27.1519 38.6069" fill="#DCD9D8"/>
<path id="Vector_21" d="M19.9288 29.9408L18.2413 29.7571L16.6562 29.2571V29.8071L17.4312 30.6608L19.8688 31.7583" fill="white"/>
<g id="Group_5">
<path id="Vector_22" fill-rule="evenodd" clip-rule="evenodd" d="M17.2037 30.1246C17.2037 30.1246 19.0937 30.9171 19.7037 30.7346L19.7662 31.4658L18.06 31.1008L17.0225 30.3696L17.205 30.1258" fill="#DCD9D8"/>
<path id="Vector_23" fill-rule="evenodd" clip-rule="evenodd" d="M29.5562 33.0744C28.5212 33.0444 27.5875 32.9207 26.7687 32.6907C26.8237 32.3557 26.7187 32.0257 26.8037 31.7844C27.0312 31.6219 27.4137 31.6219 27.7587 31.5844C27.4278 31.4288 27.0548 31.3866 26.6975 31.4644C26.69 31.2319 26.5725 31.0869 26.5225 30.9057C27.1037 30.6982 28.4775 29.3369 29.25 29.7882C29.6175 30.0007 29.775 31.2257 29.8025 31.8219C29.8275 32.3157 29.7575 32.8144 29.5562 33.0757" fill="#D33833"/>
</g>
<path id="Vector_24" d="M29.5562 33.0744C28.5212 33.0444 27.5875 32.9207 26.7687 32.6907C26.8237 32.3557 26.7187 32.0257 26.8037 31.7844C27.0312 31.6219 27.4137 31.6219 27.7587 31.5844C27.4278 31.4288 27.0548 31.3866 26.6975 31.4644C26.69 31.2319 26.5725 31.0869 26.5225 30.9057C27.1037 30.6982 28.4775 29.3369 29.25 29.7882C29.6175 30.0007 29.775 31.2257 29.8025 31.8219C29.8275 32.3157 29.7575 32.8144 29.5562 33.0757V33.0744Z" stroke="#D33833" stroke-width="0.36625"/>
<path id="Vector_25" fill-rule="evenodd" clip-rule="evenodd" d="M24.6082 31.3833L24.5995 31.6208C24.277 31.8333 23.7545 31.8308 23.3995 31.9958C23.848 32.0103 24.288 32.1216 24.6895 32.3221L24.667 32.9133C24.0745 33.3183 23.5345 33.9221 22.837 34.3008C22.507 34.4808 21.3495 34.9433 20.9995 34.8608C20.7995 34.8146 20.7832 34.5683 20.7045 34.3358C20.5357 33.8383 20.147 33.0483 20.112 32.2983C20.0682 31.3533 19.9745 29.7696 20.992 29.9646C21.8132 30.1208 22.7695 30.4996 23.4045 30.8471C23.792 31.0596 24.017 31.3221 24.6082 31.3671" fill="#D33833"/>
<path id="Vector_26" d="M24.6082 31.3833L24.5995 31.6208C24.277 31.8333 23.7545 31.8308 23.3995 31.9958C23.848 32.0103 24.288 32.1216 24.6895 32.3221L24.667 32.9133C24.0745 33.3183 23.5345 33.9221 22.837 34.3008C22.507 34.4808 21.3495 34.9433 20.9995 34.8608C20.7995 34.8146 20.7832 34.5683 20.7045 34.3358C20.5357 33.8383 20.147 33.0483 20.112 32.2983C20.0682 31.3533 19.9745 29.7696 20.992 29.9646C21.8132 30.1208 22.7695 30.4996 23.4045 30.8471C23.792 31.0596 24.017 31.3221 24.6082 31.3671V31.3833Z" stroke="#D33833" stroke-width="0.36625"/>
<path id="Vector_27" fill-rule="evenodd" clip-rule="evenodd" d="M25.1962 32.5119C25.1062 31.9969 25.0012 31.8494 25.0424 31.4019C26.4149 30.4869 26.6724 32.9744 25.1962 32.5119Z" fill="#D33833"/>
<path id="Vector_28" d="M25.1962 32.5119C25.1062 31.9969 25.0012 31.8494 25.0424 31.4019C26.4149 30.4869 26.6724 32.9744 25.1962 32.5119Z" stroke="#D33833" stroke-width="0.36625"/>
<path id="Vector_29" fill-rule="evenodd" clip-rule="evenodd" d="M27.1852 32.9272C27.1852 32.9272 26.7577 32.3172 27.0627 32.1347C27.3677 31.9522 27.6727 32.1347 27.8552 31.8297C28.0377 31.5247 27.8552 31.3297 27.9177 30.9759C27.9802 30.6222 28.284 30.5484 28.589 30.4759C28.894 30.4034 29.7477 30.2934 29.869 30.5984L29.5027 29.5009L28.7715 29.2572L26.4552 30.5984L26.3327 31.2697V32.6122M20.7827 34.9409L20.5327 32.0884C20.404 30.6697 20.874 30.9172 22.104 30.9172C22.2915 30.9172 23.2615 31.1422 23.329 31.2834C23.6615 31.9622 22.7727 31.8122 23.7115 32.3234C24.504 32.7559 25.904 32.0734 25.584 31.0984C25.4052 30.8859 24.6502 31.0322 24.379 30.8922L22.9502 30.1509C22.344 29.8359 20.944 29.3784 20.2977 29.8172C18.6727 30.9422 20.4015 33.7122 20.9852 34.8734" fill="#EF3D3A"/>
<path id="Vector_30" fill-rule="evenodd" clip-rule="evenodd" d="M22.375 13.3372C20.7125 12.9622 19.875 14.0322 19.3837 15.1547C18.9337 15.0459 19.1125 14.4334 19.2262 14.1222C19.5237 13.3047 20.7225 12.2159 21.7012 12.3634C22.1225 12.4259 22.6925 12.8134 22.3737 13.3384M30.4837 15.2309L30.5625 15.2334C30.9375 16.0134 31.2625 16.8397 31.7375 17.5284C31.42 18.2784 29.335 18.9222 29.3662 17.5947C29.8162 17.3972 30.5962 17.5547 30.9962 17.3022C30.765 16.6672 30.4312 16.1272 30.4962 15.2297M23.25 15.2497C23.6062 15.9034 23.7225 16.5897 24.2287 17.0822C24.4562 17.3047 24.9 17.5747 24.6787 18.2072C24.6287 18.3534 24.2512 18.6784 24.035 18.7422C23.2437 18.9759 21.41 18.7922 22.035 17.8047C22.69 17.8347 23.57 18.2297 24.06 17.7547C23.685 17.1547 23.0137 15.9647 23.26 15.2647M30.1875 21.8897C28.995 22.6559 27.6662 23.4897 25.7125 23.2947C25.295 22.9197 25.1375 22.1247 25.5412 21.5909C25.7537 21.9659 25.62 22.6209 26.2075 22.7222C27.3162 22.9122 28.6075 22.0447 29.4037 21.7409C29.8987 20.9072 29.3612 20.6009 28.9037 20.0659C27.9912 18.9659 26.7687 17.6034 26.8137 15.9597C27.1825 15.6922 27.2137 16.3672 27.2675 16.4909C27.7425 17.6159 28.9425 19.0284 29.8175 19.9834C30.0325 20.2184 30.3862 20.4434 30.425 20.5984C30.55 21.0484 30.13 21.5909 30.1775 21.8909M14.47 21.0834C14.095 20.8709 14.0075 19.9309 13.57 19.9047C12.9425 19.8672 13.07 21.1234 13.06 21.8584C12.6287 21.4672 12.5525 20.2609 12.87 19.6409C12.495 19.4634 12.3475 19.8372 12.1475 19.9684C12.405 18.0972 14.8975 19.1009 14.4725 21.0847M30.945 22.6684C30.39 23.7247 29.605 24.8884 27.9762 24.9222C27.9437 24.5809 27.9175 24.0622 27.9775 23.8572C29.2225 23.7372 29.9775 23.1034 30.9437 22.6697M23.1437 23.3534C24.1812 23.8997 26.0912 23.9584 27.5025 23.9159C27.5775 24.2247 27.5775 24.6072 27.5775 24.9847C25.7625 25.0747 23.6175 24.6259 23.14 23.3522M22.9462 24.3722C23.665 26.1759 26.1337 25.9684 28.215 25.9184C28.1237 26.1522 27.925 26.4184 27.6775 26.5434C27.01 26.8147 25.17 27.0209 24.245 26.5284C23.6575 26.2159 23.28 25.5109 22.9575 25.0972C22.8025 24.8972 22.0287 24.3872 22.945 24.3847" fill="#231F20"/>
<path id="Vector_31" fill-rule="evenodd" clip-rule="evenodd" d="M30.1002 34.3186L27.4502 38.5186C27.8689 37.2861 28.0502 35.2223 28.1127 33.6498C28.9902 33.2398 29.7402 33.7423 30.1127 34.3186" fill="#81B0C4"/>
<path id="Vector_32" fill-rule="evenodd" clip-rule="evenodd" d="M34.6349 39.5071C33.6912 39.6946 33.0287 40.6134 32.1074 40.5546C32.6137 39.8421 33.4999 39.5546 34.6349 39.5071ZM35.0499 40.9821C34.2812 41.0634 33.3774 41.1884 32.5974 41.1234C32.9662 40.5609 34.3899 40.7534 35.0499 40.9821ZM35.3174 42.2571C34.4524 42.2759 33.3799 42.2584 32.5574 42.1896C33.0574 41.6671 34.7574 41.9959 35.3174 42.2571Z" fill="#231F20"/>
<path id="Vector_33" fill-rule="evenodd" clip-rule="evenodd" d="M28.4749 45.741C28.5999 46.826 29.0299 47.926 28.9749 49.116C28.4974 49.2785 28.2224 49.4185 27.5824 49.416L27.4424 45.8972C27.7574 45.9185 28.2211 45.6735 28.4749 45.741Z" fill="#DCD9D8"/>
<path id="Vector_34" fill-rule="evenodd" clip-rule="evenodd" d="M27.0795 29.7423C26.6457 30.026 26.2757 30.3673 25.8595 30.6823C24.9345 30.7285 24.4307 30.6198 23.752 30.0873C23.7645 30.0448 23.832 30.0623 23.8345 30.0123C24.8245 30.4535 26.082 29.8323 27.0807 29.7435" fill="#F0D6B7"/>
<path id="Vector_35" fill-rule="evenodd" clip-rule="evenodd" d="M21.8848 36.4997C22.156 35.3222 23.2223 34.7122 24.1898 34.0622C25.1898 35.3297 25.796 36.9585 26.4648 38.5322C24.8848 38.0572 23.271 37.2822 21.886 36.4997" fill="#81B0C4"/>
<path id="Vector_36" fill-rule="evenodd" clip-rule="evenodd" d="M27.4412 45.8996C27.4012 46.8621 27.5362 48.4071 27.5812 49.4183C28.2212 49.4196 28.4962 49.2783 28.9737 49.1183C29.0274 47.9308 28.5987 46.8308 28.4737 45.7433C28.2212 45.6758 27.7562 45.9208 27.4412 45.8996ZM17.4699 40.4208C17.8924 44.3021 18.5037 47.5658 19.6249 51.0033C22.1149 51.7596 25.1162 51.8246 27.3162 51.1433C26.9124 49.2033 27.0887 46.8408 26.8537 44.7708L26.5224 40.0608C23.8562 39.5058 20.0874 39.9308 17.4699 40.4208ZM27.1524 40.0858C27.1299 41.7533 27.2274 43.3983 27.3549 45.0671L29.0237 44.7758C28.8299 43.1683 28.8549 41.3608 28.4612 39.9383C28.0062 39.9421 27.6062 39.9333 27.1524 40.0846V40.0858ZM30.3999 39.8171C30.0962 39.7471 29.7424 39.8146 29.4524 39.8196L30.0362 44.1046C30.4924 44.1171 30.7362 43.9046 31.1112 43.8296C31.1312 42.5771 31.0012 40.8521 30.3987 39.8146L30.3999 39.8171ZM35.3174 44.3096C36.2699 44.0783 36.8674 42.9121 36.6012 41.7146C36.4224 40.9096 36.1037 39.3946 35.7637 38.8796C35.5137 38.4983 34.8299 38.0008 34.2849 38.3496C33.3974 38.9171 31.8374 39.0821 31.1912 39.7683C31.5162 40.8471 31.6162 42.3308 31.7499 43.6971C32.8574 43.7658 34.2199 43.3921 35.1412 43.7896C34.4987 43.9983 33.6637 43.9996 33.1087 44.3021C33.5624 44.5208 34.6249 44.4771 35.3187 44.3083L35.3174 44.3096ZM26.4624 38.5196C25.7937 36.9471 25.1874 35.3171 24.1874 34.0496C23.2199 34.6996 22.1549 35.3083 21.8824 36.4871C23.2674 37.2708 24.8824 38.0433 26.4612 38.5196H26.4624ZM28.1124 33.6496C28.0499 35.2221 27.8699 37.2871 27.4499 38.5183C28.4499 37.2433 29.2562 35.7621 30.0999 34.3183C29.7412 33.7433 28.9899 33.2383 28.0999 33.6496H28.1124ZM26.2437 32.9871C25.8649 32.9458 25.5437 33.4221 25.0512 33.2171L24.7212 33.5983C25.8087 34.9108 26.3037 36.7696 27.1437 38.3108C27.5937 36.8308 27.5437 35.2108 27.6437 33.5946C27.0237 33.6321 26.6812 33.0346 26.2462 32.9883L26.2437 32.9871ZM25.0437 31.3996C25.0037 31.8496 25.1062 31.9958 25.1974 32.5096C26.6724 32.9721 26.4162 30.4846 25.0437 31.3996ZM23.4062 30.8621C22.7687 30.5146 21.8149 30.1371 20.9937 29.9796C19.9749 29.7846 20.0712 31.3671 20.1137 32.3133C20.1474 33.0608 20.5362 33.8508 20.7062 34.3508C20.7849 34.5833 20.8037 34.8296 21.0012 34.8758C21.3512 34.9571 22.5087 34.4946 22.8387 34.3158C23.5362 33.9358 24.0887 33.3321 24.6687 32.9283L24.6912 32.3371C24.2897 32.1366 23.8497 32.0253 23.4012 32.0108C23.7562 31.8321 24.2762 31.8358 24.6012 31.6358L24.6099 31.3983C24.0199 31.3533 23.7949 31.0908 23.4062 30.8783V30.8621ZM17.3312 29.7583C16.8037 30.2958 18.8112 31.0246 19.4512 31.0646C19.4474 30.7271 19.6449 30.4058 19.6049 30.1621C18.8449 30.0283 17.8487 30.1171 17.3312 29.7583ZM23.8337 30.0083C23.8312 30.0608 23.7624 30.0421 23.7512 30.0833C24.4299 30.6146 24.9349 30.7233 25.8587 30.6783L27.0787 29.7383C26.0787 29.8258 24.8212 30.4483 23.8324 30.0071L23.8337 30.0083ZM29.8024 31.8183C29.7737 31.2233 29.6174 29.9983 29.2499 29.7846C28.4774 29.3346 27.1049 30.6946 26.5224 30.9021C26.5849 31.0846 26.6899 31.2271 26.6974 31.4608C27.0547 31.383 27.4277 31.4252 27.7587 31.5808C27.4137 31.6183 27.0312 31.6183 26.8037 31.7808C26.7199 32.0221 26.8237 32.3521 26.7687 32.6871C27.5874 32.9183 28.5212 33.0408 29.5562 33.0708C29.7562 32.8083 29.8262 32.3121 29.8024 31.8183ZM16.4424 30.2771C16.2762 30.1583 15.1549 28.6996 15.0012 28.7608C12.9724 29.5608 11.0762 30.9446 9.37992 32.2533C10.9962 35.7221 11.6499 39.9708 11.7624 44.0671C13.6124 44.9333 15.2412 46.1821 17.7537 46.3121L17.0324 40.4821C16.4012 40.2158 15.4949 40.4946 14.9049 40.3996C14.8999 39.6871 15.8074 40.0871 15.8824 39.6096C15.9399 39.2346 15.3824 39.2196 15.5637 38.6496C16.0262 38.8171 16.2687 39.1871 16.7612 39.3271C17.2112 38.3421 16.7549 36.5996 16.8199 35.7771C16.8324 35.6221 16.8974 34.9208 17.2449 35.0446C17.5512 35.1533 17.2274 36.9108 17.2612 37.6896C17.2912 38.4071 17.1737 39.1021 17.4649 39.5646C19.8924 39.2346 22.3599 39.0208 24.9874 38.9483C24.4099 38.7008 23.7224 38.4658 22.9699 38.0408C22.5624 37.8108 21.2749 37.3321 21.1574 36.9446C20.9699 36.3271 21.6499 35.9983 21.7674 35.4696C20.5424 36.1383 20.3024 34.8283 20.0124 33.9008C19.7624 33.0608 19.5999 32.4333 19.5374 31.9483C18.4812 31.4446 17.3524 30.9483 16.4437 30.2896L16.4424 30.2771ZM28.7299 28.9371C30.4199 28.1171 30.7249 31.9996 30.0624 33.2521C30.1649 33.6246 30.5174 33.7683 30.6624 34.1021L27.7087 39.0396C28.4249 38.5933 29.4462 38.9596 30.2899 38.6271C30.5974 38.5058 30.8212 37.7996 31.0524 37.2358C31.6937 35.6833 32.3674 33.7271 32.6674 32.2458C32.7349 31.9083 32.9199 31.1733 32.8799 30.8733C32.8049 30.3358 32.0762 29.9358 31.7049 29.6046L29.8749 27.8746C29.5874 28.3021 28.9662 28.5871 28.7299 28.9371ZM12.5749 13.9446C11.7699 14.8321 11.9499 16.4921 12.0349 17.6733C13.4912 16.7571 15.4224 17.7458 15.4049 19.3033C16.0999 19.2846 15.6649 18.4346 15.5387 17.8871C15.1262 16.0996 16.2312 14.1558 15.5887 12.5208C14.3412 12.6158 13.3174 13.1246 12.5737 13.9433L12.5749 13.9446ZM18.3374 8.80084C16.5124 9.31834 14.1749 10.6433 13.4274 12.2808C14.0074 12.1971 14.4099 11.9033 14.9824 11.8683C15.1987 11.8558 15.4824 11.9596 15.7324 11.8971C16.2274 11.7746 16.6449 10.6633 17.0199 10.2496C17.3849 9.84584 17.8224 9.67459 18.1224 9.30584C18.3149 9.21334 18.5999 9.21834 18.6099 8.93084C18.5262 8.84334 18.4387 8.77334 18.3387 8.80209L18.3374 8.80084ZM27.8312 9.28834C25.9387 8.22084 22.7349 7.41709 20.7212 8.42084C19.0962 9.23083 16.8999 10.5708 16.1512 12.2708C16.8512 13.9083 15.9437 15.4121 15.8862 17.0758C15.8549 17.9608 16.3037 18.7346 16.3362 19.6983C16.0987 20.0933 15.3662 20.1421 14.8612 20.1146C14.6912 19.2621 14.3924 18.3021 13.5149 18.2071C12.2724 18.0696 11.3649 19.0996 11.3074 20.1746C11.2412 21.4371 12.2774 23.5321 13.7487 23.3871C14.3162 23.3308 14.4562 22.7621 15.0737 22.7671C15.4087 23.4358 14.5562 23.6471 14.4687 24.1246C14.4462 24.2496 14.5399 24.7308 14.5937 24.9583C14.8612 26.0621 15.4687 27.4896 16.0437 28.3296C16.7874 29.3946 18.2487 29.5546 19.8212 29.6596C20.1024 29.0546 21.1362 29.1046 21.8087 29.2621C21.0012 28.9421 20.2499 28.1671 19.6274 27.4808C18.9124 26.6933 18.1899 25.8483 18.1524 24.8183C19.5024 26.6933 20.6187 28.3308 23.0774 29.1533C24.9362 29.7783 27.1062 28.8658 28.5349 27.8658C29.1274 27.4496 29.4812 26.7871 29.9024 26.1821C31.4774 23.9146 32.2149 20.6796 32.0524 17.5421C31.9862 16.2483 31.9899 14.9596 31.5549 14.0896C31.1012 13.1796 29.5549 12.3646 28.6674 13.1896C28.5012 12.3046 29.4137 11.7571 30.4874 12.0771C29.7224 11.0771 28.9199 9.90208 27.8324 9.28959L27.8312 9.28834ZM31.3562 38.4733C32.8349 37.7383 35.5987 36.4946 36.5262 38.4758C36.8687 39.2058 37.2699 40.4408 37.4474 41.1958C37.6974 42.2583 37.1762 44.4958 36.0824 44.8533C35.1162 45.1683 33.9899 45.1496 32.8262 44.9158C32.663 44.7685 32.5287 44.5922 32.4299 44.3958C31.5987 44.3633 30.8212 44.4408 30.1649 44.7833C30.2274 45.3958 29.8112 45.4958 29.4224 45.6233C29.1349 46.7683 29.9999 48.2633 29.7924 49.3083C29.6449 50.0521 28.7299 50.1671 28.0549 50.3058C28.0324 50.7183 28.0849 51.0646 28.1299 51.4146C27.9762 51.9808 27.2862 52.3046 26.6324 52.3833C24.4824 52.6421 21.2162 52.7583 19.1474 52.0146C18.5699 50.5983 18.1149 48.8771 17.6474 47.2596C15.6299 47.4746 13.9974 46.3896 12.4599 45.6771C11.9274 45.4296 11.1899 45.2946 10.9912 44.8696C10.7987 44.4596 10.8787 43.6721 10.8287 42.9296C10.7074 41.0321 10.6037 39.2008 10.1012 37.2571C9.87617 36.3846 9.48367 35.6158 9.20992 34.7758C8.95742 33.9971 8.51492 33.0346 8.39992 32.2583C8.22867 31.1083 9.31242 31.0433 10.0062 30.5458C11.0774 29.7746 11.9187 29.3483 13.0787 28.6521C13.4224 28.4458 14.4587 27.9246 14.5762 27.6833C14.8099 27.2083 14.1737 26.5333 14.0037 26.1621C13.7349 25.5721 13.5937 25.0696 13.5537 24.4871C12.5787 24.3333 11.8412 23.7546 11.3974 23.0996C10.6474 22.0183 10.1474 20.0183 10.7849 18.4971C10.8349 18.3771 11.0849 18.1421 11.1224 17.9571C11.1949 17.5821 10.9849 17.1133 10.9724 16.7271C10.9049 14.7496 11.3074 13.0458 12.6374 12.4496C13.1774 10.2971 15.1124 9.58084 16.9337 8.51209C17.6149 8.11209 18.3662 7.85709 19.1412 7.57084C21.9224 6.54584 26.1912 6.73959 28.4987 8.48584C29.4774 9.22584 31.0424 10.7896 31.6024 11.9208C33.0812 14.9208 32.9774 19.9033 31.9399 23.5371C31.8024 24.0371 31.5999 24.7421 31.3174 25.3283C31.1212 25.7371 30.5112 26.5571 30.5849 26.9183C30.6599 27.2933 31.9762 28.2896 32.2574 28.5621C32.7649 29.0521 33.7287 29.7021 33.8074 30.3196C33.8912 30.9771 33.5174 31.8771 33.3287 32.5108L31.3612 38.4733" fill="#231F20"/>
<path id="Vector_37" fill-rule="evenodd" clip-rule="evenodd" d="M21.4912 23.8146C21.5712 23.7083 22.0124 23.5458 22.6287 23.8433C22.6287 23.8433 21.8974 23.9658 21.9574 25.1846L21.6524 25.1221C21.6524 25.1221 21.3374 24.0158 21.4899 23.8133" fill="#F7E4CD"/>
<path id="Vector_38" fill-rule="evenodd" clip-rule="evenodd" d="M26.837 34.2997C26.837 34.4847 26.687 34.6347 26.502 34.6347C26.317 34.6347 26.167 34.4847 26.167 34.2997C26.167 34.1147 26.317 33.9647 26.502 33.9647C26.687 33.9647 26.837 34.1147 26.837 34.2997ZM27.172 35.8535C27.172 36.0385 27.022 36.1885 26.837 36.1885C26.652 36.1885 26.502 36.0385 26.502 35.8535C26.502 35.6685 26.652 35.5185 26.837 35.5185C27.022 35.5185 27.172 35.6685 27.172 35.8535Z" fill="#1D1919"/>
<path id="Vector_39" d="M41.4544 38.2546V36.2296H42.5744C42.6077 36.7696 42.734 37.1662 42.9531 37.4196C43.1781 37.6721 43.5085 37.7983 43.9444 37.7983C44.5027 37.7983 44.8902 37.5829 45.1069 37.1521C45.3319 36.7354 45.4444 35.9337 45.4444 34.7471V23.3433H43.5744V22.3008H50.4269V23.3433H48.7806V34.8158C48.7806 36.2125 48.4273 37.2325 47.7206 37.8758C47.0206 38.5192 45.9031 38.8408 44.3681 38.8408C43.8915 38.8408 43.4115 38.7921 42.9281 38.6946C42.4448 38.5971 41.9531 38.4504 41.4531 38.2546H41.4544ZM58.1669 29.9971C58.1669 28.7904 58.0544 27.9458 57.8294 27.4633C57.6044 26.975 57.2223 26.7308 56.6831 26.7308C56.1598 26.7308 55.7835 26.9692 55.5544 27.4458C55.3294 27.9225 55.2169 28.7212 55.2169 29.8421V29.9971H58.1644H58.1669ZM61.5194 31.0221H55.2194V31.0908C55.2194 32.2742 55.3977 33.1304 55.7544 33.6596C56.111 34.1829 56.686 34.4446 57.4794 34.4446C58.1402 34.4446 58.6748 34.2696 59.0831 33.9196C59.4998 33.5696 59.7615 33.0612 59.8681 32.3946H61.2994C61.0519 33.4346 60.5602 34.1987 59.8244 34.6871C59.0885 35.1754 58.0594 35.4196 56.7369 35.4196C55.151 35.4196 53.9327 35.0029 53.0819 34.1696C52.2369 33.3304 51.8144 32.1346 51.8144 30.5821C51.8144 29.0654 52.2477 27.8821 53.1144 27.0321C53.981 26.1821 55.1877 25.7571 56.7344 25.7571C58.251 25.7571 59.4148 26.2054 60.2256 27.1021C61.0356 27.9937 61.4665 29.3012 61.5181 31.0246L61.5194 31.0221Z" fill="black"/>
<path id="Vector_40" d="M62.9346 35.1685V34.126H64.2346V27.051H62.9346V26.0085H67.2871V27.2997C67.6537 26.7539 68.0733 26.3601 68.5458 26.1185C69.0167 25.8685 69.6112 25.7435 70.3296 25.7435C71.3579 25.7435 72.1337 26.0476 72.6571 26.656C73.1854 27.2593 73.4496 28.1501 73.4496 29.3285V34.1247H74.7596V35.1672H69.2846V34.1247H70.4096V29.2547C70.4096 28.4797 70.3096 27.9422 70.1096 27.6422C69.9146 27.338 69.5729 27.186 69.0846 27.186C68.4696 27.186 68.0183 27.413 67.7308 27.8672C67.4433 28.3155 67.2996 29.031 67.2996 30.0135V34.1247H68.4196V35.1672H62.9446L62.9346 35.1685Z" fill="black"/>
<path id="Vector_41" d="M81.2689 35.1684H75.7627V34.1259H77.0627V22.7909H75.7627V21.7571H80.1152V30.3821L83.8127 27.0634H82.7177V26.0209H86.8977V27.0634H85.2002L82.8252 29.1834L86.7002 34.1396H87.6914V35.1821H82.4339V34.1396H83.5114L80.9689 30.8734L80.1152 31.6321V34.1246H81.2702V35.1671L81.2689 35.1684ZM89.0189 23.4121C89.0189 22.9455 89.1798 22.5546 89.5014 22.2396C89.8231 21.918 90.2169 21.7571 90.6827 21.7571C91.1369 21.7571 91.5219 21.918 91.8377 22.2396C92.1594 22.5563 92.3202 22.9471 92.3202 23.4121C92.3202 23.8663 92.1594 24.2538 91.8377 24.5746C91.521 24.8913 91.136 25.0496 90.6827 25.0496C90.216 25.0496 89.8223 24.8913 89.5014 24.5746C89.1798 24.258 89.0189 23.8705 89.0189 23.4121ZM92.3564 34.1246H93.6664V35.1671H88.0002V34.1246H89.3002V27.0496H88.0002V26.0071H92.3527V34.1246H92.3564Z" fill="black"/>
<path id="Vector_42" d="M94.7246 35.1685V34.126H96.0246V27.051H94.7246V26.0085H99.0771V27.2997C99.4438 26.7539 99.8634 26.3601 100.336 26.1185C100.807 25.8685 101.401 25.7435 102.12 25.7435C103.148 25.7435 103.924 26.0476 104.447 26.656C104.975 27.2593 105.24 28.1501 105.24 29.3285V34.1247H106.55V35.1672H101.075V34.1247H102.2V29.2547C102.2 28.4797 102.1 27.9422 101.9 27.6422C101.705 27.338 101.363 27.186 100.875 27.186C100.26 27.186 99.8084 27.413 99.5209 27.8672C99.2334 28.3155 99.0896 29.031 99.0896 30.0135V34.1247H100.21V35.1672H94.7346L94.7246 35.1685Z" fill="black"/>
<path id="Vector_43" d="M107.774 34.9022V32.3422H108.749C108.83 33.0255 109.086 33.5485 109.517 33.911C109.948 34.2676 110.534 34.446 111.276 34.446C111.897 34.446 112.371 34.3397 112.698 34.1272C113.032 33.9089 113.198 33.5985 113.198 33.196C113.198 32.8293 113.092 32.5447 112.879 32.3422C112.673 32.1422 112.268 31.9672 111.664 31.8172L110.406 31.4985C109.457 31.2626 108.771 30.9264 108.346 30.4897C107.929 30.048 107.721 29.4535 107.721 28.706C107.721 27.7118 108.065 26.9735 108.754 26.491C109.444 26.0026 110.506 25.7585 111.942 25.7585C112.482 25.7585 113.057 25.8001 113.667 25.8835C114.282 25.9693 114.96 26.1068 115.701 26.296V28.606H114.726C114.674 27.9793 114.45 27.5085 114.053 27.1935C113.662 26.8768 113.098 26.7185 112.363 26.7185C111.742 26.7185 111.272 26.8185 110.951 27.0185C110.634 27.2135 110.476 27.5051 110.476 27.8935C110.476 28.2035 110.567 28.4476 110.751 28.626C110.934 28.8043 111.264 28.9543 111.742 29.076L112.992 29.3947C114.192 29.6989 115.022 30.0751 115.483 30.5235C115.943 30.9718 116.173 31.5951 116.173 32.3935C116.173 33.4268 115.798 34.191 115.048 34.686C114.312 35.1743 113.167 35.4185 111.611 35.4185C111.042 35.4185 110.438 35.3755 109.801 35.2897C109.163 35.2039 108.488 35.0789 107.776 34.9147L107.774 34.9022Z" fill="black"/>
</g>
</g>
</svg>
