<svg width="121" height="60" viewBox="0 0 121 60" fill="none" xmlns="http://www.w3.org/2000/svg">
<path d="M21.0887 14.6482C20.8056 14.665 20.5287 14.7384 20.2745 14.8642L9.26119 20.1204C8.97711 20.2556 8.72723 20.4533 8.53018 20.6985C8.33313 20.9438 8.19399 21.2304 8.12314 21.537L5.42595 33.3364C5.36232 33.61 5.35496 33.8937 5.40434 34.1703C5.45371 34.4468 5.55878 34.7105 5.71316 34.9452C5.75059 35.0028 5.79018 35.0582 5.83193 35.1115L13.4506 44.5786C13.649 44.8222 13.8993 45.0184 14.1833 45.1529C14.4672 45.2874 14.7776 45.3568 15.0918 45.356H27.3058C27.6212 45.3567 27.9328 45.2866 28.2176 45.151C28.5024 45.0153 28.7531 44.8175 28.9513 44.5721L36.5635 35.1007C36.7605 34.8562 36.8994 34.5702 36.9698 34.2642C37.0401 33.9582 37.04 33.6402 36.9695 33.3342L34.2528 21.5219C34.182 21.2153 34.0429 20.9287 33.8458 20.6834C33.6488 20.4381 33.3989 20.2405 33.1148 20.1052L22.1101 14.8642C21.793 14.7081 21.4418 14.6339 21.0887 14.6482Z" fill="#326CE5"/>
<path d="M21.1988 18.665C21.0164 18.6778 20.8463 18.7617 20.7252 18.8986C20.604 19.0355 20.5414 19.2145 20.5509 19.3971V19.5828C20.5691 19.7931 20.5994 20.0022 20.6416 20.2091C20.7021 20.6048 20.7238 21.0055 20.7064 21.4054C20.6685 21.5374 20.5936 21.6558 20.4905 21.7466L20.4753 22.0273C20.0749 22.0606 19.6773 22.1219 19.2855 22.2109C17.6372 22.5823 16.1376 23.4382 14.9795 24.6684L14.7419 24.5C14.6116 24.5385 14.4713 24.5246 14.3511 24.4611C14.0299 24.2235 13.7326 23.9552 13.4635 23.6599C13.3285 23.4984 13.1843 23.3449 13.0316 23.1999L12.8848 23.0833C12.7545 22.9784 12.5941 22.9178 12.427 22.9106C12.3273 22.9055 12.2279 22.9239 12.1367 22.9645C12.0455 23.005 11.9652 23.0664 11.9022 23.1438C11.7951 23.2942 11.7519 23.481 11.7823 23.6632C11.8127 23.8453 11.914 24.008 12.0642 24.1156L12.2002 24.2235C12.376 24.3405 12.5585 24.4472 12.7466 24.5431C13.097 24.7379 13.4275 24.9664 13.7334 25.2255C13.812 25.3374 13.8576 25.4691 13.8652 25.6056L14.0811 25.7935C12.9163 27.5412 12.438 29.6576 12.7379 31.7364L12.4615 31.8163C12.3895 31.9311 12.2929 32.0285 12.1786 32.1013C11.7921 32.2044 11.3965 32.2695 10.9974 32.2957C10.7857 32.3001 10.5744 32.3166 10.3647 32.3453L10.1919 32.3885H10.1703C10.0485 32.4047 9.93355 32.4546 9.8385 32.5326C9.74345 32.6105 9.67202 32.7134 9.63224 32.8297C9.59246 32.946 9.58591 33.0711 9.61333 33.1909C9.64074 33.3108 9.70104 33.4206 9.78743 33.508C9.87385 33.5955 9.98296 33.6571 10.1025 33.6859C10.222 33.7148 10.3472 33.7097 10.464 33.6713H10.477L10.6562 33.6497C10.8574 33.589 11.0549 33.5169 11.2479 33.4337C11.619 33.2844 12.0037 33.1715 12.3967 33.0968C12.5328 33.1052 12.6637 33.1516 12.7746 33.2307L13.0619 33.1811C13.7046 35.1758 15.0559 36.866 16.8604 37.9319L16.7394 38.1846C16.7952 38.2999 16.8155 38.4292 16.7978 38.556C16.6341 38.9342 16.4345 39.2957 16.2017 39.6357C16.0737 39.8044 15.9554 39.9804 15.8476 40.1627L15.7612 40.3397C15.6994 40.4455 15.6682 40.5663 15.671 40.6888C15.6739 40.8112 15.7107 40.9304 15.7774 41.0332C15.8441 41.1359 15.9381 41.2181 16.0488 41.2705C16.1595 41.3229 16.2826 41.3435 16.4043 41.3301C16.526 41.3166 16.6416 41.2696 16.7382 41.1942C16.8347 41.1189 16.9084 41.0182 16.9511 40.9034L17.0331 40.7349C17.1081 40.5372 17.1715 40.3353 17.2232 40.1303C17.3959 39.6984 17.4931 39.2341 17.7328 38.9469C17.8111 38.8734 17.9096 38.8252 18.0157 38.8087L18.1669 38.5387C20.1224 39.2907 22.2865 39.2961 24.2458 38.5539L24.3754 38.8065C24.5099 38.8275 24.6308 38.9004 24.7122 39.0095C24.8984 39.3632 25.0495 39.7342 25.1636 40.1173C25.216 40.3224 25.2801 40.5243 25.3558 40.722L25.4378 40.8904C25.4805 41.0052 25.5542 41.1059 25.6508 41.1813C25.7473 41.2566 25.8629 41.3037 25.9847 41.3171C26.1064 41.3306 26.2295 41.31 26.3402 41.2575C26.4509 41.2051 26.5448 41.1229 26.6115 41.0202C26.6782 40.9175 26.715 40.7982 26.7179 40.6758C26.7208 40.5533 26.6895 40.4325 26.6277 40.3268L26.5413 40.1497C26.4335 39.9681 26.3152 39.7929 26.1872 39.625C25.9593 39.2963 25.764 38.9463 25.6041 38.5798C25.5884 38.5128 25.5862 38.4433 25.5977 38.3754C25.6092 38.3075 25.6341 38.2427 25.6711 38.1846C25.6288 38.0985 25.592 38.0097 25.5609 37.919C27.363 36.846 28.709 35.1496 29.3443 33.1508L29.6251 33.2005C29.7256 33.1086 29.8582 33.0597 29.9943 33.0645C30.3873 33.1392 30.7721 33.252 31.1432 33.4013C31.3358 33.4889 31.5334 33.5654 31.7349 33.6302C31.7824 33.6432 31.8515 33.6518 31.9076 33.6669H31.9206C32.0374 33.7054 32.1626 33.7105 32.2821 33.6817C32.4016 33.6528 32.5107 33.5912 32.5972 33.5038C32.6836 33.4164 32.7439 33.3065 32.7713 33.1867C32.7988 33.0669 32.7922 32.9417 32.7524 32.8254C32.7125 32.7088 32.6407 32.6057 32.5452 32.5277C32.4497 32.4497 32.3344 32.4 32.2121 32.3842L32.0178 32.341C31.808 32.3123 31.5967 32.2957 31.385 32.2914C30.9859 32.2652 30.5903 32.2001 30.2038 32.097C30.0842 32.0303 29.9855 31.9316 29.9188 31.812L29.6531 31.7342C29.9378 29.657 29.4498 27.5476 28.2819 25.8064L28.5151 25.5905C28.5057 25.4547 28.5499 25.3205 28.6382 25.2169C28.9418 24.9559 29.2701 24.7252 29.6186 24.528C29.8067 24.4321 29.9891 24.3253 30.1649 24.2084L30.3096 24.0918C30.4158 24.0257 30.5012 23.931 30.5558 23.8184C30.6104 23.7059 30.6321 23.5802 30.6183 23.4559C30.6045 23.3316 30.5559 23.2137 30.4779 23.1159C30.4 23.018 30.296 22.9442 30.1779 22.903C30.0598 22.8618 29.9324 22.8548 29.8105 22.8829C29.6886 22.911 29.5772 22.973 29.489 23.0617L29.3422 23.1784C29.1895 23.3233 29.0453 23.4769 28.9103 23.6383C28.6492 23.9368 28.3599 24.2095 28.0465 24.4524C27.9199 24.5037 27.7816 24.5187 27.647 24.4956L27.3965 24.6749C25.9519 23.1604 24.0067 22.2219 21.9222 22.0338C21.9222 21.9474 21.9092 21.7876 21.9071 21.7401C21.795 21.6631 21.7175 21.5453 21.6911 21.4119C21.6775 21.0123 21.7028 20.6124 21.7667 20.2177C21.809 20.0109 21.8392 19.8018 21.8574 19.5915V19.4036C21.8669 19.221 21.8044 19.042 21.6832 18.9051C21.562 18.7682 21.392 18.6843 21.2096 18.6715L21.1988 18.665ZM20.3739 23.7744L20.1795 27.2295H20.1644C20.1599 27.3345 20.127 27.4363 20.0693 27.524C20.0115 27.6117 19.931 27.6822 19.8364 27.7278C19.7418 27.7735 19.6366 27.7926 19.532 27.7832C19.4273 27.7738 19.3272 27.7362 19.2423 27.6744L16.409 25.6661C17.3111 24.7801 18.4427 24.1638 19.6763 23.8867C19.9075 23.8373 20.141 23.7999 20.376 23.7744H20.3739ZM22.0237 23.7744C23.5118 23.959 24.898 24.6275 25.9691 25.6769L23.1617 27.6722C23.0769 27.7401 22.9747 27.7828 22.8667 27.7955C22.7588 27.8082 22.6495 27.7904 22.5512 27.744C22.4529 27.6977 22.3696 27.6247 22.3107 27.5334C22.2518 27.4421 22.2197 27.336 22.218 27.2274L22.0237 23.7744ZM15.3768 26.9682L17.9682 29.2789V29.294C18.0473 29.3631 18.1061 29.4524 18.1385 29.5522C18.1709 29.6521 18.1756 29.7589 18.1521 29.8613C18.1286 29.9636 18.0778 30.0577 18.0051 30.1335C17.9324 30.2093 17.8406 30.264 17.7393 30.2917V30.3025L14.4137 31.2591C14.2488 29.7608 14.5877 28.2503 15.3768 26.9661V26.9682ZM27.0013 26.9682C27.7885 28.2491 28.1365 29.7518 27.9925 31.2483L24.6626 30.2895V30.2766C24.5613 30.2488 24.4694 30.1942 24.3967 30.1184C24.324 30.0426 24.2732 29.9485 24.2498 29.8462C24.2263 29.7438 24.231 29.637 24.2634 29.5371C24.2957 29.4372 24.3546 29.348 24.4337 29.2789L27.0035 26.9769L27.0013 26.9682ZM20.6675 29.4624H21.7257L22.3735 30.283L22.136 31.311L21.1858 31.7688L20.2313 31.311L20.0067 30.2809L20.6675 29.4624ZM24.0644 32.2698C24.1089 32.2646 24.1538 32.2646 24.1983 32.2698L27.6275 32.8485C27.1227 34.2736 26.1568 35.4896 24.8828 36.3037L23.5569 33.0904C23.5204 33.0043 23.5051 32.9108 23.5124 32.8176C23.5196 32.7244 23.5491 32.6343 23.5984 32.5549C23.6478 32.4755 23.7154 32.4092 23.7958 32.3614C23.8761 32.3137 23.9668 32.2859 24.0601 32.2806L24.0644 32.2698ZM18.3051 32.2849C18.4004 32.2864 18.494 32.3113 18.5774 32.3575C18.6608 32.4037 18.7316 32.4698 18.7835 32.5498C18.8353 32.6298 18.8667 32.7214 18.8748 32.8164C18.8828 32.9115 18.8674 33.007 18.8298 33.0947V33.1076L17.5104 36.2864C16.2518 35.4774 15.2942 34.277 14.7851 32.8701L18.1841 32.2914C18.2222 32.2876 18.2605 32.2876 18.2986 32.2914L18.3051 32.2849ZM21.1772 33.6799C21.2852 33.6767 21.392 33.7034 21.4858 33.7571C21.5796 33.8109 21.6566 33.8895 21.7084 33.9844H21.7214L23.3971 37.0077C23.1773 37.0814 22.9538 37.1441 22.7277 37.1955C21.495 37.4777 20.2082 37.4112 19.0112 37.0033L20.6827 33.9801C20.7328 33.8928 20.8047 33.8201 20.8914 33.769C20.9781 33.7178 21.0766 33.6901 21.1772 33.6885V33.6799Z" fill="white" stroke="white" stroke-width="0.053987"/>
<path d="M43.9249 30.6154L44.562 29.92C44.7808 29.6782 44.9931 29.4392 45.199 29.2031L45.7821 28.5293C45.9635 28.3163 46.1197 28.1306 46.2507 27.9722H48.7298C48.2345 28.5409 47.7522 29.0829 47.2829 29.5983C46.8122 30.1137 46.2968 30.6464 45.7367 31.1963C46.044 31.4788 46.3325 31.7811 46.6005 32.1011C46.8985 32.451 47.1865 32.8109 47.4643 33.1809C47.7422 33.5509 47.9984 33.9252 48.2331 34.3038C48.4663 34.6781 48.6621 35.0193 48.8205 35.3274H46.4234C46.2795 35.0826 46.1096 34.8134 45.9138 34.5197C45.718 34.2246 45.5165 33.9352 45.3091 33.6516C45.0932 33.3637 44.8672 33.0808 44.6311 32.803C44.416 32.5541 44.1797 32.3243 43.9249 32.1162V35.3425H41.8389V24.8107L43.9249 24.4738V30.6176V30.6154ZM56.0828 35.0812C55.6319 35.2045 55.174 35.3004 54.7115 35.3684C54.1286 35.4591 53.5394 35.5038 52.9494 35.5023C52.4176 35.518 51.8877 35.4323 51.3881 35.2496C51.0035 35.1037 50.6635 34.8604 50.4012 34.5435C50.1513 34.226 49.9744 33.8573 49.8829 33.4638C49.7765 33.0094 49.7251 32.544 49.7296 32.0774V27.9744H51.8157V31.8182C51.8157 32.4905 51.9042 32.9757 52.0813 33.2737C52.2584 33.5717 52.5895 33.7207 53.0746 33.7207C53.2186 33.7207 53.377 33.7135 53.5497 33.6991C53.7225 33.6847 53.8715 33.6682 53.9967 33.6495V27.97H56.0828V35.0812ZM64.8892 31.652C64.8966 32.1949 64.8088 32.735 64.63 33.2478C64.4702 33.7027 64.2147 34.118 63.8807 34.4658C63.5417 34.81 63.131 35.0755 62.6778 35.2432C62.1578 35.4325 61.6073 35.5248 61.0539 35.5153C60.802 35.5153 60.5385 35.5037 60.2635 35.4807C59.99 35.4577 59.7194 35.4274 59.4516 35.39C59.1853 35.3526 58.9312 35.308 58.6893 35.2561C58.4474 35.2043 58.2315 35.1503 58.0414 35.0942V24.8086L60.1275 24.4717V28.1428C60.3617 28.04 60.6055 27.9605 60.8553 27.9053C61.122 27.8476 61.3943 27.8194 61.6672 27.821C62.1435 27.8113 62.6163 27.9041 63.0536 28.0931C63.4466 28.2687 63.7923 28.5352 64.0621 28.8705C64.3446 29.2301 64.5537 29.6418 64.6775 30.082C64.8232 30.5924 64.8945 31.1212 64.8892 31.652ZM62.7621 31.5958C62.7621 30.2526 62.2675 29.581 61.2785 29.581C61.0634 29.5811 60.8492 29.6094 60.6415 29.6652C60.4608 29.7105 60.2881 29.7833 60.1297 29.8812V33.6667C60.2304 33.6855 60.36 33.702 60.5184 33.7164C60.6767 33.7308 60.8495 33.738 61.0366 33.738C61.2844 33.7551 61.5325 33.7104 61.7586 33.6079C61.9848 33.5053 62.1819 33.3482 62.3323 33.1506C62.639 32.6921 62.789 32.1466 62.7599 31.5958H62.7621ZM66.146 31.7081C66.1334 31.1225 66.2354 30.54 66.4461 29.9935C66.6251 29.5366 66.8939 29.1203 67.2365 28.769C67.5578 28.45 67.9416 28.2007 68.3638 28.037C68.78 27.8703 69.2241 27.7846 69.6724 27.7843C70.7176 27.7843 71.5432 28.1039 72.1493 28.7431C72.754 29.3823 73.0563 30.3224 73.0563 31.5634C73.0563 31.6843 73.052 31.8175 73.0434 31.9629C73.0347 32.1069 73.0254 32.235 73.0153 32.3473H68.286C68.3045 32.5516 68.3681 32.7492 68.4723 32.9258C68.5765 33.1025 68.7187 33.2537 68.8885 33.3687C69.3133 33.6404 69.8124 33.7725 70.3159 33.7466C70.6942 33.7468 71.0716 33.7114 71.4432 33.6408C71.7527 33.5881 72.0555 33.5012 72.3458 33.3817L72.6266 35.0747C72.4825 35.1431 72.333 35.1995 72.1796 35.2432C71.9751 35.3034 71.7675 35.3524 71.5576 35.39C71.3273 35.4332 71.0825 35.4692 70.8234 35.498C70.563 35.5256 70.3014 35.5393 70.0395 35.539C69.4502 35.5518 68.8639 35.4521 68.3119 35.2453C67.8519 35.0692 67.4361 34.7943 67.094 34.4398C66.7694 34.094 66.5259 33.6801 66.3814 33.2284C66.2211 32.7384 66.1409 32.2258 66.1438 31.7103L66.146 31.7081ZM71.0437 30.9091C71.0347 30.7333 71.0042 30.5592 70.953 30.3908C70.904 30.2276 70.8232 30.0757 70.7154 29.9438C70.6037 29.8098 70.4655 29.7003 70.3095 29.622C70.1193 29.5325 69.9105 29.4896 69.7005 29.4968C69.4933 29.4914 69.2876 29.5319 69.098 29.6156C68.9376 29.6898 68.7947 29.7972 68.679 29.9308C68.5649 30.0652 68.4771 30.2198 68.4199 30.3865C68.3594 30.557 68.3146 30.7326 68.286 30.9112H71.0437V30.9091ZM79.1029 29.8186C78.9157 29.7725 78.6998 29.7235 78.455 29.6717C78.1876 29.6187 77.9156 29.5927 77.643 29.594C77.4863 29.5958 77.3298 29.6073 77.1744 29.6285C77.0352 29.6439 76.8973 29.6699 76.762 29.7063V35.3209H74.6759V28.3609C75.1066 28.2148 75.5449 28.0923 75.9889 27.9938C76.547 27.872 77.1171 27.8133 77.6884 27.8189C77.8007 27.8189 77.936 27.8261 78.0944 27.8405C78.2527 27.8549 78.4111 27.8736 78.5695 27.8966C78.7278 27.9196 78.8862 27.9484 79.0445 27.983C79.1833 28.0098 79.3192 28.0496 79.4505 28.1018L79.1029 29.8186ZM80.5713 28.2249C81.0222 28.1017 81.4801 28.0058 81.9426 27.9376C82.5263 27.8469 83.1162 27.8021 83.7069 27.8038C84.2395 27.788 84.7704 27.8715 85.2725 28.0499C85.6562 28.1911 85.9964 28.4301 86.2594 28.7431C86.5084 29.0547 86.6854 29.4175 86.7776 29.8056C86.8844 30.2547 86.9359 30.7152 86.931 31.1769V35.336H84.8428V31.4274C84.8428 30.755 84.7542 30.28 84.5771 30.0021C84.4001 29.7228 84.0689 29.5832 83.5838 29.5832C83.4398 29.5832 83.2815 29.5904 83.1087 29.6048C82.9359 29.6192 82.7869 29.6357 82.6617 29.6544V35.3339H80.5756V28.2249H80.5713ZM88.4642 31.7081C88.4517 31.1225 88.5537 30.54 88.7644 29.9935C88.9434 29.5366 89.2121 29.1203 89.5547 28.769C89.8736 28.451 90.2543 28.2018 90.6734 28.037C91.0896 27.8704 91.5337 27.7846 91.982 27.7843C93.0272 27.7843 93.8528 28.1039 94.4589 28.7431C95.0636 29.3823 95.3659 30.3224 95.3659 31.5634C95.3659 31.6843 95.3609 31.8175 95.3508 31.9629C95.3407 32.1069 95.3313 32.235 95.3227 32.3473H90.5935C90.6119 32.5516 90.6756 32.7492 90.7798 32.9258C90.884 33.1025 91.0261 33.2537 91.1959 33.3687C91.6207 33.6404 92.1198 33.7725 92.6234 33.7466C93.0016 33.7468 93.379 33.7114 93.7506 33.6408C94.0602 33.5881 94.3629 33.5012 94.6533 33.3817L94.934 35.0747C94.7899 35.1431 94.6404 35.1995 94.487 35.2432C94.2825 35.3034 94.0749 35.3524 93.8651 35.39C93.6347 35.4332 93.39 35.4692 93.1308 35.498C92.8705 35.5256 92.6088 35.5393 92.3469 35.539C91.7577 35.5518 91.1713 35.4521 90.6194 35.2453C90.1593 35.0692 89.7435 34.7943 89.4014 34.4398C89.0775 34.0917 88.8355 33.6756 88.6931 33.2219C88.5357 32.7336 88.4577 32.2233 88.462 31.7103L88.4642 31.7081ZM93.3619 30.9091C93.3529 30.7333 93.3224 30.5592 93.2712 30.3908C93.2222 30.2276 93.1415 30.0757 93.0337 29.9438C92.9219 29.8098 92.7837 29.7003 92.6277 29.622C92.4375 29.5325 92.2288 29.4896 92.0187 29.4968C91.8116 29.4913 91.6058 29.5318 91.4162 29.6156C91.2558 29.6898 91.113 29.7972 90.9973 29.9308C90.8831 30.0652 90.7952 30.2197 90.7381 30.3865C90.6776 30.557 90.6328 30.7326 90.6042 30.9112H93.3619V30.9091ZM96.9142 26.1366L99.0003 25.7998V27.9592H101.505V29.6868H99.0003V32.2782C98.9831 32.6423 99.0629 33.0045 99.2314 33.3277C99.3854 33.5868 99.6949 33.7164 100.16 33.7164C100.392 33.7158 100.624 33.6948 100.853 33.6538C101.074 33.616 101.291 33.5574 101.501 33.4789L101.795 35.1028C101.522 35.2121 101.241 35.3009 100.955 35.3684C100.582 35.4498 100.202 35.4875 99.8209 35.4807C99.3396 35.4955 98.8601 35.4171 98.4086 35.2496C98.0599 35.1129 97.7516 34.89 97.5124 34.6018C97.2804 34.3096 97.1199 33.9672 97.0438 33.602C96.9515 33.1763 96.9066 32.7418 96.9099 32.3063V26.1366H96.9142ZM102.615 31.7081C102.603 31.1225 102.705 30.54 102.915 29.9935C103.094 29.5366 103.363 29.1203 103.706 28.769C104.027 28.45 104.411 28.2008 104.833 28.037C105.249 27.8704 105.693 27.7846 106.142 27.7843C107.187 27.7843 108.013 28.1039 108.619 28.7431C109.223 29.3823 109.526 30.3203 109.526 31.5569C109.526 31.6779 109.521 31.811 109.51 31.9564C109.5 32.1004 109.491 32.2285 109.482 32.3408H104.753C104.772 32.5453 104.836 32.743 104.94 32.9196C105.045 33.0963 105.188 33.2475 105.358 33.3623C105.783 33.6339 106.282 33.7661 106.785 33.7402C107.163 33.7403 107.541 33.7049 107.912 33.6344C108.222 33.5816 108.525 33.4947 108.815 33.3752L109.096 35.0682C108.952 35.1366 108.802 35.193 108.649 35.2367C108.444 35.2969 108.237 35.3459 108.027 35.3835C107.797 35.4267 107.552 35.4627 107.293 35.4915C107.032 35.5191 106.771 35.5328 106.509 35.5325C105.92 35.5453 105.333 35.4456 104.781 35.2388C104.321 35.0628 103.905 34.7878 103.563 34.4334C103.236 34.0884 102.989 33.6744 102.842 33.2219C102.685 32.7335 102.608 32.2231 102.613 31.7103L102.615 31.7081ZM107.517 30.9091C107.508 30.7333 107.478 30.5592 107.427 30.3908C107.378 30.2276 107.297 30.0757 107.189 29.9438C107.077 29.8098 106.939 29.7003 106.783 29.622C106.593 29.5325 106.384 29.4896 106.174 29.4968C105.967 29.4913 105.761 29.5318 105.572 29.6156C105.408 29.6878 105.261 29.7946 105.142 29.9287C105.028 30.063 104.94 30.2176 104.883 30.3843C104.822 30.5548 104.777 30.7305 104.749 30.9091H107.517ZM113.246 33.8352C113.522 33.852 113.798 33.8138 114.058 33.7229C114.137 33.6837 114.202 33.6214 114.245 33.5442C114.287 33.467 114.305 33.3786 114.296 33.291C114.287 33.1982 114.254 33.1095 114.199 33.0337C114.145 32.9579 114.072 32.8977 113.987 32.8591C113.688 32.6879 113.374 32.5433 113.05 32.4272C112.747 32.3164 112.45 32.1902 112.16 32.0493C111.911 31.93 111.682 31.7718 111.482 31.5807C111.295 31.397 111.148 31.1764 111.05 30.9328C110.941 30.6425 110.889 30.3338 110.897 30.0237C110.885 29.7093 110.948 29.3965 111.082 29.1117C111.216 28.8269 111.416 28.5783 111.666 28.3868C112.178 27.9837 112.882 27.7822 113.778 27.7822C114.212 27.7802 114.646 27.82 115.073 27.9009C115.407 27.9595 115.735 28.0462 116.054 28.1601L115.691 29.784C115.432 29.698 115.168 29.6259 114.901 29.5681C114.586 29.4999 114.264 29.4673 113.942 29.4709C113.288 29.4709 112.961 29.653 112.961 30.0172C112.961 30.0912 112.975 30.1646 113.002 30.2332C113.041 30.3098 113.099 30.3747 113.171 30.421C113.28 30.4961 113.394 30.5618 113.514 30.6176C113.658 30.6895 113.842 30.7673 114.067 30.8508C114.457 30.9902 114.835 31.1576 115.201 31.3518C115.464 31.4897 115.702 31.6699 115.907 31.8852C116.074 32.067 116.198 32.284 116.27 32.5201C116.344 32.7834 116.38 33.0562 116.375 33.3299C116.393 33.6518 116.327 33.9728 116.183 34.2616C116.04 34.5504 115.824 34.797 115.557 34.9775C115.01 35.349 114.238 35.5361 113.242 35.539C112.694 35.5503 112.146 35.4937 111.612 35.3706C111.304 35.2987 111.003 35.2049 110.709 35.0898L111.059 33.3968C111.413 33.5364 111.777 33.6462 112.149 33.7251C112.51 33.7998 112.878 33.8367 113.246 33.8352Z" fill="black"/>
</svg>
