<svg width="225" height="34" viewBox="0 0 225 34" fill="none" xmlns="http://www.w3.org/2000/svg">
<g clip-path="url(#clip0_220_6826)">
<path d="M0.0371094 5.27825L12.8812 3.45502V16.2543H0.0382919L0.0371094 5.27825ZM12.8812 17.8922V30.5468L0.0388832 28.7263L0.0385875 17.8928L12.8812 17.8922ZM14.3014 3.25383L31.392 0.827637V16.2543H14.3014V3.25383ZM31.392 17.8922V33.172L14.3014 30.7476V17.8922H31.392Z" fill="#0DADEA"/>
<path d="M60.4055 26.5609H57.4364V14.7059C57.4364 13.7342 57.4953 12.5475 57.6126 11.141H57.563C57.3776 11.9415 57.2141 12.516 57.0722 12.8665L51.6881 26.5609H49.6249L44.2278 12.9691C44.077 12.5691 43.9174 11.9598 43.7501 11.1425H43.7004C43.7681 11.8752 43.8012 13.0714 43.8012 14.7319V26.5609H41.0332V8.24186H45.2475L49.9903 20.4421C50.3507 21.3788 50.5857 22.0779 50.6942 22.5371H50.7569C51.0673 21.5745 51.3186 20.8586 51.5116 20.3902L56.3429 8.24186H60.4064L60.4052 26.5609H60.4055ZM65.9787 10.7325C65.501 10.7325 65.091 10.5756 64.7525 10.2602C64.4125 9.94512 64.2428 9.54426 64.2428 9.05914C64.2428 8.57403 64.4125 8.1692 64.7525 7.84498C65.0924 7.52197 65.501 7.35956 65.9787 7.35956C66.473 7.35956 66.8934 7.52197 67.237 7.84498C67.5805 8.1692 67.7531 8.5725 67.7531 9.05914C67.7531 9.51831 67.5805 9.91275 67.237 10.2406C66.892 10.5691 66.473 10.7325 65.9787 10.7325ZM67.4247 26.5609H64.5071V13.4789H67.425V26.5609H67.4247ZM80.471 25.9604C79.4401 26.5649 78.2189 26.8671 76.8099 26.8671C74.8977 26.8671 73.3545 26.2602 72.1803 25.0472C71.0066 23.8343 70.4189 22.2608 70.4189 20.3267C70.4189 18.1719 71.05 16.4415 72.3121 15.1336C73.5745 13.8264 75.2616 13.1724 77.3757 13.1724C78.5497 13.1724 79.5856 13.3812 80.4825 13.7992V16.5581C79.5844 15.8773 78.6289 15.536 77.6149 15.536C76.3821 15.536 75.3716 15.9604 74.5835 16.8073C73.7953 17.6545 73.4003 18.7636 73.4003 20.1347C73.4003 21.489 73.7708 22.5578 74.5131 23.3412C75.2551 24.1249 76.2514 24.5166 77.5011 24.5166C78.5497 24.5166 79.5383 24.1381 80.4695 23.3803L80.471 25.9604ZM90.8486 16.3026C90.4959 16.0211 89.9889 15.8813 89.3261 15.8813C88.4623 15.8813 87.7406 16.2767 87.1621 17.0692C86.5832 17.8605 86.2935 18.9385 86.2935 20.3008V26.5609H83.3744V13.4789H86.2935V16.1744H86.3432C86.6282 15.2545 87.0663 14.5371 87.6576 14.022C88.2488 13.5073 88.9096 13.249 89.6389 13.249C90.1678 13.249 90.5701 13.3309 90.8474 13.4917L90.8486 16.3026ZM98.6483 26.8671C96.6608 26.8671 95.0741 26.2562 93.8862 25.0341C92.6996 23.8123 92.1056 22.1918 92.1056 20.1738C92.1056 17.9759 92.7238 16.2599 93.9616 15.0249C95.1995 13.79 96.865 13.1724 98.9626 13.1724C100.976 13.1724 102.543 13.7732 103.667 14.9743C104.792 16.1756 105.352 17.8398 105.352 19.9686C105.352 22.0559 104.747 23.7268 103.535 24.9822C102.324 26.2394 100.695 26.8671 98.6483 26.8671ZM98.7864 15.536C97.6458 15.536 96.7438 15.9408 96.0822 16.749C95.4191 17.5583 95.0883 18.6739 95.0883 20.0956C95.0883 21.4667 95.4241 22.5462 96.0949 23.3336C96.7654 24.121 97.6636 24.5151 98.7875 24.5151C99.9376 24.5151 100.82 24.1274 101.436 23.3531C102.051 22.5774 102.361 21.4746 102.361 20.0437C102.361 18.6052 102.053 17.4936 101.436 16.7099C100.819 15.9277 99.9361 15.536 98.7864 15.536ZM107.53 26.1524V23.4063C108.621 24.2495 109.824 24.6708 111.14 24.6708C112.902 24.6708 113.782 24.1429 113.782 23.0869C113.782 22.7886 113.707 22.5359 113.556 22.3267C113.405 22.1179 113.202 21.9326 112.945 21.7717C112.688 21.6108 112.387 21.4655 112.04 21.3373C111.691 21.2087 111.303 21.0646 110.876 20.9025C110.386 20.7083 109.909 20.4821 109.448 20.2254C109.024 19.9866 108.672 19.7171 108.391 19.4148C108.114 19.1198 107.898 18.7698 107.756 18.386C107.613 18.0034 107.543 17.5556 107.543 17.0448C107.543 16.4144 107.69 15.859 107.984 15.3779C108.278 14.8964 108.671 14.4919 109.165 14.1649C109.661 13.8367 110.222 13.5904 110.851 13.4243C111.489 13.2571 112.144 13.1734 112.801 13.1752C113.991 13.1752 115.057 13.358 115.996 13.7238V16.317C115.09 15.6865 114.05 15.3712 112.876 15.3712C112.507 15.3712 112.174 15.4102 111.876 15.4853C111.578 15.562 111.324 15.6685 111.115 15.8047C110.905 15.9408 110.742 16.1042 110.624 16.2962C110.507 16.4848 110.446 16.7044 110.448 16.9282C110.448 17.2093 110.507 17.4481 110.624 17.6441C110.742 17.8398 110.915 18.0123 111.147 18.1616C111.377 18.3109 111.654 18.447 111.977 18.5701C112.3 18.6934 112.671 18.8283 113.091 18.9724C113.599 19.1809 114.096 19.4156 114.581 19.6755C115.022 19.914 115.398 20.1839 115.708 20.4861C116.014 20.7812 116.258 21.1379 116.425 21.5342C116.592 21.9298 116.677 22.4009 116.677 22.9456C116.677 23.6099 116.526 24.1881 116.223 24.6827C115.922 25.177 115.518 25.5855 115.016 25.9085C114.513 26.2327 113.931 26.4727 113.274 26.6296C112.614 26.788 111.921 26.8659 111.191 26.8659C109.781 26.8671 108.561 26.6296 107.53 26.1524ZM125.168 26.8671C123.18 26.8671 121.592 26.2562 120.405 25.0341C119.218 23.8123 118.626 22.1918 118.626 20.1738C118.626 17.9759 119.244 16.2599 120.482 15.0249C121.718 13.79 123.385 13.1724 125.482 13.1724C127.495 13.1724 129.062 13.7732 130.186 14.9743C131.31 16.1756 131.872 17.8398 131.872 19.9686C131.872 22.0559 131.267 23.7268 130.055 24.9822C128.843 26.2394 127.213 26.8671 125.168 26.8671ZM125.306 15.536C124.165 15.536 123.263 15.9408 122.6 16.749C121.937 17.5583 121.606 18.6739 121.606 20.0956C121.606 21.4667 121.942 22.5462 122.613 23.3336C123.283 24.121 124.181 24.5151 125.306 24.5151C126.454 24.5151 127.337 24.1274 127.954 23.3531C128.571 22.5774 128.878 21.4746 128.878 20.0437C128.878 18.6052 128.571 17.4936 127.954 16.7099C127.337 15.9277 126.454 15.536 125.306 15.536ZM142.138 9.60898C141.745 9.3794 141.295 9.264 140.791 9.264C139.374 9.264 138.666 10.0773 138.666 11.7039V13.4798H141.66V15.8047H138.679V26.5609H135.76V15.8047H133.559V13.4798H135.76V11.3589C135.76 9.979 136.204 8.89184 137.093 8.09532C137.982 7.2985 139.094 6.90039 140.428 6.90039C141.149 6.90039 141.719 6.98099 142.138 7.1431V9.60898ZM150.554 26.4208C149.984 26.7102 149.233 26.8555 148.301 26.8555C145.803 26.8555 144.553 25.6374 144.553 23.2026V15.8059H142.402V13.4814H144.553V10.4534L147.472 9.61051V13.4814H150.555V15.8059H147.472V22.346C147.472 23.1205 147.61 23.6743 147.888 24.0065C148.165 24.3386 148.626 24.5047 149.271 24.5047C149.765 24.5047 150.193 24.3606 150.554 24.07V26.4208ZM175.311 26.5609H172.028L170.406 21.8975H163.311L161.751 26.5609H158.48L165.235 8.24186H168.606L175.311 26.5609H175.311ZM169.612 19.42L167.11 12.1127C167.035 11.874 166.954 11.4914 166.871 10.9633H166.821C166.746 11.4487 166.662 11.8325 166.569 12.1127L164.091 19.42H169.612ZM186.985 14.7187L180.029 24.248H186.96V26.5609H175.939V25.4493L183.047 15.7915H176.619V13.4786H186.985V14.7187ZM200.684 26.5609H197.767V24.4907H197.717C196.87 26.0746 195.553 26.8671 193.767 26.8671C190.723 26.8671 189.2 25.0109 189.2 21.297V13.4786H192.119V20.9908C192.119 23.3415 193.012 24.5166 194.799 24.5166C195.662 24.5166 196.373 24.1936 196.931 23.5464C197.489 22.8992 197.768 22.052 197.768 21.0039V13.4786H200.687L200.684 26.5609ZM211.969 16.3026C211.616 16.0211 211.109 15.8813 210.446 15.8813C209.583 15.8813 208.861 16.2767 208.282 17.0692C207.704 17.8605 207.414 18.9385 207.414 20.3008V26.5609H204.496V13.4789H207.414V16.1744H207.463C207.748 15.2545 208.186 14.5371 208.778 14.022C209.369 13.5073 210.03 13.249 210.759 13.249C211.287 13.249 211.69 13.3309 211.966 13.4917L211.969 16.3026H211.969ZM224.964 20.8247H216.183C216.216 22.0336 216.582 22.9663 217.284 23.6227C217.984 24.2779 218.946 24.6061 220.171 24.6061C221.546 24.6061 222.808 24.1884 223.957 23.3544V25.7424C222.783 26.4922 221.231 26.8671 219.302 26.8671C217.406 26.8671 215.921 26.273 214.843 25.0848C213.764 23.8966 213.227 22.2257 213.227 20.0712C213.227 18.0358 213.819 16.3765 215.008 15.0949C216.194 13.8132 217.668 13.1724 219.43 13.1724C221.191 13.1724 222.553 13.7473 223.518 14.8964C224.482 16.0459 224.965 17.6426 224.965 19.6871L224.964 20.8247H224.964ZM222.146 18.7297C222.133 17.6648 221.89 16.8369 221.404 16.2455C220.917 15.6542 220.246 15.3583 219.391 15.3583C218.553 15.3583 217.841 15.6697 217.258 16.291C216.676 16.9123 216.317 17.7259 216.183 18.7309H222.146V18.7297Z" fill="#00ADEF"/>
</g>
<defs>
<clipPath id="clip0_220_6826">
<rect width="225" height="32.3438" fill="white" transform="translate(0 0.828125)"/>
</clipPath>
</defs>
</svg>
