<svg width="64" height="64" viewBox="0 0 64 64" fill="none" xmlns="http://www.w3.org/2000/svg">
<path d="M32 60.6676C31.7867 60.6676 31.5732 60.6328 31.3678 60.5635C27.1305 59.1501 6 50.9928 6 29.0355V13.3343C6 12.3823 6.67207 11.558 7.60807 11.374C20.6214 8.77134 25.2348 6.48361 31.0775 3.58494C31.6428 3.30494 32.3892 3.26783 32.9492 3.54783C38.7119 6.45183 43.2639 8.74734 56.3945 11.374C57.3305 11.5607 58.0026 12.3823 58.0026 13.3343V29.0381C58.0026 50.9954 36.8721 59.1527 32.6348 60.5661C32.4268 60.6327 32.2133 60.6676 32 60.6676ZM10 14.9665V29.0355C10 47.3421 27.1147 54.7958 32 56.5478C36.8853 54.7958 54 47.3395 54 29.0355V14.9665C42.2107 12.4998 37.253 10.1847 32.0397 7.56867C26.501 10.3073 21.6933 12.5238 10 14.9665Z" fill="url(#paint0_linear_564_8751)"/>
<defs>
<linearGradient id="paint0_linear_564_8751" x1="32.0013" y1="3.35547" x2="-18" y2="60.5721" gradientUnits="userSpaceOnUse">
<stop stop-color="#F89D13"/>
<stop offset="1" stop-color="#F89D13" stop-opacity="0"/>
</linearGradient>
</defs>
</svg>
