<svg width="192" height="112" viewBox="0 0 192 112" fill="none" xmlns="http://www.w3.org/2000/svg">
<g id="T logo 1">
<g id="Group">
<g id="Group_2">
<g id="Group_3">
<path id="Vector" d="M66.6648 62.5122C62.6179 62.6853 54.0242 62.2524 54.0242 51.561C54.0242 43.3373 59.4056 40.1769 66.6648 40.5665L66.6648 48.2281L73.0476 48.2281L73.0476 34.6367C73.0476 34.4635 72.8807 34.2471 72.5886 34.2471L67.1655 34.2471C58.9891 34.2471 47.5996 36.1953 47.5996 51.561C47.5996 66.3646 58.8639 68.8749 67.1655 68.8749L72.5886 68.8749C72.8807 68.8749 73.0476 68.6584 73.0476 68.4852L73.0476 62.5122L66.6648 62.5122Z" fill="#153817"/>
</g>
</g>
</g>
<g id="Group_4">
<g id="Group_5">
<g id="Group_6">
<path id="Vector_2" d="M109.008 40.6098L104.754 52.5135L98.1622 34.5068C98.0787 34.3337 97.9118 34.2471 97.7449 34.2471L92.0714 34.2471C91.9045 34.2471 91.7376 34.3337 91.6959 34.5068L85.0626 52.5135L80.8489 40.6098L74.3408 40.6098L84.6871 68.6151C84.8123 68.9615 85.3547 68.9615 85.4799 68.6151L94.9082 42.9477L104.336 68.6151C104.462 68.9615 105.004 68.9615 105.129 68.6151L115.517 40.6098L109.008 40.6098Z" fill="#153817"/>
</g>
</g>
</g>
<g id="Group_7">
<g id="Group_8">
<g id="Group_9">
<path id="Vector_3" d="M123.483 34.2471L118.019 34.2471C117.768 34.2471 117.56 34.4635 117.56 34.6367L117.56 48.2281L123.942 48.2281L123.942 40.5665C131.202 40.1769 136.583 43.3373 136.583 51.561C136.583 62.2524 127.989 62.6853 123.942 62.5122L123.942 54.8939L117.56 54.8939L117.56 68.4852C117.56 68.6584 117.768 68.8749 118.019 68.8749L123.483 68.8749C131.786 68.8749 143.008 66.3646 143.008 51.561C143.008 36.1953 131.619 34.2471 123.483 34.2471Z" fill="#153817"/>
</g>
</g>
</g>
<g id="Group_10">
<g id="Group_11">
<g id="Group_12">
<path id="Vector_4" d="M76.3121 78.6522C76.8282 78.7798 77.1803 78.9203 77.3677 79.0783C77.4973 79.1877 77.5617 79.3274 77.5617 79.4983C77.5617 79.6685 77.5266 79.8082 77.4563 79.9062C77.2799 80.1614 76.9636 80.289 76.5178 80.289C75.8956 80.289 75.5442 80.0703 75.4673 79.632L74.9863 79.632C75.1276 80.3315 75.6379 80.6787 76.5178 80.6787C76.9102 80.6787 77.2389 80.5936 77.5032 80.4113C77.8194 80.1979 77.9841 79.8819 77.9841 79.4679C77.9841 79.1269 77.8546 78.8656 77.5969 78.6826C77.4146 78.5489 77.1218 78.4274 76.7169 78.3172C76.3062 78.2078 76.0427 78.1167 75.919 78.0499C75.6496 77.9101 75.5149 77.7149 75.5207 77.4597C75.5207 77.326 75.5442 77.2098 75.6027 77.1247C75.755 76.8877 76.0251 76.7655 76.4117 76.7655C76.9578 76.7655 77.2682 76.9485 77.3502 77.3009L77.796 77.3009C77.6496 76.7047 77.1862 76.4009 76.4117 76.4009C76.0603 76.4009 75.7491 76.4981 75.4907 76.6925C75.2272 76.8877 75.0925 77.1733 75.0925 77.563C75.0925 78.0924 75.5032 78.4577 76.3121 78.6522Z" fill="#98AB26"/>
</g>
</g>
</g>
<g id="Group_13">
<g id="Group_14">
<g id="Group_15">
<path id="Vector_5" d="M83.7016 78.5187C83.7016 78.9934 83.5376 79.3952 83.2206 79.7234C82.8978 80.0583 82.5112 80.2224 82.0595 80.2224C81.6079 80.2224 81.2206 80.0583 80.9036 79.7234C80.5815 79.3952 80.4227 78.9934 80.4227 78.5187C80.4227 78.0562 80.5815 77.6544 80.9036 77.3194C81.2206 76.9913 81.6079 76.8211 82.0595 76.8211C82.5112 76.8211 82.8978 76.9913 83.2206 77.3194C83.5376 77.6544 83.7016 78.0562 83.7016 78.5187ZM84.1123 78.5187C84.1123 78.2263 84.0537 77.9529 83.9483 77.6908C83.8421 77.4356 83.6957 77.21 83.5083 77.0156C83.3202 76.8272 83.1035 76.6745 82.8568 76.5652C82.6049 76.4558 82.3407 76.395 82.0595 76.395C81.7777 76.395 81.5083 76.4558 81.2616 76.5652C81.0156 76.6745 80.7982 76.8272 80.6108 77.0156C80.4227 77.21 80.2762 77.4356 80.1708 77.6908C80.0654 77.9529 80.0127 78.2263 80.0127 78.5187C80.0127 78.8104 80.0654 79.0907 80.1708 79.3466C80.2762 79.6079 80.4227 79.8327 80.6108 80.0279C80.7982 80.2224 81.0156 80.3751 81.2616 80.4844C81.5083 80.5938 81.7777 80.6485 82.0595 80.6485C82.3407 80.6485 82.6049 80.5938 82.8568 80.4844C83.1035 80.3751 83.3202 80.2224 83.5083 80.0279C83.6957 79.8327 83.8421 79.6079 83.9483 79.3466C84.0537 79.0907 84.1123 78.8104 84.1123 78.5187Z" fill="#98AB26"/>
</g>
</g>
</g>
<g id="Group_16">
<g id="Group_17">
<g id="Group_18">
<path id="Vector_6" d="M86.8384 80.1733L86.8384 76.4614L86.4277 76.4614L86.4277 80.5994L88.2638 80.5994L88.2638 80.1733L86.8384 80.1733Z" fill="#98AB26"/>
</g>
</g>
</g>
<g id="Group_19">
<g id="Group_20">
<g id="Group_21">
<path id="Vector_7" d="M93.3193 79.23L93.3193 76.4614L92.9087 76.4614L92.9087 79.2907C92.9087 79.4616 92.8794 79.6014 92.8208 79.7169C92.6502 80.0579 92.3223 80.228 91.8355 80.228C91.5185 80.228 91.2666 80.1551 91.0785 80.0093C90.8618 79.8452 90.7564 79.6075 90.7564 79.2907L90.7564 76.4614L90.3457 76.4614L90.3457 79.23C90.3457 79.6804 90.4863 80.0336 90.7681 80.2888C91.0316 80.5326 91.3896 80.6541 91.8355 80.6541C92.2754 80.6541 92.6268 80.5326 92.8969 80.2888C93.1788 80.0336 93.3193 79.6804 93.3193 79.23Z" fill="#98AB26"/>
</g>
</g>
</g>
<g id="Group_22">
<g id="Group_23">
<g id="Group_24">
<path id="Vector_8" d="M95.4004 76.8454L96.3682 76.8454L96.3682 80.5877L96.7789 80.5877L96.7789 76.8454L97.7467 76.8454L97.7467 76.4497L95.4004 76.4497L95.4004 76.8454Z" fill="#98AB26"/>
</g>
</g>
</g>
<g id="Group_25">
<g id="Group_26">
<g id="Group_27">
<path id="Vector_9" d="M100.328 80.5994L100.328 76.4614L99.917 76.4614L99.917 80.5994L100.328 80.5994Z" fill="#98AB26"/>
</g>
</g>
</g>
<g id="Group_28">
<g id="Group_29">
<g id="Group_30">
<path id="Vector_10" d="M106.333 78.5187C106.333 78.9934 106.169 79.3952 105.852 79.7234C105.53 80.0583 105.143 80.2224 104.691 80.2224C104.24 80.2224 103.852 80.0583 103.535 79.7234C103.213 79.3952 103.054 78.9934 103.054 78.5187C103.054 78.0562 103.213 77.6544 103.535 77.3194C103.852 76.9913 104.24 76.8211 104.691 76.8211C105.143 76.8211 105.53 76.9913 105.852 77.3194C106.169 77.6544 106.333 78.0562 106.333 78.5187ZM106.744 78.5187C106.744 78.2263 106.686 77.9529 106.58 77.6908C106.474 77.4356 106.328 77.21 106.14 77.0156C105.952 76.8272 105.735 76.6745 105.489 76.5652C105.237 76.4558 104.972 76.395 104.691 76.395C104.41 76.395 104.14 76.4558 103.893 76.5652C103.647 76.6745 103.43 76.8272 103.243 77.0156C103.054 77.21 102.908 77.4356 102.803 77.6908C102.697 77.9529 102.645 78.2263 102.645 78.5187C102.645 78.8104 102.697 79.0907 102.803 79.3466C102.908 79.6079 103.054 79.8327 103.243 80.0279C103.43 80.2224 103.647 80.3751 103.893 80.4844C104.14 80.5938 104.41 80.6485 104.691 80.6485C104.972 80.6485 105.237 80.5938 105.489 80.4844C105.735 80.3751 105.952 80.2224 106.14 80.0279C106.328 79.8327 106.474 79.6079 106.58 79.3466C106.686 79.0907 106.744 78.8104 106.744 78.5187Z" fill="#98AB26"/>
</g>
</g>
</g>
<g id="Group_31">
<g id="Group_32">
<g id="Group_33">
<path id="Vector_11" d="M109.471 77.5509L111.711 80.8557L111.711 76.4618L111.301 76.4618L111.301 79.5045L109.061 76.1997L109.061 80.5998L109.471 80.5998L109.471 77.5509Z" fill="#98AB26"/>
</g>
</g>
</g>
<g id="Group_34">
<g id="Group_35">
<g id="Group_36">
<path id="Vector_12" d="M115.306 78.6522C115.822 78.7798 116.174 78.9203 116.362 79.0783C116.491 79.1877 116.556 79.3274 116.556 79.4983C116.556 79.6685 116.521 79.8082 116.45 79.9062C116.274 80.1614 115.958 80.289 115.512 80.289C114.89 80.289 114.538 80.0703 114.461 79.632L113.98 79.632C114.122 80.3315 114.632 80.6787 115.512 80.6787C115.904 80.6787 116.233 80.5936 116.497 80.4113C116.814 80.1979 116.978 79.8819 116.978 79.4679C116.978 79.1269 116.849 78.8656 116.591 78.6826C116.409 78.5489 116.116 78.4274 115.711 78.3172C115.3 78.2078 115.037 78.1167 114.913 78.0499C114.644 77.9101 114.509 77.7149 114.515 77.4597C114.515 77.326 114.538 77.2098 114.597 77.1247C114.749 76.8877 115.019 76.7655 115.406 76.7655C115.952 76.7655 116.262 76.9485 116.344 77.3009L116.79 77.3009C116.644 76.7047 116.18 76.4009 115.406 76.4009C115.054 76.4009 114.743 76.4981 114.485 76.6925C114.221 76.8877 114.087 77.1733 114.087 77.563C114.087 78.0924 114.497 78.4577 115.306 78.6522Z" fill="#98AB26"/>
</g>
</g>
</g>
</g>
</svg>
