<svg width="238" height="250" viewBox="0 0 238 250" fill="none" xmlns="http://www.w3.org/2000/svg">
<path d="M57.2595 139.536C48.2595 139.923 29.1474 138.956 29.1474 115.091C29.1474 96.7351 41.1154 89.6805 57.2595 90.5502L57.2595 107.652L71.4547 107.652L71.4547 77.3141C71.4547 76.9275 71.0835 76.4443 70.4339 76.4443L58.3731 76.4443C40.1891 76.4443 14.8594 80.7931 14.8594 115.091C14.8594 148.135 39.9107 153.739 58.3731 153.739L70.4339 153.739C71.0835 153.739 71.4547 153.255 71.4547 152.869L71.4547 139.536L57.2595 139.536Z" fill="white"/>
<path d="M151.099 90.2025L141.637 116.773L126.978 76.5798C126.792 76.1933 126.421 76 126.05 76L113.432 76C113.061 76 112.69 76.1933 112.597 76.5798L97.8449 116.773L88.4736 90.2025L74 90.2025L97.0097 152.714C97.2881 153.488 98.4945 153.488 98.7729 152.714L119.741 95.4211L140.709 152.714C140.987 153.488 142.194 153.488 142.472 152.714L165.573 90.2025L151.099 90.2025Z" fill="white"/>
<path d="M183.622 76.4443L171.468 76.4443C170.911 76.4443 170.447 76.9275 170.447 77.3141L170.447 107.652L184.643 107.652L184.643 90.5502C200.787 89.6805 212.755 96.7351 212.755 115.091C212.755 138.956 193.643 139.923 184.643 139.536L184.643 122.531L170.447 122.531L170.447 152.869C170.447 153.255 170.911 153.739 171.468 153.739L183.622 153.739C202.086 153.739 227.043 148.135 227.043 115.091C227.043 80.7931 201.715 76.4443 183.622 76.4443Z" fill="white"/>
<path d="M78.7141 175.563C79.8619 175.848 80.645 176.162 81.0618 176.514C81.3499 176.759 81.4932 177.071 81.4932 177.452C81.4932 177.832 81.4151 178.144 81.2588 178.362C80.8664 178.932 80.1631 179.217 79.1716 179.217C77.7877 179.217 77.0062 178.729 76.8353 177.75L75.7656 177.75C76.0798 179.312 77.2146 180.087 79.1716 180.087C80.0442 180.087 80.7752 179.897 81.363 179.49C82.0663 179.013 82.4326 178.308 82.4326 177.384C82.4326 176.623 82.1444 176.04 81.5714 175.631C81.166 175.333 80.5147 175.061 79.6144 174.816C78.7011 174.571 78.1149 174.368 77.8398 174.219C77.2407 173.907 76.9411 173.471 76.9541 172.902C76.9541 172.603 77.0062 172.344 77.1365 172.154C77.4751 171.625 78.0759 171.352 78.9355 171.352C80.15 171.352 80.8404 171.76 81.0227 172.547L82.0142 172.547C81.6886 171.216 80.658 170.538 78.9355 170.538C78.154 170.538 77.4621 170.755 76.8874 171.189C76.3013 171.625 76.0017 172.262 76.0017 173.132C76.0017 174.314 76.915 175.129 78.7141 175.563Z" fill="white"/>
<path d="M95.1492 175.265C95.1492 176.324 94.7845 177.221 94.0796 177.954C93.3616 178.701 92.502 179.068 91.4974 179.068C90.4929 179.068 89.6316 178.701 88.9267 177.954C88.2103 177.221 87.857 176.324 87.857 175.265C87.857 174.232 88.2103 173.335 88.9267 172.588C89.6316 171.855 90.4929 171.476 91.4974 171.476C92.502 171.476 93.3616 171.855 94.0796 172.588C94.7845 173.335 95.1492 174.232 95.1492 175.265ZM96.0626 175.265C96.0626 174.612 95.9323 174.002 95.6979 173.417C95.4618 172.847 95.1362 172.344 94.7194 171.91C94.301 171.489 93.8191 171.148 93.2704 170.904C92.7103 170.66 92.1226 170.524 91.4974 170.524C90.8706 170.524 90.2715 170.66 89.7228 170.904C89.1758 171.148 88.6922 171.489 88.2755 171.91C87.857 172.344 87.5314 172.847 87.297 173.417C87.0625 174.002 86.9453 174.612 86.9453 175.265C86.9453 175.916 87.0625 176.541 87.297 177.113C87.5314 177.696 87.857 178.198 88.2755 178.634C88.6922 179.068 89.1758 179.408 89.7228 179.653C90.2715 179.897 90.8706 180.019 91.4974 180.019C92.1226 180.019 92.7103 179.897 93.2704 179.653C93.8191 179.408 94.301 179.068 94.7194 178.634C95.1362 178.198 95.4618 177.696 95.6979 177.113C95.9323 176.541 96.0626 175.916 96.0626 175.265Z" fill="white"/>
<path d="M102.126 178.959L102.126 170.674L101.213 170.674L101.213 179.91L105.296 179.91L105.296 178.959L102.126 178.959Z" fill="white"/>
<path d="M116.539 176.854L116.539 170.674L115.626 170.674L115.626 176.989C115.626 177.371 115.561 177.683 115.43 177.94C115.051 178.702 114.322 179.081 113.239 179.081C112.534 179.081 111.974 178.919 111.555 178.593C111.074 178.227 110.839 177.696 110.839 176.989L110.839 170.674L109.926 170.674L109.926 176.854C109.926 177.859 110.238 178.647 110.865 179.217C111.451 179.761 112.247 180.033 113.239 180.033C114.217 180.033 114.999 179.761 115.6 179.217C116.226 178.647 116.539 177.859 116.539 176.854Z" fill="white"/>
<path d="M121.168 171.53L123.32 171.53L123.32 179.883L124.234 179.883L124.234 171.53L126.386 171.53L126.386 170.646L121.168 170.646L121.168 171.53Z" fill="white"/>
<path d="M132.124 179.91L132.124 170.674L131.211 170.674L131.211 179.91L132.124 179.91Z" fill="white"/>
<path d="M145.481 175.265C145.481 176.324 145.117 177.221 144.412 177.954C143.694 178.701 142.834 179.068 141.829 179.068C140.825 179.068 139.964 178.701 139.259 177.954C138.542 177.221 138.189 176.324 138.189 175.265C138.189 174.232 138.542 173.335 139.259 172.588C139.964 171.855 140.825 171.476 141.829 171.476C142.834 171.476 143.694 171.855 144.412 172.588C145.117 173.335 145.481 174.232 145.481 175.265ZM146.395 175.265C146.395 174.612 146.264 174.002 146.03 173.417C145.794 172.847 145.468 172.344 145.051 171.91C144.633 171.489 144.151 171.148 143.602 170.904C143.042 170.66 142.455 170.524 141.829 170.524C141.203 170.524 140.604 170.66 140.055 170.904C139.508 171.148 139.024 171.489 138.607 171.91C138.189 172.344 137.863 172.847 137.629 173.417C137.395 174.002 137.277 174.612 137.277 175.265C137.277 175.916 137.395 176.541 137.629 177.113C137.863 177.696 138.189 178.198 138.607 178.634C139.024 179.068 139.508 179.408 140.055 179.653C140.604 179.897 141.203 180.019 141.829 180.019C142.455 180.019 143.042 179.897 143.602 179.653C144.151 179.408 144.633 179.068 145.051 178.634C145.468 178.198 145.794 177.696 146.03 177.113C146.264 176.541 146.395 175.916 146.395 175.265Z" fill="white"/>
<path d="M152.458 173.105L157.44 180.482L157.44 170.674L156.528 170.674L156.528 177.466L151.545 170.089L151.545 179.91L152.458 179.91L152.458 173.105Z" fill="white"/>
<path d="M165.437 175.563C166.585 175.848 167.368 176.162 167.784 176.514C168.073 176.759 168.216 177.071 168.216 177.452C168.216 177.832 168.138 178.144 167.981 178.362C167.589 178.932 166.886 179.217 165.894 179.217C164.51 179.217 163.729 178.729 163.558 177.75L162.488 177.75C162.803 179.312 163.937 180.087 165.894 180.087C166.767 180.087 167.498 179.897 168.086 179.49C168.789 179.013 169.155 178.308 169.155 177.384C169.155 176.623 168.867 176.04 168.294 175.631C167.889 175.333 167.237 175.061 166.337 174.816C165.424 174.571 164.838 174.368 164.562 174.219C163.963 173.907 163.664 173.471 163.677 172.902C163.677 172.603 163.729 172.344 163.859 172.154C164.198 171.625 164.799 171.352 165.658 171.352C166.873 171.352 167.563 171.76 167.745 172.547L168.737 172.547C168.411 171.216 167.381 170.538 165.658 170.538C164.877 170.538 164.185 170.755 163.61 171.189C163.024 171.625 162.724 172.262 162.724 173.132C162.724 174.314 163.638 175.129 165.437 175.563Z" fill="white"/>
</svg>
