<svg width="310" height="310" viewBox="0 0 310 310" fill="none" xmlns="http://www.w3.org/2000/svg">
<path d="M266.674 111.086C288.095 167.58 215.58 196.367 174.09 188.332C157.61 185.145 151.038 179.794 134.633 185.015C122.71 188.809 116.498 201.996 103.354 204.365C74.5365 209.56 54.3245 182.733 47.7401 158.838C40.9201 134.038 46.3017 118.005 71.6473 105.996C82.6027 100.806 94.3269 104.21 104.017 100.633C123.932 93.2917 123.237 80.1725 135.129 66.7991C178.777 17.6827 247.225 59.7807 266.674 111.086Z" fill="#407BFF"/>
<g opacity="0.9">
<path d="M266.674 111.086C288.095 167.58 215.58 196.367 174.09 188.332C157.61 185.145 151.038 179.794 134.633 185.015C122.71 188.809 116.498 201.996 103.354 204.365C74.5365 209.56 54.3245 182.733 47.7401 158.838C40.9201 134.038 46.3017 118.005 71.6473 105.996C82.6027 100.806 94.3269 104.21 104.017 100.633C123.932 93.2917 123.237 80.1725 135.129 66.7991C178.777 17.6827 247.225 59.7807 266.674 111.086Z" fill="white"/>
</g>
<path d="M155.001 265.088C221.392 265.088 275.213 261.945 275.213 258.069C275.213 254.193 221.392 251.051 155.001 251.051C88.6097 251.051 34.7891 254.193 34.7891 258.069C34.7891 261.945 88.6097 265.088 155.001 265.088Z" fill="#F5F5F5"/>
<path d="M242.737 176.496L242.145 176.678L243.621 181.491L244.213 181.309L242.737 176.496Z" fill="#407BFF"/>
<path d="M237.038 157.908L236.445 158.09L240.837 172.411L241.43 172.229L237.038 157.908Z" fill="#407BFF"/>
<path d="M216.381 97.9609H194.327L148.354 247.834C147.999 249.001 147.922 250.235 148.13 251.438C148.337 252.641 148.824 253.778 149.55 254.758C150.276 255.739 151.222 256.536 152.312 257.085C153.402 257.634 154.605 257.921 155.825 257.921H254.889C256.111 257.921 257.315 257.635 258.407 257.085C259.498 256.535 260.444 255.737 261.171 254.755C261.897 253.772 262.384 252.634 262.59 251.429C262.797 250.225 262.718 248.989 262.36 247.821L216.381 97.9609Z" fill="#407BFF"/>
<path opacity="0.2" d="M216.382 97.9609H205.358L191.377 257.921H254.89C256.111 257.921 257.316 257.635 258.407 257.085C259.498 256.535 260.445 255.737 261.172 254.755C261.898 253.772 262.384 252.634 262.591 251.429C262.797 250.225 262.719 248.989 262.361 247.821L216.382 97.9609Z" fill="#263238"/>
<path opacity="0.2" d="M216.38 97.9609H211.203L226.982 257.921H254.882C256.104 257.921 257.309 257.635 258.4 257.085C259.491 256.535 260.438 255.737 261.164 254.755C261.891 253.772 262.377 252.634 262.583 251.429C262.79 250.225 262.711 248.989 262.353 247.821L216.38 97.9609Z" fill="#263238"/>
<path opacity="0.2" d="M194.327 97.9609H199.641L161.616 257.921H155.825C154.603 257.921 153.399 257.635 152.308 257.085C151.217 256.535 150.27 255.737 149.543 254.755C148.817 253.772 148.331 252.634 148.124 251.429C147.918 250.225 147.996 248.989 148.354 247.821L194.327 97.9609Z" fill="white"/>
<path d="M205.183 92.002C208.403 92.0006 211.533 93.0612 214.089 95.0195C216.644 96.9777 218.483 99.7242 219.319 102.833L226.437 129.307L224.546 137.677L217.304 130.82L210.441 146.581L204.191 135.625L196.429 146.581L193.056 130.151L186 139.5L184.326 128.687L191.022 102.92C191.843 99.7908 193.679 97.0218 196.241 95.0463C198.803 93.0708 201.948 92.0002 205.183 92.002Z" fill="#407BFF"/>
<path opacity="0.7" d="M205.183 92.002C208.403 92.0006 211.533 93.0612 214.089 95.0195C216.644 96.9777 218.483 99.7242 219.319 102.833L226.437 129.307L224.546 137.677L217.304 130.82L210.441 146.581L204.191 135.625L196.429 146.581L193.056 130.151L186 139.5L184.326 128.687L191.022 102.92C191.843 99.7908 193.679 97.0218 196.241 95.0463C198.803 93.0708 201.948 92.0002 205.183 92.002Z" fill="white"/>
<path d="M191.376 258.54C191.257 258.54 191.141 258.506 191.041 258.443C190.941 258.379 190.861 258.288 190.811 258.18L180.302 235.414C180.248 235.295 180.233 235.162 180.258 235.034C180.284 234.906 180.349 234.789 180.445 234.701L221.365 196.372L195.945 146.847C195.885 146.726 195.863 146.59 195.883 146.456L204.774 93.5515C204.801 93.387 204.892 93.2401 205.028 93.143C205.163 93.0459 205.332 93.0066 205.496 93.0338C205.66 93.0609 205.807 93.1523 205.904 93.2877C206.002 93.4232 206.041 93.5916 206.014 93.7561L197.154 146.456L222.686 196.217C222.747 196.336 222.767 196.472 222.745 196.604C222.723 196.736 222.658 196.857 222.562 196.949L181.642 235.29L191.958 257.665C192.028 257.814 192.036 257.985 191.98 258.139C191.924 258.294 191.81 258.42 191.661 258.49C191.571 258.528 191.473 258.545 191.376 258.54Z" fill="white"/>
<path d="M228.238 197.942C229.038 194.552 226.939 191.156 223.549 190.356C220.16 189.557 216.764 191.656 215.964 195.045C215.164 198.434 217.263 201.83 220.652 202.63C224.042 203.43 227.438 201.331 228.238 197.942Z" fill="#407BFF"/>
<path d="M222.109 203.429C220.739 203.429 219.4 203.023 218.261 202.262C217.123 201.501 216.235 200.419 215.711 199.154C215.187 197.888 215.049 196.496 215.317 195.152C215.584 193.809 216.243 192.575 217.212 191.607C218.181 190.638 219.415 189.978 220.758 189.711C222.101 189.444 223.494 189.581 224.759 190.105C226.025 190.629 227.106 191.517 227.867 192.656C228.628 193.795 229.034 195.134 229.034 196.504C229.033 198.34 228.303 200.1 227.004 201.399C225.706 202.697 223.945 203.427 222.109 203.429ZM222.109 190.824C220.984 190.824 219.885 191.158 218.95 191.783C218.015 192.408 217.286 193.296 216.856 194.335C216.426 195.375 216.313 196.518 216.533 197.621C216.753 198.724 217.295 199.737 218.091 200.532C218.887 201.327 219.9 201.868 221.004 202.087C222.107 202.305 223.25 202.192 224.289 201.761C225.328 201.329 226.215 200.6 226.839 199.664C227.463 198.728 227.796 197.628 227.794 196.504C227.793 194.997 227.193 193.552 226.127 192.487C225.061 191.422 223.616 190.824 222.109 190.824Z" fill="white"/>
<path d="M187.761 235.594C188.318 232.146 185.975 228.9 182.528 228.343C179.08 227.785 175.834 230.128 175.276 233.576C174.719 237.024 177.062 240.27 180.51 240.827C183.957 241.384 187.204 239.041 187.761 235.594Z" fill="#407BFF"/>
<path d="M180.867 242.073C179.497 242.073 178.158 241.667 177.019 240.906C175.88 240.145 174.992 239.063 174.468 237.797C173.944 236.531 173.807 235.138 174.075 233.795C174.343 232.451 175.003 231.217 175.972 230.249C176.941 229.281 178.176 228.621 179.52 228.355C180.863 228.088 182.256 228.226 183.521 228.752C184.787 229.277 185.868 230.165 186.628 231.305C187.388 232.445 187.793 233.784 187.792 235.154C187.791 236.99 187.06 238.75 185.762 240.047C184.463 241.345 182.702 242.073 180.867 242.073ZM180.867 229.469C179.742 229.469 178.643 229.802 177.708 230.427C176.773 231.052 176.044 231.94 175.614 232.979C175.184 234.017 175.071 235.161 175.291 236.263C175.51 237.366 176.052 238.379 176.847 239.174C177.642 239.97 178.655 240.511 179.758 240.73C180.86 240.95 182.004 240.837 183.043 240.407C184.081 239.977 184.969 239.248 185.594 238.313C186.219 237.378 186.552 236.279 186.552 235.154C186.551 233.647 185.951 232.202 184.885 231.136C183.819 230.07 182.374 229.47 180.867 229.469Z" fill="white"/>
<path d="M196.485 152.869C199.967 152.869 202.79 150.046 202.79 146.563C202.79 143.081 199.967 140.258 196.485 140.258C193.003 140.258 190.18 143.081 190.18 146.563C190.18 150.046 193.003 152.869 196.485 152.869Z" fill="#407BFF"/>
<path d="M196.484 153.488C195.114 153.488 193.775 153.081 192.636 152.32C191.498 151.559 190.61 150.478 190.086 149.212C189.562 147.947 189.424 146.554 189.692 145.211C189.959 143.868 190.618 142.634 191.587 141.665C192.556 140.697 193.79 140.037 195.133 139.77C196.476 139.503 197.869 139.64 199.134 140.164C200.4 140.688 201.481 141.576 202.242 142.715C203.003 143.853 203.409 145.192 203.409 146.562C203.408 148.398 202.678 150.159 201.379 151.457C200.081 152.756 198.32 153.486 196.484 153.488ZM196.484 140.877C195.36 140.877 194.26 141.21 193.325 141.835C192.39 142.46 191.662 143.348 191.231 144.386C190.801 145.425 190.688 146.568 190.908 147.671C191.127 148.774 191.669 149.787 192.464 150.582C193.259 151.377 194.272 151.919 195.375 152.138C196.478 152.358 197.621 152.245 198.66 151.815C199.699 151.384 200.587 150.656 201.211 149.721C201.836 148.786 202.169 147.687 202.169 146.562C202.168 145.055 201.568 143.61 200.502 142.544C199.437 141.478 197.991 140.878 196.484 140.877Z" fill="white"/>
<path d="M211.853 94.0488C212.41 90.6013 210.067 87.3548 206.619 86.7976C203.172 86.2404 199.925 88.5835 199.368 92.0311C198.811 95.4786 201.154 98.7251 204.602 99.2823C208.049 99.8395 211.296 97.4964 211.853 94.0488Z" fill="#407BFF"/>
<path d="M205.377 100.577C204.007 100.577 202.667 100.171 201.528 99.4098C200.389 98.6485 199.502 97.5666 198.978 96.3008C198.454 95.035 198.317 93.6422 198.585 92.2986C198.852 90.955 199.513 89.7211 200.482 88.7528C201.451 87.7845 202.685 87.1254 204.029 86.8589C205.373 86.5924 206.766 86.7304 208.031 87.2555C209.296 87.7806 210.378 88.6692 211.138 89.8089C211.898 90.9486 212.303 92.2882 212.302 93.6582C212.299 95.4933 211.568 97.2523 210.27 98.5493C208.971 99.8464 207.212 100.576 205.377 100.577ZM205.377 87.9728C204.252 87.9728 203.153 88.3062 202.218 88.9309C201.283 89.5556 200.554 90.4436 200.124 91.4825C199.694 92.5213 199.581 93.6645 199.8 94.7673C200.02 95.8702 200.561 96.8832 201.356 97.6784C202.152 98.4735 203.165 99.0149 204.267 99.2343C205.37 99.4537 206.513 99.3411 207.552 98.9108C208.591 98.4805 209.479 97.7518 210.104 96.8168C210.729 95.8818 211.062 94.7826 211.062 93.6582C211.06 92.1508 210.461 90.7057 209.395 89.6398C208.329 88.5739 206.884 87.9744 205.377 87.9728Z" fill="white"/>
<path d="M205.356 93.6887C205.192 93.6887 205.034 93.6234 204.918 93.5071C204.802 93.3909 204.736 93.2332 204.736 93.0687V65.2059C204.736 65.0415 204.802 64.8838 204.918 64.7675C205.034 64.6513 205.192 64.5859 205.356 64.5859C205.521 64.5859 205.678 64.6513 205.795 64.7675C205.911 64.8838 205.976 65.0415 205.976 65.2059V93.0687C205.976 93.2332 205.911 93.3909 205.795 93.5071C205.678 93.6234 205.521 93.6887 205.356 93.6887Z" fill="#407BFF"/>
<path d="M180.352 76.7937C185.932 78.6909 191.462 74.9337 197.023 76.7937V67.3201C191.443 65.4601 185.907 69.2173 180.352 67.3201V76.7937Z" fill="#407BFF"/>
<path opacity="0.2" d="M186.441 67.6745V77.1419C189.969 76.6769 193.497 75.5919 197.025 76.7947V67.3211C193.497 66.1183 189.969 67.2033 186.441 67.6745Z" fill="black"/>
<path d="M188.686 74.6733C194.266 76.5705 199.802 72.8133 205.357 74.6733V65.2059C199.777 63.3087 194.247 67.0659 188.686 65.2059V74.6733Z" fill="#407BFF"/>
<path d="M98.4072 133.689L100.335 136.789L94.7988 137.496C94.9137 136.474 95.0897 135.459 95.3258 134.458C95.4089 134.094 95.6314 133.777 95.9456 133.576C96.2598 133.374 96.6405 133.303 97.006 133.379L98.4072 133.689Z" fill="#7F3E3B"/>
<path d="M99.8766 141.763L95.5676 140.442L94.7988 137.504L100.335 136.797L99.8766 141.763Z" fill="#7F3E3B"/>
<path d="M114.559 98.9761C115.216 98.7715 116.009 98.4987 116.741 98.2445C117.473 97.9903 118.229 97.7113 118.967 97.4261C120.436 96.8433 121.893 96.2419 123.307 95.5661C126.018 94.3806 128.528 92.7805 130.747 90.8231C131.202 90.3908 131.617 89.9176 131.987 89.4095L132.111 89.2297C132.142 89.2297 132.272 88.9135 132.018 89.4901C131.899 89.8215 131.856 90.1755 131.894 90.5255C131.894 90.5875 131.894 90.6495 131.894 90.7115L131.925 90.8417C131.937 90.882 131.951 90.9213 131.968 90.9595V91.0339C132.049 91.2137 132.074 91.2013 132.061 91.1703C132.016 91.0913 131.966 91.0147 131.912 90.9409C131.494 90.4239 131.029 89.9466 130.524 89.5149C129.959 89.0189 129.364 88.5105 128.744 88.0145C126.264 86.0305 123.53 84.0837 120.883 82.1307L122.495 79.1113C125.707 80.3395 128.817 81.8219 131.795 83.5443C132.551 83.9907 133.314 84.4495 134.07 84.9827C134.903 85.5495 135.684 86.1908 136.401 86.8985C136.977 87.4581 137.432 88.1289 137.74 88.8701L137.821 89.0871L137.902 89.3599C137.902 89.4529 137.945 89.5335 137.97 89.6389C137.995 89.7443 138.001 89.8683 138.013 89.9799C138.069 90.5376 138.001 91.1007 137.815 91.6291C137.714 91.9143 137.581 92.1868 137.418 92.4413L137.213 92.7885C136.676 93.6739 136.053 94.5045 135.353 95.2685C132.613 98.1949 129.476 100.098 126.314 101.735C124.735 102.536 123.117 103.256 121.465 103.893C120.639 104.215 119.812 104.519 118.985 104.804C118.142 105.102 117.349 105.344 116.406 105.61L114.559 98.9761Z" fill="#7F3E3B"/>
<path d="M117.076 77.9582L113.777 80.1158L118.502 81.2008L119.711 77.8652L117.076 77.9582Z" fill="#7F3E3B"/>
<path d="M123.759 79.6198L119.711 77.8652L118.471 81.1946C118.471 81.1946 121.689 84.5674 123.728 82.3168L123.759 79.6198Z" fill="#7F3E3B"/>
<path d="M99.6537 104.896C98.1285 107.662 96.5847 110.52 95.1153 113.341C93.6459 116.162 92.2013 119.026 90.9985 121.866C90.6885 122.579 90.3785 123.279 90.1491 123.98L90.0561 124.216C90.0592 124.193 90.0592 124.17 90.0561 124.147C90.0561 124.104 90.0561 124.092 90.0561 124.098C90.0233 124.201 90.0233 124.311 90.0561 124.414C90.1974 124.938 90.4213 125.436 90.7195 125.89C91.0806 126.484 91.4781 127.055 91.9099 127.601C93.8959 129.99 96.0529 132.232 98.3641 134.309L96.4545 137.143C93.368 135.58 90.5084 133.605 87.9543 131.271C87.2661 130.631 86.6258 129.941 86.0385 129.207C85.3489 128.354 84.787 127.406 84.3707 126.392C84.1024 125.732 83.9433 125.032 83.8995 124.321C83.8735 123.907 83.8943 123.491 83.9615 123.081C83.9948 122.857 84.0424 122.635 84.1041 122.418L84.2095 122.07C84.4575 121.221 84.7241 120.384 85.0093 119.59C86.1613 116.422 87.4817 113.318 88.9649 110.29C90.4405 107.29 91.9719 104.388 93.6831 101.486L99.6537 104.896Z" fill="#7F3E3B"/>
<path d="M104 85.0391C103.597 89.2303 104.192 93.2851 103.256 96.9245C103.256 96.9245 104.297 100.303 110.485 100.303C117.305 100.303 113.585 96.9245 113.585 96.9245C109.834 96.0379 109.828 93.2851 110.373 90.6935L104 85.0391Z" fill="#7F3E3B"/>
<path d="M102.406 98.0833C101.879 97.0169 101.29 95.7893 102.406 95.4049C103.646 94.9833 110.293 94.5555 112.63 95.3491C113.252 95.517 113.784 95.9201 114.113 96.4732C114.443 97.0263 114.545 97.686 114.397 98.3127L102.406 98.0833Z" fill="#263238"/>
<path d="M89.1327 250.522C88.7033 250.422 88.2872 250.272 87.8927 250.075C87.8721 250.065 87.8552 250.049 87.8441 250.029C87.833 250.009 87.8283 249.986 87.8307 249.964C87.8315 249.941 87.8389 249.919 87.8521 249.9C87.8654 249.881 87.8837 249.867 87.9051 249.858C88.1097 249.79 89.8829 249.158 90.3851 249.548C90.4383 249.591 90.4787 249.648 90.5017 249.713C90.5246 249.777 90.5293 249.847 90.5153 249.914C90.5066 250.031 90.4685 250.143 90.4045 250.24C90.3405 250.338 90.2527 250.418 90.1495 250.472C89.8271 250.609 89.4667 250.626 89.1327 250.522ZM88.2647 249.989C89.0583 250.33 89.6968 250.435 90.013 250.268C90.0825 250.229 90.141 250.174 90.1833 250.106C90.2256 250.039 90.2502 249.962 90.2549 249.883C90.2549 249.79 90.2549 249.753 90.2115 249.734C89.9635 249.53 88.9839 249.753 88.2647 249.989Z" fill="#407BFF"/>
<path d="M87.922 250.089L87.86 250.058C87.8446 250.043 87.8336 250.024 87.8281 250.004C87.8226 249.983 87.8229 249.961 87.829 249.94C87.829 249.878 88.263 248.502 88.9264 248.161C89.0056 248.115 89.0939 248.088 89.185 248.08C89.2762 248.073 89.3678 248.085 89.4534 248.118C89.5392 248.136 89.6158 248.184 89.6701 248.253C89.7244 248.322 89.753 248.408 89.751 248.496C89.751 249.06 88.542 249.922 87.9778 250.083L87.922 250.089ZM89.3232 248.322C89.2253 248.302 89.1234 248.32 89.038 248.372C88.6033 248.737 88.2898 249.226 88.139 249.773C88.7156 249.5 89.5092 248.824 89.5154 248.49C89.5154 248.459 89.5154 248.39 89.3728 248.341L89.3232 248.322Z" fill="#407BFF"/>
<path d="M121.08 253.772C120.641 253.763 120.204 253.703 119.778 253.592C119.756 253.587 119.736 253.575 119.721 253.559C119.706 253.542 119.695 253.522 119.691 253.499C119.687 253.476 119.69 253.453 119.7 253.432C119.71 253.41 119.727 253.393 119.747 253.382C119.927 253.264 121.533 252.278 122.084 252.563C122.145 252.596 122.195 252.644 122.23 252.703C122.265 252.762 122.283 252.83 122.283 252.898C122.298 253.013 122.283 253.131 122.241 253.239C122.199 253.347 122.13 253.443 122.041 253.518C121.759 253.71 121.42 253.8 121.08 253.772ZM120.119 253.425C120.968 253.599 121.619 253.568 121.886 253.338C121.947 253.287 121.994 253.22 122.022 253.145C122.05 253.07 122.059 252.99 122.047 252.91C122.047 252.817 122.004 252.786 121.973 252.774C121.688 252.625 120.776 253.053 120.119 253.425Z" fill="#407BFF"/>
<path d="M119.81 253.58C119.787 253.585 119.764 253.585 119.741 253.58C119.725 253.566 119.711 253.549 119.703 253.53C119.694 253.511 119.69 253.489 119.692 253.468C119.692 253.406 119.816 251.974 120.392 251.503C120.461 251.444 120.541 251.4 120.627 251.373C120.714 251.347 120.805 251.338 120.895 251.348C120.983 251.349 121.068 251.38 121.135 251.437C121.203 251.493 121.249 251.571 121.267 251.658C121.372 252.216 120.38 253.301 119.865 253.58H119.81ZM120.814 251.558C120.714 251.561 120.617 251.598 120.541 251.664C120.194 252.115 119.989 252.658 119.952 253.226C120.467 252.836 121.099 251.986 121.037 251.682C121.037 251.651 121.037 251.583 120.864 251.565H120.814V251.558Z" fill="#407BFF"/>
<path d="M114.453 253.417H119.004L119.054 242.871H114.497L114.453 253.417Z" fill="#7F3E3B"/>
<path d="M82.541 249.226L86.8934 250.07L90.5142 239.728L86.1618 238.885L82.541 249.226Z" fill="#7F3E3B"/>
<path d="M87.4827 249.461L82.4607 248.395C82.3746 248.377 82.2847 248.389 82.2066 248.43C82.1285 248.47 82.0671 248.537 82.0329 248.618L80.4581 252.425C80.4219 252.52 80.4068 252.622 80.4138 252.723C80.4208 252.825 80.4498 252.923 80.4987 253.012C80.5477 253.101 80.6155 253.179 80.6973 253.239C80.7792 253.299 80.8731 253.341 80.9727 253.361C82.7273 253.702 83.5953 253.783 85.7963 254.254C87.1479 254.539 89.9131 255.277 91.7855 255.674C93.6579 256.071 94.2221 254.26 93.4843 253.925C90.1797 252.437 89.0699 251.123 88.1461 249.889C87.9833 249.672 87.7479 249.52 87.4827 249.461Z" fill="#263238"/>
<path d="M118.954 252.891H113.994C113.904 252.89 113.818 252.921 113.749 252.978C113.68 253.034 113.633 253.113 113.615 253.201L112.871 257.249C112.854 257.349 112.859 257.451 112.886 257.549C112.912 257.646 112.96 257.737 113.026 257.814C113.092 257.891 113.174 257.952 113.266 257.994C113.358 258.036 113.458 258.057 113.56 258.055C115.351 258.055 117.943 257.925 120.2 257.925C122.835 257.925 122.965 258.068 126.059 258.068C127.919 258.068 128.371 256.177 127.584 256.003C123.988 255.228 123.244 255.141 120.076 253.244C119.741 253.025 119.353 252.903 118.954 252.891Z" fill="#263238"/>
<path d="M95.7544 97.8349C91.5632 98.9819 86.6094 110.57 86.6094 110.57L96.2318 116.007C96.2318 116.007 98.4824 111.903 100.702 106.819C103.027 101.493 102.748 95.9315 95.7544 97.8349Z" fill="#263238"/>
<path d="M122.979 118.302C122.979 123.386 122.638 129.71 121.881 137.559H97.5153C97.2177 134.025 98.6747 117.502 95.2089 100.812C95.1284 100.437 95.1258 100.05 95.201 99.6737C95.2762 99.2978 95.4278 98.9413 95.6463 98.6263C95.8648 98.3114 96.1456 98.0446 96.4713 97.8425C96.7971 97.6403 97.1608 97.5072 97.5401 97.4513C99.0157 97.2343 100.863 97.0111 102.68 96.9243C106.128 96.7258 109.585 96.7258 113.034 96.9243C114.461 97.0567 115.881 97.2637 117.287 97.5443C118.259 97.731 119.16 98.1841 119.889 98.853C120.618 99.522 121.147 100.38 121.416 101.332C122.215 104.506 122.681 107.753 122.805 111.023C122.929 113.119 122.997 115.524 122.979 118.302Z" fill="#263238"/>
<path d="M112.023 106.64C115.817 108.742 124.54 106.342 124.54 106.342L124.088 94.5312C120.925 94.9293 117.833 95.764 114.899 97.0112C108.96 99.4168 107.745 104.271 112.023 106.64Z" fill="#263238"/>
<path d="M117.007 95.9629C117.007 95.9629 115.246 96.5829 114.595 96.7751C112.258 99.3419 110.801 104.916 110.801 104.916L113.777 108.846C112.648 103.025 117.007 95.9629 117.007 95.9629Z" fill="#407BFF"/>
<path opacity="0.2" d="M117.007 95.9629C117.007 95.9629 115.246 96.5829 114.595 96.7751C112.258 99.3419 110.801 104.916 110.801 104.916L113.777 108.846C112.648 103.025 117.007 95.9629 117.007 95.9629Z" fill="black"/>
<path d="M122.983 125.203C120.658 126.995 116.039 122.828 116.039 122.828L116.175 124.942C120.41 128.483 122.915 126.728 122.915 126.728C123.01 126.225 123.033 125.712 122.983 125.203Z" fill="#407BFF"/>
<path opacity="0.2" d="M122.983 125.203C120.658 126.995 116.039 122.828 116.039 122.828L116.175 124.942C120.41 128.483 122.915 126.728 122.915 126.728C123.01 126.225 123.033 125.712 122.983 125.203Z" fill="black"/>
<path d="M101.32 96.7754C100.624 96.827 99.9329 96.939 99.2557 97.1102C98.2103 99.7769 97.9752 102.693 98.5799 105.493L101.258 104.29C101.258 104.29 100.39 100.235 101.32 96.7754Z" fill="#407BFF"/>
<path opacity="0.2" d="M101.32 96.7754C100.624 96.827 99.9329 96.939 99.2557 97.1102C98.2103 99.7769 97.9752 102.693 98.5799 105.493L101.258 104.29C101.258 104.29 100.39 100.235 101.32 96.7754Z" fill="black"/>
<path d="M98.1786 104.934C99.6356 102.658 110.82 102.912 113.238 104.779C115.656 106.645 118.577 126.993 114.999 129.269C111.422 131.544 94.9174 132.629 94.7996 128.029C94.6818 123.428 98.439 115.43 97.9926 112.789C97.5462 110.148 96.2008 108.034 98.1786 104.934Z" fill="#407BFF"/>
<path opacity="0.4" d="M98.332 112.04C98.332 112.04 102.412 113.627 111.042 111.699C109.362 112.58 100.496 114.582 98.332 112.04Z" fill="#263238"/>
<path opacity="0.4" d="M103.261 111.444C103.311 111.822 103.1 112.132 102.784 112.132C102.611 112.11 102.452 112.03 102.331 111.905C102.21 111.78 102.136 111.617 102.121 111.444C102.071 111.066 102.282 110.756 102.592 110.756C102.765 110.776 102.927 110.856 103.048 110.981C103.17 111.107 103.245 111.27 103.261 111.444Z" fill="#263238"/>
<path opacity="0.4" d="M112.766 129.579H112.723C112.703 129.574 112.684 129.565 112.667 129.552C112.651 129.54 112.638 129.524 112.628 129.506C112.618 129.488 112.612 129.468 112.61 129.447C112.608 129.427 112.611 129.406 112.617 129.387C113.932 125.047 113.77 119.132 112.134 111.723C111.452 108.623 112.227 105.672 112.636 105.058C112.647 105.041 112.662 105.026 112.679 105.015C112.696 105.003 112.715 104.995 112.735 104.991C112.755 104.987 112.776 104.987 112.796 104.991C112.816 104.995 112.836 105.003 112.853 105.015C112.87 105.026 112.885 105.041 112.896 105.058C112.907 105.075 112.915 105.094 112.919 105.114C112.923 105.134 112.923 105.155 112.919 105.175C112.915 105.195 112.908 105.214 112.896 105.232C112.475 105.852 111.805 108.815 112.431 111.655C114.087 119.095 114.248 125.115 112.915 129.474C112.903 129.504 112.883 129.531 112.857 129.549C112.83 129.568 112.798 129.578 112.766 129.579Z" fill="#263238"/>
<g opacity="0.2">
<path d="M119.053 242.871L119.028 248.308H114.471L114.495 242.871H119.053Z" fill="black"/>
<path d="M86.1615 238.885L90.5139 239.728L88.6415 245.06L84.2891 244.217L86.1615 238.885Z" fill="black"/>
</g>
<path d="M113.238 137.558C113.238 137.558 109.413 172.359 107.076 185.379C104.521 199.639 91.2842 244.483 91.2842 244.483L83.125 242.747C83.125 242.747 92.239 200.817 93.4666 186.674C94.7934 171.329 97.5152 137.533 97.5152 137.533L113.238 137.558Z" fill="#407BFF"/>
<path d="M93.112 241.757L91.7232 244.739L82.541 242.786L83.1982 240.002L93.112 241.757Z" fill="#263238"/>
<path opacity="0.2" d="M110.448 149.959C104.521 151.13 106.009 173.419 107.175 184.883C108.582 176.78 110.504 161.187 111.8 150.12C111.381 149.915 110.904 149.858 110.448 149.959Z" fill="black"/>
<path d="M121.88 137.559C121.88 137.559 123.82 171.615 123.864 185.503C123.901 199.949 120.683 247.255 120.683 247.255H112.97C112.97 247.255 110.893 200.792 110.001 186.607C109.027 171.107 105.865 137.559 105.865 137.559H121.88Z" fill="#407BFF"/>
<path d="M122.049 244.18C122.086 244.18 121.739 247.385 121.739 247.385H112.352L111.992 244.527L122.049 244.18Z" fill="#263238"/>
<path d="M114.341 80.6986C114.391 81.0644 114.626 81.3186 114.868 81.3186C115.11 81.3186 115.259 80.9838 115.209 80.618C115.16 80.2522 114.918 79.998 114.682 79.998C114.447 79.998 114.292 80.3328 114.341 80.6986Z" fill="#263238"/>
<path d="M114.596 81.3438C115.191 82.4145 115.927 83.4008 116.784 84.2763C116.555 84.481 116.283 84.6326 115.988 84.7205C115.694 84.8083 115.383 84.8303 115.079 84.7848L114.596 81.3438Z" fill="#630F0F"/>
<path d="M114.489 78.3236C114.521 78.3104 114.55 78.2903 114.574 78.2645C114.598 78.2388 114.615 78.2081 114.626 78.1748C114.633 78.1471 114.635 78.1182 114.631 78.0898C114.627 78.0613 114.618 78.0339 114.604 78.0092C114.589 77.9844 114.57 77.9627 114.547 77.9453C114.524 77.928 114.498 77.9154 114.471 77.9082C114.14 77.8441 113.8 77.8591 113.477 77.9517C113.153 78.0444 112.857 78.2122 112.611 78.4414C112.585 78.4591 112.564 78.482 112.548 78.5087C112.532 78.5353 112.522 78.5651 112.519 78.5959C112.515 78.6267 112.519 78.6578 112.528 78.6872C112.538 78.7167 112.554 78.7437 112.575 78.7665C112.596 78.7892 112.622 78.8073 112.65 78.8193C112.679 78.8314 112.71 78.8372 112.74 78.8363C112.771 78.8355 112.802 78.828 112.83 78.8144C112.858 78.8009 112.882 78.7815 112.902 78.7576C113.097 78.5727 113.333 78.4373 113.591 78.3629C113.848 78.2884 114.121 78.2771 114.384 78.3298C114.419 78.3357 114.455 78.3336 114.489 78.3236Z" fill="#263238"/>
<path d="M102.041 81.1764C102.952 85.6218 103.281 88.2568 105.848 90.3214C106.679 91.0016 107.68 91.4413 108.744 91.5929C109.807 91.7444 110.892 91.602 111.88 91.181C112.868 90.7601 113.722 90.0767 114.349 89.2049C114.977 88.3332 115.354 87.3063 115.439 86.2356C115.836 82.1188 114.28 75.5468 109.636 74.2138C108.64 73.8991 107.578 73.8523 106.559 74.0782C105.539 74.304 104.596 74.7946 103.826 75.5005C103.056 76.2063 102.486 77.1026 102.172 78.099C101.859 79.0954 101.814 80.1569 102.041 81.1764Z" fill="#7F3E3B"/>
<path d="M111.601 81.8392C110.845 84.1828 106.641 88.6592 105.147 89.0064C103.653 89.3536 99.5668 85.8196 99.201 83.972C97.713 83.8046 96.101 80.8348 98.3578 79.6692C96.6838 78.8198 97.1178 74.3868 100.522 74.7092C98.4508 72.7128 100.937 69.3338 103.764 70.2328C104.44 68.5092 108.259 67.4056 110.46 70.0592C112.178 69.092 115.185 71.0388 114.961 73.9528C114.845 74.8545 114.471 75.7035 113.883 76.3976C113.296 77.0916 112.521 77.6012 111.651 77.865C112.388 78.7392 111.601 81.8392 111.601 81.8392Z" fill="#263238"/>
<path d="M109.35 81.2189C109.603 82.332 110.205 83.3354 111.067 84.0833C112.214 85.0629 113.132 84.2631 113.107 82.9177C113.107 81.6777 112.456 79.7433 111.167 79.2783C109.877 78.8133 109.065 79.8859 109.35 81.2189Z" fill="#7F3E3B"/>
</svg>
