<svg width="280" height="280" viewBox="0 0 280 280" fill="none" xmlns="http://www.w3.org/2000/svg">
<path d="M196.808 20.0265L195.957 20.6145C192.413 22.9916 189.587 26.2933 187.785 30.1619C185.984 34.0305 185.275 38.3184 185.737 42.5609C185.868 43.6653 186.082 44.7585 186.375 45.8313C187.487 49.7172 189.541 53.2682 192.356 56.1688C195.17 59.0694 198.658 61.2297 202.509 62.4577C207.062 63.8745 212.219 64.0593 215.949 67.0161C220.782 70.8633 221.308 77.8185 221.454 83.9505C221.599 90.0825 222.142 97.0377 226.992 100.863C230.027 103.259 234.194 103.847 238.058 103.427C248.3 102.307 257.098 94.6577 261.152 85.3057C265.206 75.9537 265.033 65.2185 262.479 55.3737C258.901 41.5753 250.445 28.7289 238.08 21.4097C225.715 14.0905 209.33 12.9425 196.808 20.0265Z" fill="#F5F5F5"/>
<path d="M59.7026 205.713C70.2408 201.325 75.2258 189.224 70.8371 178.686C66.4483 168.148 54.3477 163.163 43.8095 167.551C33.2714 171.94 28.2863 184.041 32.6751 194.579C37.0638 205.117 49.1645 210.102 59.7026 205.713Z" fill="#F5F5F5"/>
<path d="M70.9151 38.2355C72.9261 29.5456 67.5118 20.8707 58.8218 18.8597C50.1319 16.8486 41.457 22.263 39.446 30.9529C37.4349 39.6429 42.8493 48.3178 51.5392 50.3288C60.2292 52.3398 68.9041 46.9255 70.9151 38.2355Z" fill="#F5F5F5"/>
<path d="M8.89258 249.458L38.4494 229.5L181.669 228.816L188.221 249.76L8.89258 249.458Z" fill="#455A64"/>
<path d="M187.852 257.634L8.5957 257.506V249.066L187.93 249.626L187.852 257.634Z" fill="#455A64"/>
<path d="M183.457 249.581C183.457 249.659 144.744 249.71 97.0094 249.687C49.275 249.665 10.5566 249.581 10.5566 249.497C10.5566 249.413 49.2582 249.368 97.0094 249.391C144.761 249.413 183.457 249.497 183.457 249.581Z" fill="#263238"/>
<path d="M138.88 64.4401H110.724C109.789 64.4401 108.893 64.069 108.233 63.4084C107.572 62.7478 107.201 61.8519 107.201 60.9177V21.9641C107.201 21.5018 107.292 21.044 107.469 20.617C107.646 20.1899 107.906 19.802 108.233 19.4753C108.56 19.1487 108.949 18.8898 109.376 18.7134C109.803 18.537 110.261 18.4465 110.724 18.4473H128.571L142.386 32.6825V60.9177C142.386 61.849 142.017 62.7424 141.36 63.4025C140.703 64.0626 139.812 64.4356 138.88 64.4401Z" fill="#407BFF"/>
<g opacity="0.2">
<path d="M107.896 50.4844H141.68C141.865 50.4844 142.041 50.5575 142.171 50.6878C142.302 50.818 142.375 50.9946 142.375 51.1788V60.8108C142.375 61.7732 141.992 62.6962 141.312 63.3767C140.631 64.0573 139.708 64.4396 138.746 64.4396H110.83C109.868 64.4396 108.945 64.0573 108.264 63.3767C107.583 62.6962 107.201 61.7732 107.201 60.8108V51.1788C107.201 50.9946 107.274 50.818 107.405 50.6878C107.535 50.5575 107.711 50.4844 107.896 50.4844Z" fill="black"/>
</g>
<g opacity="0.2">
<path d="M128.57 18.4473V29.4065C128.57 29.8364 128.654 30.2623 128.818 30.6597C128.982 31.0571 129.222 31.4183 129.526 31.7226C129.83 32.0269 130.191 32.2683 130.588 32.433C130.985 32.5977 131.411 32.6825 131.841 32.6825H142.386L128.57 18.4473Z" fill="white"/>
</g>
<g opacity="0.2">
<path d="M128.71 30.3691C128.71 30.3691 128.575 33.0403 131.599 33.9027C131.714 33.9348 131.83 33.961 131.947 33.9811C133.324 34.2275 142.385 35.8347 142.385 35.6275V32.6819H131.84C131.84 32.6819 129.208 32.5923 128.71 30.3691Z" fill="black"/>
</g>
<path d="M117.27 56.5603C117.304 55.9697 117.511 55.4023 117.866 54.9288C118.221 54.4554 118.707 54.0968 119.264 53.898C119.822 53.6991 120.425 53.6687 120.999 53.8105C121.574 53.9523 122.094 54.2601 122.494 54.6955L121.682 55.4403C121.514 55.2383 121.304 55.0763 121.065 54.9658C120.827 54.8554 120.567 54.7994 120.305 54.8019C120.067 54.7884 119.828 54.8237 119.604 54.9055C119.38 54.9874 119.175 55.1141 119.002 55.2779C118.828 55.4418 118.69 55.6393 118.596 55.8583C118.502 56.0774 118.453 56.3134 118.453 56.5519C118.453 56.7904 118.502 57.0264 118.596 57.2455C118.69 57.4645 118.828 57.662 119.002 57.8258C119.175 57.9897 119.38 58.1164 119.604 58.1982C119.828 58.2801 120.067 58.3154 120.305 58.3019C120.568 58.3046 120.829 58.2476 121.068 58.1351C121.307 58.0226 121.517 57.8575 121.682 57.6523L122.494 58.4027C122.096 58.8399 121.577 59.15 121.004 59.294C120.43 59.438 119.826 59.4096 119.269 59.2124C118.711 59.0151 118.224 58.6578 117.868 58.185C117.513 57.7123 117.304 57.1452 117.27 56.5547V56.5603Z" fill="#FAFAFA"/>
<path d="M122.865 58.762L123.296 57.81C123.829 58.1743 124.46 58.3695 125.105 58.37C125.856 58.37 126.158 58.1236 126.158 57.81C126.158 56.7852 122.977 57.4908 122.977 55.458C122.977 54.5228 123.728 53.778 125.284 53.778C125.95 53.7657 126.606 53.9341 127.183 54.2652L126.791 55.2284C126.331 54.9551 125.808 54.8064 125.273 54.7972C124.523 54.7972 124.237 55.0772 124.237 55.4188C124.237 56.4268 127.418 55.7324 127.418 57.7428C127.418 58.6556 126.656 59.4228 125.094 59.4228C124.301 59.4329 123.524 59.2025 122.865 58.762Z" fill="#FAFAFA"/>
<path d="M127.854 58.762L128.279 57.81C128.813 58.1728 129.443 58.3678 130.088 58.37C130.838 58.37 131.141 58.1236 131.141 57.81C131.141 56.7852 127.96 57.4908 127.96 55.458C127.96 54.5228 128.71 53.778 130.267 53.778C130.932 53.7657 131.588 53.9341 132.166 54.2652L131.774 55.2284C131.314 54.9544 130.791 54.8057 130.256 54.7972C129.506 54.7972 129.22 55.0772 129.22 55.4188C129.22 56.4268 132.401 55.7324 132.401 57.7428C132.401 58.6556 131.645 59.4228 130.077 59.4228C129.286 59.4346 128.51 59.204 127.854 58.762Z" fill="#FAFAFA"/>
<path d="M119.056 38.8529C119.616 39.0321 119.901 39.4129 119.901 40.2641V42.2745C119.885 42.3995 119.898 42.5264 119.938 42.6458C119.978 42.7652 120.045 42.8738 120.134 42.9634C120.222 43.0531 120.33 43.1213 120.449 43.163C120.568 43.2047 120.694 43.2188 120.82 43.2041H121.044V44.7385H120.316C118.742 44.7385 117.941 43.9321 117.941 42.4985V40.2137C117.954 40.1359 117.948 40.0562 117.925 39.9809C117.901 39.9056 117.861 39.8366 117.807 39.7792C117.753 39.7219 117.687 39.6777 117.613 39.6501C117.539 39.6226 117.46 39.6123 117.381 39.6201H116.967V38.0801H117.381C117.459 38.0889 117.538 38.0795 117.612 38.0526C117.686 38.0257 117.753 37.9821 117.807 37.9252C117.861 37.8682 117.902 37.7995 117.925 37.7244C117.948 37.6492 117.954 37.5697 117.941 37.4921V35.2185C117.941 33.7737 118.742 32.9785 120.316 32.9785H121.044V34.5073H120.82C120.694 34.4925 120.567 34.5066 120.447 34.5486C120.328 34.5906 120.22 34.6594 120.131 34.7497C120.042 34.84 119.976 34.9493 119.936 35.0694C119.896 35.1895 119.884 35.3171 119.901 35.4425V37.4529C119.901 38.3153 119.638 38.6793 119.056 38.8529Z" fill="#FAFAFA"/>
<path d="M132.613 38.0818V39.6162H132.193C131.857 39.6162 131.633 39.8066 131.633 40.2098V42.4834C131.633 43.9282 130.827 44.7234 129.253 44.7234H128.525V43.2058H128.755C128.88 43.2205 129.007 43.2064 129.126 43.1647C129.245 43.123 129.353 43.0548 129.441 42.9651C129.53 42.8755 129.597 42.7669 129.637 42.6475C129.677 42.5281 129.69 42.4011 129.673 42.2762V40.2658C129.673 39.3978 129.937 39.0338 130.513 38.8546C129.953 38.681 129.673 38.2946 129.673 37.449V35.4386C129.691 35.3132 129.679 35.1856 129.639 35.0655C129.599 34.9454 129.532 34.8361 129.444 34.7458C129.355 34.6555 129.247 34.5867 129.127 34.5447C129.008 34.5027 128.881 34.4886 128.755 34.5034H128.525V32.9746H129.253C130.827 32.9746 131.633 33.7754 131.633 35.2146V37.5218C131.633 37.925 131.846 38.1098 132.193 38.1098L132.613 38.0818Z" fill="#FAFAFA"/>
<path d="M178.271 92.7201H149.711C149.242 92.7201 148.777 92.6275 148.343 92.4476C147.909 92.2677 147.515 92.0041 147.183 91.6717C146.851 91.3394 146.588 90.9448 146.409 90.5107C146.23 90.0766 146.138 89.6114 146.139 89.1417V49.6001C146.139 48.6526 146.515 47.7438 147.185 47.0738C147.855 46.4038 148.764 46.0273 149.711 46.0273H167.827L181.827 60.4809V89.1417C181.829 90.0874 181.456 90.995 180.789 91.6658C180.122 92.3365 179.217 92.7157 178.271 92.7201Z" fill="#407BFF"/>
<g opacity="0.2">
<path d="M146.132 78.5527H181.849V88.8567C181.849 89.8815 181.442 90.8644 180.717 91.589C179.993 92.3136 179.01 92.7207 177.985 92.7207H149.985C148.96 92.7207 147.977 92.3136 147.253 91.589C146.528 90.8644 146.121 89.8815 146.121 88.8567V78.5527H146.132Z" fill="black"/>
</g>
<g opacity="0.2">
<path d="M167.82 46.0273V57.1545C167.82 58.0368 168.171 58.8828 168.795 59.5067C169.418 60.1305 170.264 60.4809 171.147 60.4809H181.843L167.82 46.0273Z" fill="white"/>
</g>
<g opacity="0.2">
<path d="M167.966 58.1348C167.966 58.1348 167.826 60.834 170.9 61.7188C171.016 61.7514 171.134 61.7776 171.253 61.7972C172.647 62.0492 181.843 63.6844 181.843 63.4772V60.4812H171.147C171.147 60.4812 168.475 60.3916 167.966 58.1348Z" fill="black"/>
</g>
<path d="M160.798 66.8536L156.508 68.4216L160.798 69.9784V71.5912L154.666 69.2616V67.5816L160.798 65.252V66.8536Z" fill="#FAFAFA"/>
<path d="M165.407 62.0879H167.194L162.96 74.2175H161.174L165.407 62.0879Z" fill="#FAFAFA"/>
<path d="M173.555 67.5865V69.2665L167.439 71.5905V70.0001L171.729 68.4433L167.439 66.8753V65.2793L173.555 67.5865Z" fill="#FAFAFA"/>
<path d="M159.336 83.8223V88.6215H158.216V86.6559H156.038V88.6215H154.918V83.8223H156.038V85.7151H158.216V83.8223H159.336Z" fill="#FAFAFA"/>
<path d="M161.47 84.7295H159.936V83.8223H164.119V84.7295H162.579V88.6215H161.459L161.47 84.7295Z" fill="#FAFAFA"/>
<path d="M169.081 88.6207V85.7423L167.67 88.1167H167.166L165.76 85.8039V88.6039H164.719V83.8047H165.637L167.44 86.8007L169.21 83.8159H170.123V88.6151L169.081 88.6207Z" fill="#FAFAFA"/>
<path d="M171.26 83.8223H172.38V87.7423H174.788V88.6439H171.265L171.26 83.8223Z" fill="#FAFAFA"/>
<path d="M77.6765 60.6875H25.8093C24.8629 60.6875 24.0957 61.4547 24.0957 62.4011V148.098C24.0957 149.044 24.8629 149.812 25.8093 149.812H77.6765C78.6229 149.812 79.3901 149.044 79.3901 148.098V62.4011C79.3901 61.4547 78.6229 60.6875 77.6765 60.6875Z" fill="white"/>
<path d="M26.1185 60.6876H77.4481C77.9635 60.6876 78.4577 60.8923 78.8222 61.2567C79.1866 61.6211 79.3913 62.1154 79.3913 62.6308V70.6444H24.0801V62.7204C24.0786 62.4525 24.1304 62.1871 24.2323 61.9394C24.3343 61.6917 24.4845 61.4668 24.6742 61.2776C24.8638 61.0885 25.0892 60.939 25.3371 60.8377C25.5851 60.7364 25.8507 60.6853 26.1185 60.6876Z" fill="#E0E0E0"/>
<path d="M77.5372 149.811C77.7812 149.798 78.0214 149.745 78.2484 149.654C78.5762 149.511 78.856 149.276 79.0545 148.978C79.2531 148.68 79.362 148.332 79.3684 147.974C79.3684 146.064 79.3684 143.259 79.3404 139.647C79.3404 132.417 79.3404 121.962 79.2956 109.043C79.2508 96.1237 79.2956 80.7293 79.262 63.6437V62.8429C79.2773 62.5871 79.2547 62.3304 79.1948 62.0813C79.0898 61.7177 78.8688 61.3983 78.5655 61.1718C78.2622 60.9454 77.8933 60.8243 77.5148 60.8269H25.9948C25.568 60.826 25.1568 60.9875 24.8447 61.2787C24.5327 61.5699 24.3432 61.969 24.3148 62.3949C24.3148 62.6805 24.3148 62.9997 24.3148 63.3021V88.4069C24.3148 97.7029 24.3148 106.674 24.3148 115.22C24.3148 123.765 24.3148 131.88 24.3148 139.479C24.3148 141.377 24.3148 143.248 24.3148 145.079V147.8C24.2832 148.223 24.4051 148.644 24.6581 148.984C24.9111 149.325 25.2783 149.562 25.6924 149.654C26.1202 149.699 26.5507 149.712 26.9804 149.693H35.7052L66.3148 149.738L74.6364 149.766L66.3148 149.794L35.7052 149.839H26.8796C26.4329 149.854 25.9858 149.839 25.5412 149.794C25.0782 149.696 24.6665 149.433 24.382 149.055C24.0955 148.672 23.9546 148.199 23.9844 147.722C23.9844 146.826 23.9844 145.919 23.9844 145V139.4C23.9844 131.801 23.9844 123.681 23.9844 115.141C23.9844 106.601 23.9844 97.6245 23.9844 88.3285C23.9844 83.673 23.9844 78.9448 23.9844 74.1437V63.2237C23.9844 62.9157 23.9844 62.6245 23.9844 62.2941C24.0103 61.9622 24.1202 61.6423 24.3036 61.3645C24.4861 61.0855 24.7353 60.8565 25.0286 60.6981C25.322 60.5397 25.6502 60.4569 25.9836 60.4573H77.5316C77.8228 60.4525 78.1114 60.5118 78.3772 60.6309C78.6457 60.7491 78.8851 60.9246 79.0786 61.1452C79.2721 61.3658 79.415 61.626 79.4972 61.9077C79.5593 62.1812 79.5838 62.4619 79.57 62.7421V63.5429C79.57 80.6285 79.57 96.0229 79.5364 108.942C79.5028 121.861 79.5028 132.317 79.4916 139.546C79.4916 143.158 79.4916 145.964 79.4636 147.873C79.4587 148.3 79.3086 148.713 79.038 149.044C78.8413 149.286 78.5899 149.478 78.3044 149.604C78.1243 149.671 77.9359 149.715 77.7444 149.733L77.5372 149.811Z" fill="#263238"/>
<path d="M32.2509 66.4438C32.2509 66.7672 32.155 67.0834 31.9753 67.3523C31.7956 67.6212 31.5402 67.8308 31.2414 67.9545C30.9426 68.0783 30.6139 68.1107 30.2967 68.0476C29.9795 67.9845 29.6881 67.8287 29.4594 67.6001C29.2307 67.3714 29.075 67.08 29.0119 66.7628C28.9488 66.4456 28.9812 66.1168 29.1049 65.818C29.2287 65.5192 29.4383 65.2639 29.7072 65.0842C29.9761 64.9045 30.2923 64.8086 30.6157 64.8086C30.8306 64.8079 31.0436 64.8497 31.2423 64.9316C31.441 65.0135 31.6216 65.1339 31.7736 65.2859C31.9256 65.4379 32.046 65.6184 32.1279 65.8172C32.2098 66.0159 32.2516 66.2289 32.2509 66.4438Z" fill="white"/>
<path d="M35.6374 68.0737C36.5374 68.0737 37.267 67.3441 37.267 66.4441C37.267 65.5441 36.5374 64.8145 35.6374 64.8145C34.7374 64.8145 34.0078 65.5441 34.0078 66.4441C34.0078 67.3441 34.7374 68.0737 35.6374 68.0737Z" fill="white"/>
<path d="M40.655 68.0737C41.555 68.0737 42.2846 67.3441 42.2846 66.4441C42.2846 65.5441 41.555 64.8145 40.655 64.8145C39.755 64.8145 39.0254 65.5441 39.0254 66.4441C39.0254 67.3441 39.755 68.0737 40.655 68.0737Z" fill="white"/>
<path d="M48.1599 84.1463H37.9735C37.6765 84.1463 37.3916 84.0283 37.1816 83.8182C36.9715 83.6082 36.8535 83.3233 36.8535 83.0263C36.8535 82.7292 36.9715 82.4443 37.1816 82.2343C37.3916 82.0242 37.6765 81.9062 37.9735 81.9062H48.1599C48.457 81.9062 48.7418 82.0242 48.9519 82.2343C49.1619 82.4443 49.2799 82.7292 49.2799 83.0263C49.2799 83.3233 49.1619 83.6082 48.9519 83.8182C48.7418 84.0283 48.457 84.1463 48.1599 84.1463Z" fill="#263238"/>
<path d="M48.1599 89.9295H37.9735C37.6765 89.9295 37.3916 89.8115 37.1816 89.6014C36.9715 89.3914 36.8535 89.1065 36.8535 88.8095C36.8535 88.5124 36.9715 88.2275 37.1816 88.0175C37.3916 87.8075 37.6765 87.6895 37.9735 87.6895H48.1599C48.457 87.6895 48.7418 87.8075 48.9519 88.0175C49.1619 88.2275 49.2799 88.5124 49.2799 88.8095C49.2799 89.1065 49.1619 89.3914 48.9519 89.6014C48.7418 89.8115 48.457 89.9295 48.1599 89.9295Z" fill="#E0E0E0"/>
<path d="M48.4509 105.773H38.2645C37.9675 105.773 37.6826 105.655 37.4726 105.445C37.2625 105.235 37.1445 104.95 37.1445 104.653C37.1445 104.356 37.2625 104.071 37.4726 103.861C37.6826 103.651 37.9675 103.533 38.2645 103.533H48.4509C48.748 103.533 49.0328 103.651 49.2429 103.861C49.4529 104.071 49.5709 104.356 49.5709 104.653C49.5709 104.95 49.4529 105.235 49.2429 105.445C49.0328 105.655 48.748 105.773 48.4509 105.773Z" fill="#E0E0E0"/>
<path d="M48.1599 95.906H37.9735C37.6765 95.906 37.3916 95.788 37.1816 95.578C36.9715 95.3679 36.8535 95.0831 36.8535 94.786C36.8535 94.489 36.9715 94.2041 37.1816 93.9941C37.3916 93.784 37.6765 93.666 37.9735 93.666H48.1599C48.457 93.666 48.7418 93.784 48.9519 93.9941C49.1619 94.2041 49.2799 94.489 49.2799 94.786C49.2799 95.0831 49.1619 95.3679 48.9519 95.578C48.7418 95.788 48.457 95.906 48.1599 95.906Z" fill="#407BFF"/>
<path d="M48.1599 129.236H37.9735C37.6765 129.236 37.3916 129.118 37.1816 128.908C36.9715 128.698 36.8535 128.413 36.8535 128.116C36.8535 127.819 36.9715 127.534 37.1816 127.324C37.3916 127.114 37.6765 126.996 37.9735 126.996H48.1599C48.457 126.996 48.7418 127.114 48.9519 127.324C49.1619 127.534 49.2799 127.819 49.2799 128.116C49.2799 128.413 49.1619 128.698 48.9519 128.908C48.7418 129.118 48.457 129.236 48.1599 129.236Z" fill="#407BFF"/>
<path d="M64.4724 84.1463H54.286C53.989 84.1463 53.7041 84.0283 53.4941 83.8182C53.284 83.6082 53.166 83.3233 53.166 83.0263C53.166 82.7292 53.284 82.4443 53.4941 82.2343C53.7041 82.0242 53.989 81.9062 54.286 81.9062H64.4724C64.7695 81.9062 65.0543 82.0242 65.2644 82.2343C65.4744 82.4443 65.5924 82.7292 65.5924 83.0263C65.5924 83.3233 65.4744 83.6082 65.2644 83.8182C65.0543 84.0283 64.7695 84.1463 64.4724 84.1463Z" fill="#455A64"/>
<path d="M75.4989 89.9295H54.2188C54.0788 89.923 53.9414 89.8888 53.8147 89.8289C53.688 89.7689 53.5745 89.6844 53.4807 89.5802C53.3869 89.476 53.3148 89.3542 53.2684 89.2219C53.2221 89.0896 53.2025 88.9494 53.2108 88.8095C53.2025 88.6695 53.2221 88.5293 53.2684 88.397C53.3148 88.2647 53.3869 88.1429 53.4807 88.0387C53.5745 87.9345 53.688 87.85 53.8147 87.79C53.9414 87.7301 54.0788 87.6959 54.2188 87.6895H75.5268C75.6669 87.6959 75.8043 87.7301 75.931 87.79C76.0577 87.85 76.1712 87.9345 76.265 88.0387C76.3588 88.1429 76.4309 88.2647 76.4773 88.397C76.5236 88.5293 76.5432 88.6695 76.5348 88.8095C76.5432 88.9517 76.5227 89.0941 76.4746 89.2282C76.4266 89.3623 76.352 89.4854 76.2552 89.59C76.1585 89.6945 76.0416 89.7785 75.9117 89.8368C75.7817 89.8952 75.6413 89.9267 75.4989 89.9295Z" fill="#263238"/>
<path d="M74.9224 95.906H53.4744C53.332 95.9024 53.1917 95.8705 53.0618 95.8119C52.9319 95.7534 52.815 95.6695 52.718 95.5652C52.621 95.4608 52.5458 95.3382 52.4968 95.2044C52.4478 95.0706 52.4261 94.9283 52.4328 94.786C52.4261 94.6437 52.4478 94.5015 52.4968 94.3677C52.5458 94.2339 52.621 94.1112 52.718 94.0069C52.815 93.9025 52.9319 93.8186 53.0618 93.7601C53.1917 93.7016 53.332 93.6696 53.4744 93.666H74.9224C75.0649 93.6696 75.2052 93.7016 75.3351 93.7601C75.465 93.8186 75.5819 93.9025 75.6789 94.0069C75.7759 94.1112 75.8511 94.2339 75.9001 94.3677C75.9491 94.5015 75.9708 94.6437 75.964 94.786C75.9708 94.9283 75.9491 95.0706 75.9001 95.2044C75.8511 95.3382 75.7759 95.4608 75.6789 95.5652C75.5819 95.6695 75.465 95.7534 75.3351 95.8119C75.2052 95.8705 75.0649 95.9024 74.9224 95.906Z" fill="#E0E0E0"/>
<path d="M59.4264 100.738H37.9784C37.8359 100.734 37.6956 100.702 37.5657 100.644C37.4358 100.585 37.3189 100.502 37.2219 100.397C37.1249 100.293 37.0497 100.17 37.0007 100.036C36.9517 99.9026 36.93 99.7604 36.9368 99.618C36.93 99.4757 36.9517 99.3335 37.0007 99.1997C37.0497 99.0659 37.1249 98.9432 37.2219 98.8389C37.3189 98.7346 37.4358 98.6507 37.5657 98.5921C37.6956 98.5336 37.8359 98.5016 37.9784 98.498H59.4264C59.5688 98.5016 59.7091 98.5336 59.839 98.5921C59.9689 98.6507 60.0858 98.7346 60.1828 98.8389C60.2798 98.9432 60.355 99.0659 60.404 99.1997C60.453 99.3335 60.4747 99.4757 60.468 99.618C60.4747 99.7604 60.453 99.9026 60.404 100.036C60.355 100.17 60.2798 100.293 60.1828 100.397C60.0858 100.502 59.9689 100.585 59.839 100.644C59.7091 100.702 59.5688 100.734 59.4264 100.738Z" fill="#E0E0E0"/>
<path d="M32.9841 83.0419C32.9841 83.2634 32.9185 83.4799 32.7954 83.6641C32.6723 83.8483 32.4974 83.9919 32.2927 84.0766C32.0881 84.1614 31.8629 84.1836 31.6456 84.1404C31.4284 84.0971 31.2288 83.9905 31.0722 83.8338C30.9155 83.6772 30.8089 83.4776 30.7657 83.2604C30.7224 83.0431 30.7446 82.8179 30.8294 82.6133C30.9142 82.4086 31.0577 82.2337 31.2419 82.1106C31.4261 81.9876 31.6426 81.9219 31.8641 81.9219C32.1612 81.9219 32.4461 82.0399 32.6561 82.2499C32.8661 82.46 32.9841 82.7448 32.9841 83.0419Z" fill="#455A64"/>
<path d="M32.9841 77.5087C32.9841 77.7302 32.9185 77.9467 32.7954 78.1309C32.6723 78.3151 32.4974 78.4586 32.2927 78.5434C32.0881 78.6282 31.8629 78.6504 31.6456 78.6071C31.4284 78.5639 31.2288 78.4573 31.0722 78.3006C30.9155 78.144 30.8089 77.9444 30.7657 77.7272C30.7224 77.5099 30.7446 77.2847 30.8294 77.0801C30.9142 76.8754 31.0577 76.7005 31.2419 76.5774C31.4261 76.4544 31.6426 76.3887 31.8641 76.3887C32.1612 76.3887 32.4461 76.5067 32.6561 76.7167C32.8661 76.9268 32.9841 77.2116 32.9841 77.5087Z" fill="#455A64"/>
<path d="M32.9841 88.8095C32.9841 89.031 32.9185 89.2475 32.7954 89.4317C32.6723 89.6159 32.4974 89.7594 32.2927 89.8442C32.0881 89.929 31.8629 89.9512 31.6456 89.9079C31.4284 89.8647 31.2288 89.758 31.0722 89.6014C30.9155 89.4448 30.8089 89.2452 30.7657 89.028C30.7224 88.8107 30.7446 88.5855 30.8294 88.3808C30.9142 88.1762 31.0577 88.0013 31.2419 87.8782C31.4261 87.7551 31.6426 87.6895 31.8641 87.6895C32.1612 87.6895 32.4461 87.8075 32.6561 88.0175C32.8661 88.2275 32.9841 88.5124 32.9841 88.8095Z" fill="#455A64"/>
<path d="M32.9841 94.8016C32.9841 95.0232 32.9185 95.2397 32.7954 95.4239C32.6723 95.6081 32.4974 95.7516 32.2927 95.8364C32.0881 95.9212 31.8629 95.9433 31.6456 95.9001C31.4284 95.8569 31.2288 95.7502 31.0722 95.5936C30.9155 95.437 30.8089 95.2374 30.7657 95.0201C30.7224 94.8029 30.7446 94.5777 30.8294 94.373C30.9142 94.1684 31.0577 93.9935 31.2419 93.8704C31.4261 93.7473 31.6426 93.6816 31.8641 93.6816C32.1612 93.6816 32.4461 93.7996 32.6561 94.0097C32.8661 94.2197 32.9841 94.5046 32.9841 94.8016Z" fill="#455A64"/>
<path d="M48.4509 121.945H38.2645C37.9675 121.945 37.6826 121.827 37.4726 121.617C37.2625 121.407 37.1445 121.122 37.1445 120.825C37.1445 120.528 37.2625 120.243 37.4726 120.033C37.6826 119.823 37.9675 119.705 38.2645 119.705H48.4509C48.748 119.705 49.0328 119.823 49.2429 120.033C49.4529 120.243 49.5709 120.528 49.5709 120.825C49.5709 121.122 49.4529 121.407 49.2429 121.617C49.0328 121.827 48.748 121.945 48.4509 121.945Z" fill="#E0E0E0"/>
<path d="M48.1599 112.078H37.9735C37.6765 112.078 37.3916 111.96 37.1816 111.75C36.9715 111.54 36.8535 111.255 36.8535 110.958C36.8535 110.661 36.9715 110.376 37.1816 110.166C37.3916 109.956 37.6765 109.838 37.9735 109.838H48.1599C48.457 109.838 48.7418 109.956 48.9519 110.166C49.1619 110.376 49.2799 110.661 49.2799 110.958C49.2799 111.255 49.1619 111.54 48.9519 111.75C48.7418 111.96 48.457 112.078 48.1599 112.078Z" fill="#407BFF"/>
<path d="M74.9224 112.078H53.4744C53.332 112.074 53.1917 112.042 53.0618 111.984C52.9319 111.925 52.815 111.841 52.718 111.737C52.621 111.633 52.5458 111.51 52.4968 111.376C52.4478 111.242 52.4261 111.1 52.4328 110.958C52.4261 110.816 52.4478 110.673 52.4968 110.54C52.5458 110.406 52.621 110.283 52.718 110.179C52.815 110.074 52.9319 109.991 53.0618 109.932C53.1917 109.873 53.332 109.841 53.4744 109.838H74.9224C75.0649 109.841 75.2052 109.873 75.3351 109.932C75.465 109.991 75.5819 110.074 75.6789 110.179C75.7759 110.283 75.8511 110.406 75.9001 110.54C75.9491 110.673 75.9708 110.816 75.964 110.958C75.9708 111.1 75.9491 111.242 75.9001 111.376C75.8511 111.51 75.7759 111.633 75.6789 111.737C75.5819 111.841 75.465 111.925 75.3351 111.984C75.2052 112.042 75.0649 112.074 74.9224 112.078Z" fill="#E0E0E0"/>
<path d="M59.4264 116.912H37.9784C37.8359 116.908 37.6956 116.876 37.5657 116.818C37.4358 116.759 37.3189 116.675 37.2219 116.571C37.1249 116.467 37.0497 116.344 37.0007 116.21C36.9517 116.076 36.93 115.934 36.9368 115.792C36.93 115.65 36.9517 115.507 37.0007 115.374C37.0497 115.24 37.1249 115.117 37.2219 115.013C37.3189 114.908 37.4358 114.824 37.5657 114.766C37.6956 114.707 37.8359 114.675 37.9784 114.672H59.4264C59.5688 114.675 59.7091 114.707 59.839 114.766C59.9689 114.824 60.0858 114.908 60.1828 115.013C60.2798 115.117 60.355 115.24 60.404 115.374C60.453 115.507 60.4747 115.65 60.468 115.792C60.4747 115.934 60.453 116.076 60.404 116.21C60.355 116.344 60.2798 116.467 60.1828 116.571C60.0858 116.675 59.9689 116.759 59.839 116.818C59.7091 116.876 59.5688 116.908 59.4264 116.912Z" fill="#E0E0E0"/>
<path d="M32.9841 110.975C32.9841 111.197 32.9185 111.414 32.7954 111.598C32.6723 111.782 32.4974 111.925 32.2927 112.01C32.0881 112.095 31.8629 112.117 31.6456 112.074C31.4284 112.031 31.2288 111.924 31.0722 111.767C30.9155 111.611 30.8089 111.411 30.7657 111.194C30.7224 110.977 30.7446 110.752 30.8294 110.547C30.9142 110.342 31.0577 110.167 31.2419 110.044C31.4261 109.921 31.6426 109.855 31.8641 109.855C32.1612 109.855 32.4461 109.973 32.6561 110.184C32.8661 110.394 32.9841 110.678 32.9841 110.975Z" fill="#455A64"/>
<path d="M43.842 76.7148H37.4692C37.1723 76.7148 36.9316 76.9555 36.9316 77.2524V78.3108C36.9316 78.6077 37.1723 78.8484 37.4692 78.8484H43.842C44.139 78.8484 44.3796 78.6077 44.3796 78.3108V77.2524C44.3796 76.9555 44.139 76.7148 43.842 76.7148Z" fill="#455A64"/>
<path d="M48.1599 135.123H37.9735C37.6765 135.123 37.3916 135.005 37.1816 134.795C36.9715 134.585 36.8535 134.3 36.8535 134.003C36.8535 133.706 36.9715 133.421 37.1816 133.211C37.3916 133.001 37.6765 132.883 37.9735 132.883H48.1599C48.457 132.883 48.7418 133.001 48.9519 133.211C49.1619 133.421 49.2799 133.706 49.2799 134.003C49.2799 134.3 49.1619 134.585 48.9519 134.795C48.7418 135.005 48.457 135.123 48.1599 135.123Z" fill="#263238"/>
<path d="M64.4724 135.123H54.286C53.989 135.123 53.7041 135.005 53.4941 134.795C53.284 134.585 53.166 134.3 53.166 134.003C53.166 133.706 53.284 133.421 53.4941 133.211C53.7041 133.001 53.989 132.883 54.286 132.883H64.4724C64.7695 132.883 65.0543 133.001 65.2644 133.211C65.4744 133.421 65.5924 133.706 65.5924 134.003C65.5924 134.3 65.4744 134.585 65.2644 134.795C65.0543 135.005 64.7695 135.123 64.4724 135.123Z" fill="#455A64"/>
<path d="M32.9841 134.018C32.9841 134.24 32.9185 134.456 32.7954 134.641C32.6723 134.825 32.4974 134.968 32.2927 135.053C32.0881 135.138 31.8629 135.16 31.6456 135.117C31.4284 135.074 31.2288 134.967 31.0722 134.81C30.9155 134.654 30.8089 134.454 30.7657 134.237C30.7224 134.02 30.7446 133.794 30.8294 133.59C30.9142 133.385 31.0577 133.21 31.2419 133.087C31.4261 132.964 31.6426 132.898 31.8641 132.898C32.1612 132.898 32.4461 133.016 32.6561 133.226C32.8661 133.437 32.9841 133.721 32.9841 134.018Z" fill="#455A64"/>
<path d="M32.9841 139.339C32.9841 139.56 32.9185 139.777 32.7954 139.961C32.6723 140.145 32.4974 140.289 32.2927 140.373C32.0881 140.458 31.8629 140.48 31.6456 140.437C31.4284 140.394 31.2288 140.287 31.0722 140.131C30.9155 139.974 30.8089 139.775 30.7657 139.557C30.7224 139.34 30.7446 139.115 30.8294 138.91C30.9142 138.705 31.0577 138.531 31.2419 138.407C31.4261 138.284 31.6426 138.219 31.8641 138.219C32.1612 138.219 32.4461 138.337 32.6561 138.547C32.8661 138.757 32.9841 139.042 32.9841 139.339Z" fill="#455A64"/>
<path d="M43.842 138.543H37.4692C37.1723 138.543 36.9316 138.784 36.9316 139.081V140.139C36.9316 140.436 37.1723 140.677 37.4692 140.677H43.842C44.139 140.677 44.3796 140.436 44.3796 140.139V139.081C44.3796 138.784 44.139 138.543 43.842 138.543Z" fill="#455A64"/>
<path d="M184.078 136.051H83.082V200.294H184.078V136.051Z" fill="white"/>
<path d="M101.271 136.051H83.082V200.294H101.271V136.051Z" fill="#EBEBEB"/>
<path d="M91.0772 142.984C91.1716 142.927 91.2734 142.884 91.3796 142.855L91.4412 142.553H91.9452L92.0236 142.85C92.1293 142.877 92.231 142.919 92.326 142.973L92.5836 142.805L92.9476 143.152L92.7908 143.415C92.8475 143.51 92.8908 143.611 92.9196 143.718L93.222 143.779V144.289L92.9252 144.362C92.9014 144.469 92.8618 144.573 92.8076 144.67L92.9756 144.922L92.6228 145.286L92.3596 145.129C92.2654 145.187 92.1637 145.232 92.0572 145.263L91.9956 145.56H91.486L91.4132 145.263C91.3076 145.235 91.2059 145.194 91.1108 145.14L90.8532 145.308L90.4892 144.955L90.646 144.692C90.5894 144.598 90.5461 144.496 90.5172 144.39L90.2148 144.328V143.824L90.5116 143.751C90.5366 143.644 90.5762 143.54 90.6292 143.443L90.4612 143.186L90.814 142.822L91.0772 142.978V142.984ZM91.346 143.662C91.2484 143.765 91.194 143.903 91.194 144.045C91.194 144.188 91.2484 144.325 91.346 144.429C91.4502 144.528 91.5886 144.583 91.7324 144.583C91.8763 144.583 92.0147 144.528 92.1188 144.429C92.1826 144.32 92.2081 144.194 92.191 144.069C92.174 143.944 92.1155 143.829 92.0249 143.742C91.9343 143.654 91.817 143.6 91.6918 143.588C91.5666 143.575 91.4409 143.605 91.3348 143.673L91.346 143.662Z" fill="#E0E0E0"/>
<path d="M95.2773 157.18H87.3589C87.2518 157.18 87.1457 157.159 87.0469 157.118C86.948 157.077 86.8582 157.017 86.7827 156.941C86.7073 156.865 86.6476 156.774 86.6071 156.675C86.5666 156.576 86.5462 156.47 86.5469 156.363C86.5469 156.147 86.6324 155.941 86.7847 155.789C86.937 155.636 87.1435 155.551 87.3589 155.551H95.2885C95.3956 155.55 95.5018 155.571 95.6009 155.611C95.7001 155.651 95.7903 155.711 95.8663 155.787C95.9423 155.862 96.0026 155.952 96.0438 156.051C96.0849 156.15 96.1061 156.256 96.1061 156.363C96.1061 156.471 96.0846 156.578 96.0428 156.678C96.001 156.778 95.9398 156.869 95.8627 156.945C95.7856 157.021 95.6941 157.081 95.5936 157.121C95.4931 157.162 95.3856 157.182 95.2773 157.18Z" fill="#E0E0E0"/>
<path d="M95.2773 153.03H87.3589C87.143 153.029 86.9365 152.942 86.7844 152.789C86.6322 152.635 86.5469 152.428 86.5469 152.212C86.5469 151.997 86.6324 151.791 86.7847 151.638C86.937 151.486 87.1435 151.4 87.3589 151.4H95.2885C95.3956 151.4 95.5018 151.42 95.6009 151.461C95.7001 151.501 95.7903 151.561 95.8663 151.636C95.9423 151.712 96.0026 151.801 96.0437 151.9C96.0849 151.999 96.1061 152.105 96.1061 152.212C96.1061 152.321 96.0846 152.428 96.0428 152.528C96.001 152.628 95.9398 152.718 95.8627 152.795C95.7855 152.871 95.6941 152.931 95.5936 152.971C95.4931 153.011 95.3856 153.031 95.2773 153.03Z" fill="#E0E0E0"/>
<path d="M95.2773 149.229H87.3589C87.1435 149.229 86.937 149.144 86.7847 148.991C86.6324 148.839 86.5469 148.633 86.5469 148.417C86.5469 148.201 86.6322 147.994 86.7844 147.841C86.9365 147.688 87.143 147.601 87.3589 147.6H95.2885C95.5005 147.602 95.7031 147.688 95.8536 147.837C96.004 147.986 96.0905 148.188 96.0949 148.4C96.0971 148.509 96.0776 148.617 96.0374 148.718C95.9973 148.818 95.9373 148.91 95.8611 148.987C95.7849 149.065 95.694 149.126 95.5937 149.167C95.4934 149.209 95.3858 149.23 95.2773 149.229Z" fill="#E0E0E0"/>
<path d="M116.585 145.544H109.07C108.854 145.544 108.648 145.458 108.496 145.306C108.343 145.154 108.258 144.947 108.258 144.732C108.257 144.625 108.278 144.518 108.318 144.419C108.358 144.32 108.418 144.23 108.494 144.154C108.569 144.078 108.659 144.018 108.758 143.976C108.857 143.935 108.963 143.914 109.07 143.914H116.585C116.692 143.914 116.798 143.935 116.897 143.976C116.996 144.018 117.086 144.078 117.161 144.154C117.237 144.23 117.296 144.32 117.337 144.419C117.377 144.518 117.398 144.625 117.397 144.732C117.397 144.947 117.311 145.154 117.159 145.306C117.007 145.458 116.8 145.544 116.585 145.544Z" fill="#263238"/>
<path d="M116.585 149.811H109.07C108.963 149.811 108.857 149.79 108.758 149.749C108.659 149.708 108.569 149.647 108.494 149.571C108.418 149.495 108.358 149.405 108.318 149.306C108.278 149.207 108.257 149.101 108.258 148.994C108.258 148.778 108.343 148.572 108.496 148.419C108.648 148.267 108.854 148.182 109.07 148.182H116.585C116.8 148.182 117.007 148.267 117.159 148.419C117.311 148.572 117.397 148.778 117.397 148.994C117.398 149.101 117.377 149.207 117.337 149.306C117.296 149.405 117.237 149.495 117.161 149.571C117.086 149.647 116.996 149.708 116.897 149.749C116.798 149.79 116.692 149.811 116.585 149.811Z" fill="#E0E0E0"/>
<path d="M116.585 154.217H109.07C108.854 154.217 108.648 154.132 108.496 153.98C108.343 153.827 108.258 153.621 108.258 153.405C108.257 153.298 108.278 153.192 108.318 153.093C108.358 152.994 108.418 152.904 108.494 152.828C108.569 152.752 108.659 152.691 108.758 152.65C108.857 152.609 108.963 152.588 109.07 152.588H116.585C116.692 152.588 116.798 152.609 116.897 152.65C116.996 152.691 117.086 152.752 117.161 152.828C117.237 152.904 117.296 152.994 117.337 153.093C117.377 153.192 117.398 153.298 117.397 153.405C117.397 153.621 117.311 153.827 117.159 153.98C117.007 154.132 116.8 154.217 116.585 154.217Z" fill="#407BFF"/>
<path d="M113.382 162.741H109.07C108.963 162.741 108.857 162.72 108.758 162.679C108.659 162.637 108.569 162.577 108.494 162.501C108.418 162.425 108.358 162.335 108.318 162.236C108.278 162.137 108.257 162.03 108.258 161.923C108.258 161.708 108.343 161.501 108.496 161.349C108.648 161.197 108.854 161.111 109.07 161.111H113.382C113.597 161.111 113.804 161.197 113.956 161.349C114.108 161.501 114.194 161.708 114.194 161.923C114.195 162.03 114.174 162.137 114.134 162.236C114.093 162.335 114.033 162.425 113.958 162.501C113.883 162.577 113.793 162.637 113.694 162.679C113.595 162.72 113.489 162.741 113.382 162.741Z" fill="#263238"/>
<path d="M113.382 167.159H109.07C108.963 167.159 108.857 167.138 108.758 167.097C108.659 167.055 108.569 166.995 108.494 166.919C108.418 166.843 108.358 166.753 108.318 166.654C108.278 166.555 108.257 166.448 108.258 166.341C108.258 166.126 108.343 165.919 108.496 165.767C108.648 165.615 108.854 165.529 109.07 165.529H113.382C113.597 165.529 113.804 165.615 113.956 165.767C114.108 165.919 114.194 166.126 114.194 166.341C114.195 166.448 114.174 166.555 114.134 166.654C114.093 166.753 114.033 166.843 113.958 166.919C113.883 166.995 113.793 167.055 113.694 167.097C113.595 167.138 113.489 167.159 113.382 167.159Z" fill="#263238"/>
<path d="M126.178 167.159H118.282C118.066 167.159 117.858 167.073 117.704 166.919C117.551 166.766 117.465 166.558 117.465 166.341C117.466 166.125 117.553 165.919 117.706 165.767C117.859 165.615 118.067 165.529 118.282 165.529H126.178C126.286 165.529 126.392 165.549 126.491 165.59C126.59 165.63 126.68 165.69 126.756 165.765C126.832 165.841 126.893 165.93 126.934 166.029C126.975 166.128 126.996 166.234 126.996 166.341C126.996 166.558 126.91 166.766 126.757 166.919C126.603 167.073 126.395 167.159 126.178 167.159Z" fill="#E0E0E0"/>
<path d="M121.716 171.085H113.814C113.599 171.085 113.392 170.999 113.24 170.847C113.088 170.695 113.002 170.488 113.002 170.273C113.002 170.057 113.087 169.85 113.239 169.697C113.392 169.543 113.598 169.457 113.814 169.455H121.716C121.931 169.457 122.138 169.543 122.29 169.697C122.442 169.85 122.528 170.057 122.528 170.273C122.528 170.488 122.442 170.695 122.29 170.847C122.137 170.999 121.931 171.085 121.716 171.085Z" fill="#407BFF"/>
<path d="M123.463 173.941H118.037C117.731 173.941 117.482 174.19 117.482 174.496V175.017C117.482 175.323 117.731 175.571 118.037 175.571H123.463C123.769 175.571 124.018 175.323 124.018 175.017V174.496C124.018 174.19 123.769 173.941 123.463 173.941Z" fill="#407BFF"/>
<path d="M123.2 184.352H118.294C118.187 184.352 118.08 184.331 117.981 184.29C117.882 184.249 117.792 184.189 117.716 184.113C117.64 184.037 117.58 183.947 117.539 183.848C117.498 183.748 117.477 183.642 117.477 183.535C117.477 183.428 117.498 183.322 117.539 183.223C117.58 183.124 117.64 183.034 117.716 182.959C117.792 182.883 117.883 182.823 117.982 182.783C118.081 182.742 118.187 182.722 118.294 182.723H123.2C123.415 182.723 123.622 182.808 123.774 182.96C123.926 183.113 124.012 183.319 124.012 183.535C124.013 183.642 123.992 183.748 123.952 183.847C123.911 183.946 123.851 184.036 123.776 184.112C123.7 184.188 123.611 184.249 123.512 184.29C123.413 184.331 123.307 184.352 123.2 184.352Z" fill="#407BFF"/>
<path d="M123.2 193.626H118.294C118.187 193.626 118.081 193.606 117.982 193.565C117.883 193.525 117.792 193.465 117.716 193.39C117.64 193.314 117.58 193.225 117.539 193.126C117.498 193.027 117.477 192.921 117.477 192.814C117.477 192.706 117.498 192.6 117.539 192.501C117.58 192.402 117.64 192.311 117.716 192.236C117.792 192.16 117.882 192.099 117.981 192.058C118.08 192.017 118.187 191.996 118.294 191.996H123.2C123.307 191.996 123.413 192.017 123.512 192.058C123.611 192.1 123.7 192.16 123.776 192.236C123.851 192.312 123.911 192.402 123.952 192.501C123.992 192.6 124.013 192.707 124.012 192.814C124.012 193.029 123.926 193.236 123.774 193.388C123.622 193.54 123.415 193.626 123.2 193.626Z" fill="#407BFF"/>
<path d="M135.267 193.626H126.665C126.558 193.626 126.452 193.606 126.353 193.565C126.254 193.525 126.163 193.465 126.087 193.39C126.011 193.314 125.951 193.225 125.91 193.126C125.869 193.027 125.848 192.921 125.848 192.814C125.848 192.597 125.934 192.389 126.087 192.236C126.24 192.082 126.448 191.996 126.665 191.996H135.267C135.374 191.996 135.48 192.017 135.579 192.058C135.678 192.1 135.768 192.16 135.843 192.236C135.918 192.312 135.978 192.402 136.019 192.501C136.059 192.6 136.08 192.707 136.079 192.814C136.079 193.029 135.993 193.236 135.841 193.388C135.689 193.54 135.482 193.626 135.267 193.626Z" fill="#455A64"/>
<path d="M141.288 193.626H140.05C139.943 193.626 139.837 193.606 139.738 193.565C139.638 193.525 139.548 193.465 139.472 193.39C139.396 193.314 139.336 193.225 139.295 193.126C139.254 193.027 139.232 192.921 139.232 192.814C139.232 192.706 139.254 192.6 139.295 192.501C139.336 192.402 139.396 192.311 139.472 192.236C139.548 192.16 139.638 192.099 139.737 192.058C139.836 192.017 139.943 191.996 140.05 191.996H141.288C141.504 191.996 141.712 192.082 141.866 192.236C142.019 192.389 142.105 192.597 142.105 192.814C142.104 193.03 142.017 193.236 141.864 193.388C141.711 193.54 141.503 193.626 141.288 193.626Z" fill="#E0E0E0"/>
<path d="M134.752 184.352H127.472C127.255 184.352 127.047 184.266 126.894 184.113C126.74 183.959 126.654 183.752 126.654 183.535C126.654 183.428 126.675 183.322 126.717 183.223C126.758 183.124 126.818 183.034 126.894 182.959C126.97 182.883 127.06 182.823 127.159 182.783C127.259 182.742 127.365 182.722 127.472 182.723H134.752C134.967 182.723 135.174 182.808 135.326 182.96C135.478 183.113 135.564 183.319 135.564 183.535C135.565 183.642 135.544 183.748 135.504 183.847C135.463 183.946 135.404 184.036 135.328 184.112C135.253 184.188 135.163 184.249 135.064 184.29C134.965 184.331 134.859 184.352 134.752 184.352Z" fill="#E0E0E0"/>
<path d="M150.696 188.423H127.484C127.267 188.423 127.059 188.336 126.905 188.183C126.752 188.03 126.666 187.822 126.666 187.605C126.666 187.498 126.687 187.392 126.728 187.293C126.77 187.194 126.83 187.104 126.906 187.029C126.982 186.953 127.072 186.894 127.171 186.853C127.27 186.813 127.377 186.792 127.484 186.793H150.696C150.911 186.793 151.118 186.879 151.27 187.031C151.422 187.183 151.508 187.39 151.508 187.605C151.508 187.712 151.488 187.818 151.447 187.917C151.407 188.017 151.347 188.107 151.272 188.183C151.196 188.259 151.107 188.319 151.008 188.36C150.909 188.401 150.803 188.423 150.696 188.423Z" fill="#E0E0E0"/>
<path d="M153.372 184.352H138.554C138.337 184.352 138.129 184.266 137.976 184.113C137.822 183.959 137.736 183.752 137.736 183.535C137.738 183.319 137.825 183.112 137.978 182.96C138.131 182.808 138.338 182.723 138.554 182.723H153.372C153.479 182.722 153.585 182.742 153.684 182.783C153.783 182.823 153.873 182.883 153.949 182.959C154.025 183.034 154.086 183.124 154.127 183.223C154.168 183.322 154.189 183.428 154.189 183.535C154.189 183.752 154.103 183.959 153.95 184.113C153.796 184.266 153.588 184.352 153.372 184.352Z" fill="#455A64"/>
<path d="M133.363 173.941H126.705C126.399 173.941 126.15 174.19 126.15 174.496V175.017C126.15 175.323 126.399 175.571 126.705 175.571H133.363C133.669 175.571 133.918 175.323 133.918 175.017V174.496C133.918 174.19 133.669 173.941 133.363 173.941Z" fill="#455A64"/>
<path d="M138.678 173.941H136.634C136.328 173.941 136.08 174.19 136.08 174.496V175.017C136.08 175.323 136.328 175.571 136.634 175.571H138.678C138.985 175.571 139.233 175.323 139.233 175.017V174.496C139.233 174.19 138.985 173.941 138.678 173.941Z" fill="#E0E0E0"/>
<path d="M150.388 173.941H142.189C141.883 173.941 141.635 174.19 141.635 174.496V175.017C141.635 175.323 141.883 175.571 142.189 175.571H150.388C150.694 175.571 150.942 175.323 150.942 175.017V174.496C150.942 174.19 150.694 173.941 150.388 173.941Z" fill="#E0E0E0"/>
<path d="M127.064 171.085H125.306C125.199 171.085 125.093 171.065 124.993 171.024C124.894 170.984 124.804 170.924 124.728 170.849C124.652 170.773 124.592 170.684 124.551 170.585C124.509 170.486 124.488 170.38 124.488 170.273C124.488 170.056 124.574 169.848 124.728 169.695C124.881 169.541 125.089 169.455 125.306 169.455H127.064C127.28 169.457 127.487 169.543 127.639 169.697C127.791 169.85 127.876 170.057 127.876 170.273C127.876 170.488 127.791 170.695 127.638 170.847C127.486 170.999 127.28 171.085 127.064 171.085Z" fill="#263238"/>
<path d="M141.971 171.085H130.771C130.556 171.085 130.349 170.999 130.197 170.847C130.045 170.695 129.959 170.488 129.959 170.273C129.959 170.057 130.044 169.85 130.196 169.697C130.349 169.543 130.555 169.457 130.771 169.455H141.971C142.187 169.457 142.394 169.543 142.547 169.696C142.701 169.849 142.787 170.056 142.789 170.273C142.787 170.489 142.7 170.695 142.547 170.847C142.394 170.999 142.187 171.085 141.971 171.085Z" fill="#E0E0E0"/>
<path d="M128.615 145.544H121.105C120.89 145.544 120.683 145.458 120.531 145.306C120.379 145.154 120.293 144.947 120.293 144.732C120.292 144.625 120.313 144.518 120.353 144.419C120.394 144.32 120.453 144.23 120.529 144.154C120.604 144.078 120.694 144.018 120.793 143.976C120.892 143.935 120.998 143.914 121.105 143.914H128.615C128.831 143.914 129.039 144 129.193 144.154C129.346 144.307 129.432 144.515 129.432 144.732C129.432 144.839 129.411 144.945 129.37 145.044C129.329 145.143 129.268 145.232 129.192 145.308C129.116 145.383 129.026 145.443 128.927 145.483C128.828 145.524 128.722 145.544 128.615 145.544Z" fill="#455A64"/>
<path d="M138.319 149.811H121.105C120.998 149.811 120.892 149.79 120.793 149.749C120.694 149.708 120.604 149.647 120.529 149.571C120.453 149.495 120.394 149.405 120.353 149.306C120.313 149.207 120.292 149.101 120.293 148.994C120.293 148.778 120.379 148.572 120.531 148.419C120.683 148.267 120.89 148.182 121.105 148.182H138.319C138.426 148.181 138.533 148.201 138.632 148.242C138.731 148.282 138.821 148.342 138.897 148.418C138.973 148.493 139.033 148.583 139.075 148.682C139.116 148.781 139.137 148.887 139.137 148.994C139.137 149.211 139.051 149.418 138.898 149.572C138.744 149.725 138.536 149.811 138.319 149.811Z" fill="#263238"/>
<path d="M156.799 154.217H121.105C120.89 154.217 120.683 154.132 120.531 153.98C120.379 153.827 120.293 153.621 120.293 153.405C120.292 153.298 120.313 153.192 120.353 153.093C120.394 152.994 120.453 152.904 120.529 152.828C120.604 152.752 120.694 152.691 120.793 152.65C120.892 152.609 120.998 152.588 121.105 152.588H156.799C156.906 152.588 157.013 152.609 157.111 152.65C157.21 152.691 157.3 152.752 157.376 152.828C157.451 152.904 157.511 152.994 157.551 153.093C157.592 153.192 157.612 153.298 157.611 153.405C157.611 153.621 157.526 153.827 157.374 153.98C157.221 154.132 157.015 154.217 156.799 154.217Z" fill="#E0E0E0"/>
<path d="M137.933 157.327H121.105C120.889 157.325 120.683 157.239 120.53 157.085C120.378 156.932 120.293 156.725 120.293 156.509C120.293 156.294 120.379 156.087 120.531 155.935C120.683 155.783 120.89 155.697 121.105 155.697H137.933C138.04 155.697 138.146 155.717 138.245 155.757C138.345 155.798 138.435 155.858 138.511 155.933C138.587 156.009 138.647 156.098 138.688 156.197C138.729 156.296 138.751 156.402 138.751 156.509C138.751 156.726 138.664 156.934 138.511 157.087C138.358 157.241 138.15 157.327 137.933 157.327Z" fill="#E0E0E0"/>
<path d="M134.495 162.741H117.662C117.555 162.741 117.448 162.72 117.35 162.679C117.251 162.637 117.161 162.577 117.085 162.501C117.01 162.425 116.95 162.335 116.91 162.236C116.869 162.137 116.849 162.03 116.85 161.923C116.85 161.708 116.935 161.501 117.087 161.349C117.24 161.197 117.446 161.111 117.662 161.111H134.495C134.711 161.111 134.917 161.197 135.069 161.349C135.222 161.501 135.307 161.708 135.307 161.923C135.308 162.03 135.288 162.137 135.247 162.236C135.207 162.335 135.147 162.425 135.071 162.501C134.996 162.577 134.906 162.637 134.807 162.679C134.708 162.72 134.602 162.741 134.495 162.741Z" fill="#455A64"/>
<path d="M143.919 162.741H138.275C138.058 162.741 137.85 162.655 137.696 162.501C137.543 162.348 137.457 162.14 137.457 161.923C137.457 161.816 137.478 161.71 137.519 161.611C137.561 161.512 137.621 161.423 137.697 161.347C137.773 161.272 137.863 161.212 137.962 161.172C138.061 161.131 138.168 161.111 138.275 161.111H143.919C144.135 161.111 144.342 161.197 144.496 161.349C144.649 161.501 144.736 161.707 144.737 161.923C144.737 162.14 144.651 162.348 144.498 162.501C144.344 162.655 144.136 162.741 143.919 162.741Z" fill="#407BFF"/>
<path d="M158.34 162.714H147.7C147.593 162.714 147.487 162.694 147.388 162.653C147.289 162.613 147.199 162.553 147.123 162.478C147.047 162.402 146.986 162.313 146.945 162.214C146.904 162.115 146.883 162.009 146.883 161.902C146.883 161.685 146.969 161.477 147.122 161.323C147.276 161.17 147.484 161.084 147.7 161.084H158.34C158.448 161.084 158.554 161.105 158.652 161.146C158.751 161.187 158.841 161.248 158.917 161.324C158.992 161.4 159.052 161.49 159.092 161.589C159.133 161.688 159.153 161.794 159.152 161.902C159.152 162.117 159.067 162.323 158.915 162.476C158.762 162.628 158.556 162.714 158.34 162.714Z" fill="#263238"/>
<path d="M172.839 162.714H162.199C161.983 162.714 161.777 162.628 161.625 162.476C161.472 162.323 161.387 162.117 161.387 161.902C161.386 161.794 161.406 161.688 161.447 161.589C161.487 161.49 161.547 161.4 161.623 161.324C161.698 161.248 161.788 161.187 161.887 161.146C161.986 161.105 162.092 161.084 162.199 161.084H172.839C173.056 161.084 173.264 161.17 173.417 161.323C173.57 161.477 173.656 161.685 173.656 161.902C173.656 162.009 173.635 162.115 173.594 162.214C173.553 162.313 173.493 162.402 173.417 162.478C173.341 162.553 173.25 162.613 173.151 162.653C173.052 162.694 172.946 162.714 172.839 162.714Z" fill="#E0E0E0"/>
<path d="M91.8389 161.577H87.3589C87.143 161.575 86.9365 161.489 86.7844 161.335C86.6322 161.182 86.5469 160.975 86.5469 160.759C86.5469 160.544 86.6324 160.337 86.7847 160.185C86.937 160.033 87.1435 159.947 87.3589 159.947H91.8389C92.0542 159.947 92.2608 160.033 92.413 160.185C92.5653 160.337 92.6509 160.544 92.6509 160.759C92.6509 160.975 92.5655 161.182 92.4134 161.335C92.2613 161.489 92.0547 161.575 91.8389 161.577Z" fill="#E0E0E0"/>
<path d="M90.5005 174.759H87.3589C87.2518 174.759 87.1457 174.737 87.0469 174.696C86.948 174.655 86.8582 174.595 86.7827 174.519C86.7073 174.443 86.6476 174.353 86.6071 174.253C86.5666 174.154 86.5462 174.048 86.5469 173.941C86.5469 173.726 86.6324 173.519 86.7847 173.367C86.937 173.214 87.1435 173.129 87.3589 173.129H90.5117C90.7271 173.129 90.9336 173.214 91.0859 173.367C91.2381 173.519 91.3237 173.726 91.3237 173.941C91.3244 174.049 91.3036 174.156 91.2625 174.256C91.2213 174.356 91.1606 174.447 91.0839 174.523C91.0073 174.599 90.9162 174.659 90.816 174.699C90.7158 174.74 90.6085 174.76 90.5005 174.759Z" fill="#E0E0E0"/>
<path d="M96.0949 165.967H87.3589C87.1435 165.967 86.937 165.882 86.7847 165.73C86.6324 165.577 86.5469 165.371 86.5469 165.156C86.5462 165.048 86.5666 164.942 86.6071 164.843C86.6476 164.744 86.7073 164.654 86.7827 164.578C86.8582 164.502 86.948 164.441 87.0469 164.4C87.1457 164.359 87.2518 164.338 87.3589 164.338H96.0949C96.202 164.338 96.308 164.359 96.4069 164.4C96.5058 164.441 96.5956 164.502 96.6711 164.578C96.7465 164.654 96.8062 164.744 96.8467 164.843C96.8872 164.942 96.9076 165.048 96.9069 165.156C96.9069 165.371 96.8213 165.577 96.6691 165.73C96.5168 165.882 96.3103 165.967 96.0949 165.967Z" fill="#E0E0E0"/>
<path d="M94.5605 170.362H87.3589C87.1435 170.362 86.937 170.276 86.7847 170.124C86.6324 169.972 86.5469 169.765 86.5469 169.55C86.5462 169.443 86.5666 169.337 86.6071 169.238C86.6476 169.138 86.7073 169.048 86.7827 168.972C86.8582 168.896 86.948 168.836 87.0469 168.795C87.1457 168.754 87.2518 168.732 87.3589 168.732H94.5717C94.6788 168.732 94.7848 168.754 94.8837 168.795C94.9826 168.836 95.0724 168.896 95.1479 168.972C95.2233 169.048 95.283 169.138 95.3235 169.238C95.364 169.337 95.3844 169.443 95.3837 169.55C95.3837 169.658 95.3623 169.764 95.3208 169.863C95.2793 169.963 95.2185 170.053 95.1419 170.128C95.0653 170.204 94.9745 170.263 94.8747 170.303C94.7749 170.344 94.6681 170.364 94.5605 170.362Z" fill="#E0E0E0"/>
<path d="M105.392 144.731C105.392 144.895 105.343 145.055 105.252 145.192C105.161 145.328 105.032 145.434 104.88 145.497C104.729 145.56 104.562 145.576 104.401 145.544C104.241 145.512 104.093 145.433 103.977 145.317C103.861 145.201 103.782 145.054 103.75 144.893C103.718 144.732 103.735 144.565 103.797 144.414C103.86 144.263 103.966 144.133 104.103 144.042C104.239 143.951 104.399 143.902 104.563 143.902C104.783 143.902 104.994 143.99 105.149 144.145C105.305 144.301 105.392 144.511 105.392 144.731Z" fill="#455A64"/>
<path d="M104.563 141.208C105.021 141.208 105.392 140.837 105.392 140.38C105.392 139.922 105.021 139.551 104.563 139.551C104.105 139.551 103.734 139.922 103.734 140.38C103.734 140.837 104.105 141.208 104.563 141.208Z" fill="#455A64"/>
<path d="M104.563 149.81C105.021 149.81 105.392 149.439 105.392 148.981C105.392 148.523 105.021 148.152 104.563 148.152C104.105 148.152 103.734 148.523 103.734 148.981C103.734 149.439 104.105 149.81 104.563 149.81Z" fill="#455A64"/>
<path d="M104.563 154.236C105.021 154.236 105.392 153.865 105.392 153.407C105.392 152.949 105.021 152.578 104.563 152.578C104.105 152.578 103.734 152.949 103.734 153.407C103.734 153.865 104.105 154.236 104.563 154.236Z" fill="#455A64"/>
<path d="M104.563 158.654C105.021 158.654 105.392 158.283 105.392 157.825C105.392 157.367 105.021 156.996 104.563 156.996C104.105 156.996 103.734 157.367 103.734 157.825C103.734 158.283 104.105 158.654 104.563 158.654Z" fill="#455A64"/>
<path d="M105.392 162.243C105.393 162.407 105.345 162.568 105.255 162.705C105.165 162.842 105.036 162.949 104.884 163.013C104.733 163.076 104.566 163.094 104.405 163.062C104.244 163.031 104.096 162.952 103.979 162.837C103.863 162.721 103.783 162.573 103.751 162.412C103.718 162.252 103.734 162.085 103.797 161.933C103.859 161.781 103.966 161.651 104.102 161.56C104.239 161.469 104.399 161.42 104.563 161.42C104.782 161.42 104.992 161.506 105.147 161.661C105.303 161.815 105.39 162.024 105.392 162.243Z" fill="#455A64"/>
<path d="M104.563 167.495C105.021 167.495 105.392 167.124 105.392 166.667C105.392 166.209 105.021 165.838 104.563 165.838C104.105 165.838 103.734 166.209 103.734 166.667C103.734 167.124 104.105 167.495 104.563 167.495Z" fill="#455A64"/>
<path d="M104.563 171.913C105.021 171.913 105.392 171.542 105.392 171.085C105.392 170.627 105.021 170.256 104.563 170.256C104.105 170.256 103.734 170.627 103.734 171.085C103.734 171.542 104.105 171.913 104.563 171.913Z" fill="#455A64"/>
<path d="M105.392 175.508C105.392 175.672 105.343 175.833 105.252 175.969C105.161 176.105 105.032 176.211 104.88 176.274C104.729 176.337 104.562 176.353 104.401 176.321C104.241 176.289 104.093 176.21 103.977 176.095C103.861 175.979 103.782 175.831 103.75 175.67C103.718 175.509 103.735 175.343 103.797 175.191C103.86 175.04 103.966 174.91 104.103 174.819C104.239 174.728 104.399 174.68 104.563 174.68C104.783 174.68 104.994 174.767 105.149 174.922C105.305 175.078 105.392 175.289 105.392 175.508Z" fill="#455A64"/>
<path d="M105.392 179.928C105.392 180.092 105.343 180.253 105.252 180.389C105.161 180.525 105.032 180.631 104.88 180.694C104.729 180.757 104.562 180.773 104.401 180.741C104.241 180.709 104.093 180.63 103.977 180.514C103.861 180.399 103.782 180.251 103.75 180.09C103.718 179.929 103.735 179.763 103.797 179.611C103.86 179.46 103.966 179.33 104.103 179.239C104.239 179.148 104.399 179.1 104.563 179.1C104.783 179.1 104.994 179.187 105.149 179.342C105.305 179.498 105.392 179.709 105.392 179.928Z" fill="#455A64"/>
<path d="M104.563 185.181C105.021 185.181 105.392 184.81 105.392 184.352C105.392 183.895 105.021 183.523 104.563 183.523C104.105 183.523 103.734 183.895 103.734 184.352C103.734 184.81 104.105 185.181 104.563 185.181Z" fill="#455A64"/>
<path d="M105.392 188.77C105.392 188.934 105.343 189.094 105.252 189.231C105.161 189.367 105.032 189.473 104.88 189.536C104.729 189.599 104.562 189.615 104.401 189.583C104.241 189.551 104.093 189.472 103.977 189.356C103.861 189.24 103.782 189.093 103.75 188.932C103.718 188.771 103.735 188.604 103.797 188.453C103.86 188.302 103.966 188.172 104.103 188.081C104.239 187.99 104.399 187.941 104.563 187.941C104.783 187.941 104.994 188.029 105.149 188.184C105.305 188.34 105.392 188.55 105.392 188.77Z" fill="#455A64"/>
<path d="M104.563 194.023C105.021 194.023 105.392 193.652 105.392 193.194C105.392 192.736 105.021 192.365 104.563 192.365C104.105 192.365 103.734 192.736 103.734 193.194C103.734 193.652 104.105 194.023 104.563 194.023Z" fill="#455A64"/>
<path d="M86.1116 127.293H181.933C182.502 127.293 183.048 127.519 183.45 127.921C183.852 128.323 184.078 128.869 184.078 129.438V136.079H83.082V130.317C83.082 129.919 83.1604 129.526 83.3128 129.158C83.4651 128.791 83.6883 128.458 83.9697 128.177C84.2511 127.896 84.5851 127.673 84.9527 127.522C85.3202 127.37 85.714 127.292 86.1116 127.293Z" fill="#E0E0E0"/>
<path d="M88.2997 133.146C88.9647 133.146 89.5037 132.607 89.5037 131.942C89.5037 131.277 88.9647 130.738 88.2997 130.738C87.6347 130.738 87.0957 131.277 87.0957 131.942C87.0957 132.607 87.6347 133.146 88.2997 133.146Z" fill="white"/>
<path d="M93.2068 131.94C93.2068 132.178 93.1362 132.411 93.0039 132.609C92.8716 132.807 92.6836 132.962 92.4636 133.053C92.2436 133.144 92.0015 133.168 91.7679 133.121C91.5344 133.075 91.3199 132.96 91.1515 132.792C90.9831 132.623 90.8684 132.409 90.822 132.175C90.7755 131.942 90.7994 131.7 90.8905 131.48C90.9816 131.26 91.1359 131.072 91.3339 130.939C91.5319 130.807 91.7647 130.736 92.0028 130.736C92.1611 130.736 92.318 130.766 92.4645 130.826C92.6109 130.887 92.7439 130.975 92.8558 131.087C92.9678 131.199 93.0564 131.332 93.1167 131.479C93.1769 131.625 93.2076 131.782 93.2068 131.94Z" fill="white"/>
<path d="M96.908 131.94C96.908 132.178 96.8374 132.411 96.7051 132.609C96.5728 132.807 96.3848 132.962 96.1647 133.053C95.9447 133.144 95.7027 133.168 95.4691 133.121C95.2356 133.075 95.021 132.96 94.8526 132.792C94.6843 132.623 94.5696 132.409 94.5231 132.175C94.4767 131.942 94.5005 131.7 94.5917 131.48C94.6828 131.26 94.8371 131.072 95.0351 130.939C95.2331 130.807 95.4659 130.736 95.704 130.736C95.8623 130.736 96.0192 130.766 96.1656 130.826C96.312 130.887 96.4451 130.975 96.557 131.087C96.669 131.199 96.7576 131.332 96.8179 131.479C96.8781 131.625 96.9087 131.782 96.908 131.94Z" fill="white"/>
<path d="M104.562 199.293L113.102 208.527L120.847 199.293H104.562Z" fill="white"/>
<path d="M181.34 200.301C181.641 200.283 181.938 200.226 182.224 200.133C182.64 199.986 183.015 199.741 183.315 199.418C183.615 199.095 183.833 198.705 183.949 198.279C184.03 197.984 184.063 197.678 184.044 197.372V196.342C184.044 195.619 184.044 194.83 184.044 193.978C184.044 192.27 184.044 190.299 184.044 188.082C184.044 179.206 184.016 166.37 184 150.506C184 146.541 184 142.391 184 138.057C184 135.888 184 133.679 184 131.432C184 130.872 184 130.312 184 129.752C183.94 129.204 183.708 128.688 183.338 128.279C182.968 127.869 182.479 127.587 181.939 127.473C181.37 127.412 180.797 127.393 180.225 127.417H150.444H117.533H86.7332C86.3636 127.417 85.966 127.417 85.6132 127.417C85.2568 127.451 84.9115 127.56 84.5996 127.736C84.2866 127.914 84.0139 128.156 83.799 128.445C83.584 128.734 83.4314 129.065 83.3508 129.416C83.2752 129.927 83.2508 130.445 83.278 130.962V154.246C83.278 162.366 83.278 170.289 83.278 178.013V189.398C83.278 191.264 83.278 193.118 83.278 194.958C83.278 195.871 83.278 196.795 83.278 197.691C83.3035 198.122 83.4362 198.54 83.664 198.907C83.8919 199.273 84.2077 199.577 84.5828 199.791C84.9563 200.007 85.3782 200.124 85.8092 200.133H105.28L105.32 200.172L113.16 208.404H112.986L119.84 200.228L119.874 200.189H119.924L164.82 200.234L177.078 200.267L164.82 200.301L119.924 200.346L120.008 200.306L113.12 208.6L113.036 208.701L112.947 208.606L105.107 200.385L105.196 200.424H85.7644C85.2927 200.409 84.8316 200.281 84.4204 200.049C84.0061 199.813 83.6571 199.477 83.4048 199.072C83.1526 198.668 83.0051 198.206 82.9756 197.73C82.9756 196.801 82.9756 195.899 82.9756 194.981V189.42C82.9756 185.687 82.9756 181.892 82.9756 178.035V154.274C82.9756 150.216 82.9756 146.11 82.9756 141.954V130.194C82.9689 129.92 82.9952 129.645 83.054 129.377C83.1467 128.989 83.3178 128.625 83.5566 128.306C83.7955 127.987 84.0971 127.721 84.4428 127.523C84.7876 127.328 85.1689 127.206 85.5628 127.165C85.9716 127.137 86.3244 127.165 86.6828 127.165H150.388H180.169C180.756 127.138 181.344 127.159 181.928 127.226C182.515 127.353 183.048 127.661 183.45 128.107C183.852 128.554 184.103 129.115 184.168 129.713C184.201 130.306 184.168 130.833 184.168 131.393C184.168 133.633 184.168 135.841 184.168 138.018C184.168 142.348 184.168 146.498 184.168 150.466C184.168 166.331 184.128 179.166 184.117 188.042C184.117 190.282 184.117 192.231 184.117 193.939C184.117 194.79 184.117 195.58 184.117 196.302V197.333C184.132 197.645 184.096 197.956 184.011 198.257C183.873 198.761 183.59 199.215 183.199 199.562C182.923 199.814 182.597 200.005 182.241 200.122C182.026 200.194 181.802 200.239 181.575 200.256L181.34 200.301Z" fill="#263238"/>
<path d="M91.0154 71.9531H167.31C167.781 71.9531 168.232 72.1402 168.565 72.4731C168.898 72.806 169.085 73.2575 169.085 73.7283V112.105C169.085 112.668 168.861 113.208 168.463 113.606C168.065 114.004 167.526 114.228 166.963 114.228H91.0154C90.5446 114.228 90.0931 114.04 89.7602 113.708C89.4273 113.375 89.2402 112.923 89.2402 112.452V73.7283C89.2402 73.2575 89.4273 72.806 89.7602 72.4731C90.0931 72.1402 90.5446 71.9531 91.0154 71.9531Z" fill="white"/>
<path d="M91.1836 71.9531H167.142C167.657 71.9531 168.152 72.1578 168.516 72.5223C168.88 72.8867 169.085 73.381 169.085 73.8963V81.0307H89.2404V73.9187C89.2374 73.6617 89.2855 73.4066 89.3818 73.1682C89.4781 72.9299 89.6208 72.713 89.8015 72.5302C89.9823 72.3474 90.1975 72.2022 90.4347 72.1031C90.672 72.0041 90.9265 71.9531 91.1836 71.9531Z" fill="#E0E0E0"/>
<path d="M166.84 114.239C167.046 114.22 167.25 114.185 167.45 114.132C167.74 114.048 168.009 113.905 168.241 113.712C168.473 113.52 168.664 113.282 168.8 113.012C168.999 112.614 169.084 112.168 169.046 111.724C169.046 111.226 169.046 110.688 169.046 110.1C169.046 108.93 169.046 107.575 169.046 106.052C169.046 99.9589 169.046 91.1501 169.002 80.2637C169.002 78.901 169.002 77.5066 169.002 76.0805C169.002 75.3693 169.002 74.6525 169.002 73.9245C169.034 73.5787 168.958 73.2314 168.784 72.9306C168.611 72.6297 168.348 72.39 168.033 72.2445C167.701 72.1093 167.342 72.0555 166.986 72.0877H158.81H138.37H91.5312C91.2836 72.0754 91.0355 72.0923 90.792 72.1381C90.4397 72.2213 90.1202 72.4073 89.8739 72.6726C89.6276 72.9378 89.4657 73.2703 89.4088 73.6277C89.3888 73.8774 89.3888 74.1284 89.4088 74.3781V82.7781C89.4088 86.8213 89.4088 90.8048 89.4088 94.7285V106.264C89.4088 108.131 89.4088 109.998 89.4088 111.864C89.3932 112.299 89.5109 112.727 89.7462 113.093C89.9814 113.458 90.3229 113.743 90.7248 113.908C91.1403 114.05 91.5813 114.102 92.0184 114.06H93.3736H131.627L157.415 114.104H164.426L157.415 114.132L131.627 114.177L93.3736 114.211H92.0184C91.5466 114.249 91.072 114.19 90.624 114.037C90.1724 113.85 89.7883 113.531 89.5223 113.121C89.2563 112.711 89.121 112.23 89.1344 111.741V106.141C89.1344 102.372 89.1344 98.5197 89.1344 94.6053V74.3893C89.1217 74.1239 89.1311 73.8579 89.1624 73.5941C89.2251 73.1789 89.4114 72.7923 89.6971 72.4846C89.9828 72.177 90.3546 71.9625 90.764 71.8693C91.0289 71.8135 91.3 71.7928 91.5704 71.8077H138.409H158.849H166.997C167.379 71.7742 167.764 71.8358 168.117 71.9869C168.475 72.1507 168.775 72.4206 168.975 72.7601C169.175 73.0996 169.267 73.4923 169.237 73.8853C169.237 74.6133 169.237 75.3301 169.237 76.0413C169.237 77.4712 169.237 78.8656 169.237 80.2245C169.237 91.1109 169.203 99.9197 169.192 106.012C169.192 107.536 169.192 108.891 169.192 110.061C169.192 110.649 169.192 111.181 169.192 111.685C169.203 111.923 169.188 112.162 169.147 112.396C169.101 112.607 169.027 112.81 168.929 113.001C168.783 113.273 168.583 113.512 168.343 113.704C168.102 113.896 167.825 114.038 167.529 114.121C167.309 114.204 167.075 114.244 166.84 114.239Z" fill="#263238"/>
<path d="M95.183 78.6901C96.0056 78.6901 96.6726 78.0232 96.6726 77.2005C96.6726 76.3779 96.0056 75.7109 95.183 75.7109C94.3603 75.7109 93.6934 76.3779 93.6934 77.2005C93.6934 78.0232 94.3603 78.6901 95.183 78.6901Z" fill="white"/>
<path d="M101.243 77.2006C101.243 77.4954 101.155 77.7836 100.991 78.0287C100.828 78.2738 100.595 78.4647 100.322 78.5773C100.05 78.6899 99.7497 78.719 99.4606 78.6611C99.1715 78.6032 98.9061 78.4607 98.698 78.2519C98.4899 78.043 98.3485 77.777 98.2916 77.4877C98.2348 77.1984 98.2651 76.8987 98.3787 76.6266C98.4923 76.3545 98.6841 76.1223 98.9298 75.9593C99.1755 75.7963 99.464 75.7098 99.7589 75.7109C99.9542 75.7109 100.148 75.7495 100.328 75.8244C100.508 75.8994 100.672 76.0092 100.81 76.1476C100.948 76.286 101.057 76.4502 101.132 76.6309C101.206 76.8116 101.244 77.0052 101.243 77.2006Z" fill="white"/>
<path d="M104.333 78.6901C105.156 78.6901 105.823 78.0232 105.823 77.2005C105.823 76.3779 105.156 75.7109 104.333 75.7109C103.511 75.7109 102.844 76.3779 102.844 77.2005C102.844 78.0232 103.511 78.6901 104.333 78.6901Z" fill="white"/>
<path d="M112.246 93.8229H102.967C102.835 93.8237 102.704 93.7983 102.582 93.7482C102.459 93.6982 102.348 93.6245 102.255 93.5313C102.161 93.4382 102.087 93.3274 102.036 93.2054C101.985 93.0834 101.959 92.9526 101.959 92.8205C101.958 92.6879 101.984 92.5565 102.034 92.4339C102.085 92.3113 102.159 92.1998 102.253 92.1061C102.346 92.0123 102.458 91.9381 102.58 91.8877C102.703 91.8373 102.834 91.8118 102.967 91.8125H112.246C112.514 91.8125 112.77 91.9187 112.959 92.1078C113.148 92.2968 113.254 92.5532 113.254 92.8205C113.253 93.0869 113.146 93.3418 112.957 93.5297C112.768 93.7175 112.513 93.8229 112.246 93.8229Z" fill="#263238"/>
<path d="M112.246 99.1195H102.967C102.835 99.1195 102.704 99.0934 102.581 99.0428C102.459 98.9921 102.348 98.9179 102.254 98.8243C102.161 98.7307 102.086 98.6196 102.036 98.4973C101.985 98.375 101.959 98.2439 101.959 98.1115C101.959 97.8442 102.065 97.5878 102.254 97.3988C102.443 97.2097 102.7 97.1035 102.967 97.1035H112.246C112.513 97.105 112.769 97.2117 112.957 97.4004C113.146 97.5891 113.253 97.8446 113.254 98.1115C113.253 98.3784 113.146 98.6339 112.957 98.8227C112.769 99.0114 112.513 99.118 112.246 99.1195Z" fill="#E0E0E0"/>
<path d="M161.245 93.8229H134.321C134.054 93.8229 133.799 93.7175 133.61 93.5296C133.421 93.3418 133.314 93.0869 133.312 92.8205C133.313 92.5532 133.419 92.2968 133.608 92.1077C133.797 91.9187 134.053 91.8125 134.321 91.8125H161.245C161.513 91.8125 161.769 91.9187 161.958 92.1077C162.147 92.2968 162.253 92.5532 162.253 92.8205C162.252 93.0869 162.145 93.3418 161.956 93.5296C161.767 93.7175 161.512 93.8229 161.245 93.8229Z" fill="#E0E0E0"/>
<path d="M112.246 104.545H102.967C102.7 104.545 102.443 104.439 102.254 104.25C102.065 104.061 101.959 103.805 101.959 103.537C101.958 103.405 101.984 103.273 102.034 103.151C102.085 103.028 102.159 102.917 102.253 102.823C102.346 102.729 102.458 102.655 102.58 102.605C102.703 102.554 102.834 102.529 102.967 102.529H112.246C112.514 102.529 112.77 102.636 112.959 102.825C113.148 103.014 113.254 103.27 113.254 103.537C113.253 103.804 113.146 104.06 112.957 104.248C112.769 104.437 112.513 104.544 112.246 104.545Z" fill="#407BFF"/>
<path d="M154.822 99.1195H145.538C145.271 99.118 145.016 99.0112 144.828 98.8223C144.641 98.6334 144.535 98.3779 144.535 98.1115C144.535 97.8451 144.641 97.5896 144.828 97.4007C145.016 97.2118 145.271 97.105 145.538 97.1035H154.822C155.089 97.105 155.345 97.2117 155.533 97.4004C155.722 97.5891 155.829 97.8446 155.83 98.1115C155.829 98.3784 155.722 98.6339 155.533 98.8227C155.345 99.0114 155.089 99.118 154.822 99.1195Z" fill="#407BFF"/>
<path d="M127.119 93.8229H117.834C117.568 93.8229 117.312 93.7175 117.123 93.5296C116.935 93.3418 116.828 93.0869 116.826 92.8205C116.826 92.5532 116.932 92.2968 117.121 92.1077C117.31 91.9187 117.567 91.8125 117.834 91.8125H127.119C127.251 91.8125 127.382 91.8386 127.504 91.8893C127.626 91.9401 127.737 92.0144 127.83 92.1081C127.923 92.2018 127.997 92.3129 128.047 92.4352C128.097 92.5574 128.122 92.6884 128.121 92.8205C128.121 93.0864 128.016 93.3413 127.828 93.5293C127.64 93.7173 127.385 93.8229 127.119 93.8229Z" fill="#455A64"/>
<path d="M139.075 99.1195H117.834C117.567 99.118 117.312 99.0114 117.123 98.8227C116.934 98.6339 116.828 98.3784 116.826 98.1115C116.828 97.8446 116.934 97.5891 117.123 97.4004C117.312 97.2117 117.567 97.105 117.834 97.1035H139.075C139.342 97.1035 139.599 97.2097 139.788 97.3988C139.977 97.5878 140.083 97.8442 140.083 98.1115C140.083 98.2439 140.057 98.375 140.006 98.4973C139.956 98.6196 139.881 98.7307 139.788 98.8243C139.694 98.9179 139.583 98.9921 139.461 99.0428C139.338 99.0934 139.207 99.1195 139.075 99.1195Z" fill="#263238"/>
<path d="M159.913 104.545H117.79C117.66 104.542 117.533 104.514 117.414 104.462C117.296 104.41 117.189 104.334 117.099 104.241C117.01 104.147 116.94 104.037 116.893 103.916C116.846 103.795 116.823 103.667 116.826 103.537C116.823 103.408 116.846 103.279 116.893 103.158C116.94 103.038 117.01 102.927 117.099 102.834C117.189 102.74 117.296 102.665 117.414 102.613C117.533 102.561 117.66 102.532 117.79 102.529H159.913C160.042 102.532 160.169 102.561 160.288 102.613C160.406 102.665 160.512 102.74 160.601 102.834C160.69 102.928 160.76 103.038 160.806 103.159C160.852 103.279 160.874 103.408 160.87 103.537C160.876 103.798 160.779 104.05 160.6 104.239C160.42 104.428 160.173 104.538 159.913 104.545Z" fill="#E0E0E0"/>
<path d="M138.633 108.381H117.834C117.567 108.38 117.312 108.273 117.123 108.084C116.934 107.896 116.828 107.64 116.826 107.373C116.828 107.106 116.934 106.851 117.123 106.662C117.312 106.473 117.567 106.367 117.834 106.365H138.633C138.765 106.365 138.896 106.391 139.018 106.442C139.141 106.493 139.252 106.567 139.345 106.66C139.439 106.754 139.513 106.865 139.564 106.987C139.614 107.11 139.641 107.241 139.641 107.373C139.641 107.506 139.614 107.637 139.564 107.759C139.513 107.881 139.439 107.992 139.345 108.086C139.252 108.18 139.141 108.254 139.018 108.305C138.896 108.355 138.765 108.381 138.633 108.381Z" fill="#E0E0E0"/>
<path d="M98.4148 92.8197C98.4148 93.0224 98.3547 93.2205 98.2421 93.3891C98.1295 93.5576 97.9695 93.689 97.7822 93.7665C97.595 93.8441 97.3889 93.8644 97.1901 93.8248C96.9913 93.7853 96.8087 93.6877 96.6654 93.5444C96.5221 93.401 96.4245 93.2184 96.3849 93.0196C96.3454 92.8209 96.3657 92.6148 96.4432 92.4275C96.5208 92.2403 96.6522 92.0802 96.8207 91.9676C96.9892 91.855 97.1874 91.7949 97.39 91.7949C97.5246 91.7949 97.6579 91.8214 97.7822 91.8729C97.9065 91.9244 98.0195 91.9999 98.1147 92.0951C98.2098 92.1902 98.2853 92.3032 98.3368 92.4275C98.3883 92.5519 98.4148 92.6851 98.4148 92.8197Z" fill="#455A64"/>
<path d="M98.4148 87.7748C98.4148 87.9775 98.3547 88.1756 98.2421 88.3442C98.1295 88.5127 97.9695 88.644 97.7822 88.7216C97.595 88.7992 97.3889 88.8195 97.1901 88.7799C96.9913 88.7404 96.8087 88.6428 96.6654 88.4995C96.5221 88.3561 96.4245 88.1735 96.3849 87.9747C96.3454 87.776 96.3657 87.5699 96.4432 87.3826C96.5208 87.1954 96.6522 87.0353 96.8207 86.9227C96.9892 86.8101 97.1874 86.75 97.39 86.75C97.5248 86.7493 97.6584 86.7753 97.7831 86.8265C97.9078 86.8777 98.021 86.9532 98.1163 87.0485C98.2116 87.1438 98.2871 87.2571 98.3383 87.3818C98.3896 87.5064 98.4156 87.64 98.4148 87.7748Z" fill="#455A64"/>
<path d="M97.39 99.0965C97.956 99.0965 98.4148 98.6377 98.4148 98.0717C98.4148 97.5057 97.956 97.0469 97.39 97.0469C96.8241 97.0469 96.3652 97.5057 96.3652 98.0717C96.3652 98.6377 96.8241 99.0965 97.39 99.0965Z" fill="#455A64"/>
<path d="M97.39 104.563C97.956 104.563 98.4148 104.104 98.4148 103.538C98.4148 102.972 97.956 102.514 97.39 102.514C96.8241 102.514 96.3652 102.972 96.3652 103.538C96.3652 104.104 96.8241 104.563 97.39 104.563Z" fill="#455A64"/>
<path d="M108.416 86.5645H102.704C102.407 86.5645 102.166 86.8051 102.166 87.102V87.9701C102.166 88.267 102.407 88.5077 102.704 88.5077H108.416C108.713 88.5077 108.953 88.267 108.953 87.9701V87.102C108.953 86.8051 108.713 86.5645 108.416 86.5645Z" fill="#455A64"/>
<path d="M50.1373 245.839C45.4669 247.872 40.9645 248.079 36.6973 245.839L33.5781 219.67H52.9709L50.1373 245.839Z" fill="#6F4439"/>
<path d="M51.6884 218.158L51.1284 216.287L36.4844 214.479C36.2922 214.456 36.0979 214.499 35.9331 214.6C35.7684 214.702 35.6429 214.857 35.5772 215.039L34.5188 218.124H32.6484V221.512C39.99 222.806 47.018 222.879 53.6764 221.512V218.124L51.6884 218.158Z" fill="#E0E0E0"/>
<path d="M51.6876 218.158C51.732 218.15 51.7775 218.15 51.822 218.158H52.2084H53.6756H53.726V218.214C53.726 219.088 53.726 220.23 53.7596 221.602V221.669H53.6924C50.7216 222.292 47.6996 222.636 44.6652 222.7C40.655 222.757 36.6489 222.424 32.7036 221.703H32.6252H32.502V218.046H34.518L34.3836 218.142C34.7364 217.111 35.0892 216.103 35.4252 215.118C35.4657 214.976 35.5369 214.845 35.6336 214.733C35.7304 214.622 35.8504 214.533 35.9852 214.473C36.1217 214.417 36.2687 214.39 36.4164 214.395C36.562 214.395 36.674 214.429 36.8028 214.44L38.2812 214.625L43.6796 215.269L51.1276 216.232H51.1612V216.266C51.3292 216.854 51.4636 217.318 51.5644 217.654C51.6036 217.8 51.6372 217.923 51.6652 218.018C51.6687 218.063 51.6687 218.108 51.6652 218.153C51.6451 218.118 51.63 218.08 51.6204 218.041L51.4972 217.693C51.3796 217.352 51.2284 216.893 51.0268 216.299L51.0716 216.338L43.6348 215.487L38.2644 214.854L36.786 214.675C36.5625 214.612 36.3262 214.612 36.1028 214.675C36.0015 214.718 35.9116 214.784 35.8398 214.868C35.7679 214.951 35.7162 215.05 35.6884 215.157L34.6524 218.186L34.6188 218.282H32.6476L32.7932 218.136V221.524L32.6756 221.378H32.754C36.6822 222.084 40.6686 222.416 44.6596 222.369C47.6795 222.32 50.6891 222.003 53.6532 221.423L53.586 221.513C53.586 220.141 53.586 218.998 53.6196 218.125L53.6756 218.181L52.1804 218.147H51.8052L51.6876 218.158Z" fill="#263238"/>
<path d="M51.5203 237.17C46.4467 237.987 40.8803 237.87 34.9275 237.17L34.1211 229.234C40.2264 229.92 46.3894 229.92 52.4947 229.234L51.5203 237.17Z" fill="#AE7461"/>
<path d="M42.1734 231.783C41.8043 232.008 41.5306 232.36 41.4046 232.773C41.2786 233.186 41.3091 233.631 41.4902 234.023L42.0166 235.143C42.1993 235.537 42.5212 235.849 42.9203 236.02C43.3193 236.19 43.7673 236.207 44.1782 236.067L42.1734 231.783Z" fill="#6F4439"/>
<path d="M42.5254 231.62L44.5302 235.932C44.8974 235.706 45.1695 235.354 45.2953 234.941C45.4211 234.529 45.392 234.085 45.2134 233.692L44.687 232.572C44.5082 232.174 44.1882 231.857 43.789 231.681C43.3898 231.505 42.9396 231.483 42.5254 231.62Z" fill="#6F4439"/>
<path d="M51.8505 218.208C51.638 218.297 51.4164 218.363 51.1897 218.404C50.7641 218.516 50.1369 218.651 49.3529 218.791C45.265 219.515 41.0816 219.515 36.9937 218.791C36.2153 218.645 35.5881 218.511 35.1569 218.393C34.9306 218.348 34.7093 218.28 34.4961 218.191C34.7264 218.196 34.9555 218.226 35.1793 218.281C35.6161 218.365 36.2489 218.471 37.0273 218.583C41.1026 219.184 45.244 219.184 49.3193 218.583C50.1033 218.471 50.7361 218.365 51.1673 218.287C51.3912 218.234 51.6205 218.208 51.8505 218.208Z" fill="#263238"/>
<path d="M61.8239 179.289C61.8239 179.289 58.6263 179.978 58.0719 182.251C57.5175 184.525 62.5519 238.811 62.7255 240.127C63.0447 242.205 64.7975 244.848 68.7399 244.703C72.1839 244.579 119.062 244.703 130.861 244.703C132.434 244.703 133.375 243.37 133.582 241.779L75.5383 238.352L61.8239 179.289Z" fill="#E0E0E0"/>
<path d="M60.367 181.103L65.407 239.645C65.4535 240.107 65.6679 240.536 66.0095 240.851C66.351 241.166 66.7962 241.344 67.2606 241.353L133.593 241.65L120.847 229.005L77.7606 228.703L73.1518 182.833C73.1191 182.534 72.9935 182.252 72.7926 182.028C72.5917 181.804 72.3256 181.649 72.0318 181.584L62.3774 179.344C62.1242 179.293 61.8625 179.3 61.6127 179.367C61.3629 179.433 61.1318 179.556 60.9372 179.726C60.7427 179.896 60.5901 180.109 60.4912 180.348C60.3923 180.586 60.3498 180.845 60.367 181.103Z" fill="#E0E0E0"/>
<path d="M60.3688 181.103C60.3588 181.009 60.3588 180.913 60.3688 180.818C60.3816 180.536 60.4706 180.263 60.6264 180.028C60.7517 179.834 60.9159 179.667 61.1086 179.539C61.3013 179.411 61.5185 179.324 61.7464 179.283C62.0431 179.245 62.3448 179.269 62.6312 179.356L63.6112 179.58L68.7352 180.756L71.9832 181.507C72.2992 181.567 72.5881 181.725 72.8084 181.96C73.0287 182.194 73.1691 182.492 73.2096 182.811C73.2712 183.439 73.3384 184.083 73.4056 184.743C74.4864 195.383 76.0264 210.503 77.8856 228.692L77.7624 228.575L120.854 228.86H120.91L120.955 228.905L133.695 241.544L133.947 241.796H133.594H130.654L82.0296 241.567L71.1096 241.511H68.4776C68.0408 241.511 67.6152 241.511 67.1672 241.511C66.7039 241.482 66.2648 241.294 65.924 240.979C65.5856 240.667 65.3659 240.247 65.3024 239.791C65.252 239.36 65.224 238.946 65.1848 238.52C65.1176 237.68 65.0448 236.84 64.972 236.017C64.412 229.398 63.8856 223.227 63.4096 217.599C62.4632 206.337 61.696 197.226 61.1696 190.926C60.912 187.779 60.7104 185.326 60.576 183.674C60.5088 182.845 60.464 182.218 60.4304 181.787C60.3968 181.355 60.3856 181.143 60.3856 181.143C60.3856 181.143 60.4192 181.355 60.4584 181.781C60.4976 182.207 60.5592 182.845 60.632 183.668C60.7832 185.348 61.0016 187.773 61.2816 190.915C61.8416 197.215 62.6368 206.326 63.6224 217.576C64.1096 223.21 64.6472 229.375 65.2184 235.995C65.2893 236.823 65.3621 237.658 65.4368 238.498C65.476 238.918 65.504 239.349 65.5488 239.758C65.6155 240.157 65.8124 240.524 66.1088 240.799C66.4175 241.078 66.8135 241.24 67.2288 241.259C67.6488 241.259 68.0912 241.259 68.5224 241.259H71.16L82.08 241.303L130.699 241.511H133.639L133.533 241.757L120.737 229.107L120.838 229.151L77.7512 228.827H77.6392V228.715C75.8304 210.526 74.3296 195.372 73.2768 184.76C73.2096 184.099 73.1424 183.455 73.0808 182.828C73.0455 182.535 72.918 182.262 72.7166 182.046C72.5152 181.831 72.2505 181.685 71.9608 181.63L68.7128 180.868L63.6 179.653L62.62 179.423C62.3438 179.334 62.0515 179.305 61.7632 179.339C61.538 179.376 61.3226 179.458 61.13 179.58C60.9374 179.702 60.7718 179.862 60.6432 180.051C60.4868 180.28 60.394 180.547 60.3744 180.823C60.3632 181.008 60.38 181.103 60.3688 181.103Z" fill="#263238"/>
<path d="M108.919 240.128H115.085L107.29 230.02H103.633L108.919 240.128Z" fill="#263238"/>
<path d="M62.6468 183.746L67.3564 234.639L76.1596 227.639L72.3516 184.799C72.338 184.631 72.2679 184.474 72.1529 184.352C72.0379 184.229 71.8848 184.15 71.7188 184.127L63.4924 182.951C63.3821 182.935 63.2697 182.945 63.1636 182.978C63.0574 183.012 62.9602 183.069 62.8791 183.146C62.798 183.222 62.735 183.315 62.6948 183.419C62.6546 183.523 62.6382 183.635 62.6468 183.746Z" fill="#263238"/>
<path d="M72.0723 240.128H78.4339L84.9019 230.02H81.2395L72.0723 240.128Z" fill="#263238"/>
<path d="M79.8848 240.128H86.0504L89.4272 230.02H85.7648L79.8848 240.128Z" fill="#263238"/>
<path d="M87.4277 240.128H93.5933L93.9237 230.02H90.2669L87.4277 240.128Z" fill="#263238"/>
<path d="M94.4277 240.128H100.593L98.3141 230.02H94.6573L94.4277 240.128Z" fill="#263238"/>
<path d="M101.718 240.128H107.883L102.86 230.02H99.2031L101.718 240.128Z" fill="#263238"/>
<path d="M114.799 238.156C114.799 238.207 105.397 238.246 93.7991 238.246C82.2015 238.246 72.8047 238.207 72.8047 238.156C72.8047 238.106 82.2015 238.072 93.7991 238.072C105.397 238.072 114.799 238.111 114.799 238.156Z" fill="#E0E0E0"/>
<path d="M113.68 236.32C113.68 236.371 104.754 236.41 93.7385 236.41C82.7233 236.41 73.7969 236.371 73.7969 236.32C73.7969 236.27 82.7233 236.236 93.7385 236.236C104.754 236.236 113.68 236.259 113.68 236.32Z" fill="#E0E0E0"/>
<path d="M113.68 234.64C113.68 234.736 105.28 234.814 94.9202 234.814C84.5602 234.814 76.1602 234.719 76.1602 234.64C76.1602 234.562 84.5602 234.467 94.9258 234.467C105.291 234.467 113.68 234.528 113.68 234.64Z" fill="#E0E0E0"/>
<path d="M113.915 233.087C113.915 233.183 105.694 233.261 95.5577 233.261C85.4217 233.261 77.1953 233.183 77.1953 233.087C77.1953 232.992 85.4161 232.908 95.5577 232.908C105.699 232.908 113.915 232.987 113.915 233.087Z" fill="#E0E0E0"/>
<path d="M114.8 231.968C114.8 232.063 106.523 232.142 96.3198 232.142C86.1166 232.142 77.8398 232.063 77.8398 231.968C77.8398 231.873 86.111 231.789 96.3198 231.789C106.529 231.789 114.8 231.867 114.8 231.968Z" fill="#E0E0E0"/>
<path d="M115.684 230.793C115.684 230.894 107.256 230.972 96.8624 230.972C86.4688 230.972 78.0352 230.894 78.0352 230.793C78.0352 230.692 86.4352 230.619 96.8624 230.619C107.29 230.619 115.684 230.72 115.684 230.793Z" fill="#E0E0E0"/>
<path d="M66.3262 239.647L77.8398 228.9L66.3262 239.647Z" fill="#E0E0E0"/>
<path d="M77.8398 228.9C77.8958 228.956 75.3646 231.408 72.195 234.376C69.0254 237.344 66.4046 239.708 66.3486 239.646C66.2926 239.584 68.8182 237.137 71.9934 234.164C75.1686 231.19 77.7614 228.838 77.8398 228.9Z" fill="#263238"/>
<path d="M267.966 188.855C267.966 188.855 267.406 182.907 252.588 179.105C245.437 177.268 228.362 176.389 226.43 187.505C226.369 187.863 217.93 257.656 217.93 257.656H249.497L267.966 188.855Z" fill="#455A64"/>
<path d="M262.964 257.633H248.404L253.265 189.28C253.624 185.953 257.068 183.551 260.96 183.92L262.264 184.044C266.151 184.413 268.62 188.16 268.508 192.444L262.964 257.633Z" fill="#455A64"/>
<path d="M249.497 255.175C249.413 255.175 250.443 241.696 251.793 225.092C253.143 208.488 254.302 195.026 254.38 195.031C254.459 195.037 253.434 208.505 252.084 225.114C250.735 241.724 249.575 255.181 249.497 255.175Z" fill="#263238"/>
<path d="M265.171 185.622C264.5 185.414 263.815 185.253 263.122 185.14C261.443 184.912 259.736 185.245 258.266 186.087C256.796 186.93 255.646 188.235 254.996 189.8C254.746 190.455 254.54 191.127 254.38 191.81C254.362 191.623 254.371 191.434 254.408 191.25C254.481 190.73 254.614 190.221 254.806 189.732C255.427 188.092 256.599 186.718 258.121 185.846C259.643 184.974 261.42 184.657 263.15 184.95C263.668 185.03 264.176 185.171 264.662 185.37C264.843 185.428 265.015 185.513 265.171 185.622Z" fill="#263238"/>
<path d="M219.19 100.133C219.341 96.1291 216.625 95.5915 214.536 96.0507C213.24 95.1474 211.678 94.7036 210.1 94.7899C208.522 94.8761 207.019 95.4875 205.828 96.5267C204.872 96.0049 203.797 95.7398 202.708 95.7573C201.619 95.7748 200.554 96.0742 199.615 96.6265C198.676 97.1788 197.897 97.965 197.353 98.9083C196.808 99.8517 196.518 100.92 196.51 102.009C195.413 101.875 194.301 102.09 193.333 102.623C192.365 103.157 191.589 103.981 191.115 104.98C190.642 105.979 190.495 107.101 190.695 108.188C190.896 109.275 191.433 110.272 192.231 111.036C190.986 111.409 189.933 112.249 189.292 113.38C188.651 114.511 188.472 115.846 188.792 117.106C189.112 118.366 189.907 119.454 191.01 120.141C192.114 120.829 193.44 121.064 194.712 120.797L219.274 104.439C220.747 102.888 219.111 102.272 219.19 100.133Z" fill="#263238"/>
<path d="M194.001 121.52C194.244 116.13 196.507 111.029 200.34 107.232C204.174 103.435 209.296 101.221 214.688 101.029L215.808 100.99C227.808 101.265 234.288 111.63 233.677 123.603L233.364 163.553L233.285 171.141L205.845 177.665L205.565 161.851C205.565 161.851 193.984 160.473 193.436 148.971C193.15 143.416 193.536 131.925 194.001 121.52Z" fill="#AE7461"/>
<path d="M205.453 161.839C210.801 161.651 215.982 159.933 220.383 156.889C220.383 156.889 217.129 165.289 205.604 164.673L205.453 161.839Z" fill="#6F4439"/>
<path d="M197.355 133.145C197.366 133.573 197.543 133.981 197.85 134.28C198.156 134.579 198.568 134.747 198.996 134.747C199.206 134.756 199.416 134.722 199.613 134.649C199.81 134.576 199.99 134.464 200.143 134.32C200.296 134.176 200.418 134.003 200.503 133.81C200.588 133.618 200.634 133.411 200.637 133.201C200.627 132.773 200.449 132.365 200.143 132.066C199.836 131.767 199.425 131.599 198.996 131.599C198.786 131.59 198.576 131.622 198.379 131.695C198.182 131.768 198.001 131.88 197.848 132.024C197.695 132.168 197.573 132.342 197.488 132.535C197.403 132.727 197.358 132.935 197.355 133.145Z" fill="#263238"/>
<path d="M196.559 127.68C196.766 127.881 197.981 126.918 199.751 126.862C201.52 126.806 202.847 127.64 203.032 127.422C203.122 127.321 202.903 126.94 202.321 126.554C201.537 126.048 200.615 125.799 199.683 125.843C198.763 125.87 197.876 126.192 197.152 126.761C196.631 127.181 196.463 127.573 196.559 127.68Z" fill="#263238"/>
<path d="M211.572 132.782C211.584 133.211 211.763 133.618 212.07 133.917C212.378 134.216 212.79 134.383 213.219 134.383C213.429 134.392 213.638 134.359 213.835 134.286C214.032 134.213 214.212 134.101 214.365 133.957C214.518 133.812 214.641 133.639 214.725 133.447C214.81 133.255 214.856 133.048 214.859 132.838C214.849 132.409 214.672 132.002 214.365 131.703C214.059 131.403 213.647 131.236 213.219 131.236C213.008 131.226 212.798 131.259 212.601 131.332C212.403 131.405 212.222 131.517 212.069 131.661C211.915 131.805 211.792 131.978 211.707 132.171C211.622 132.363 211.576 132.571 211.572 132.782Z" fill="#263238"/>
<path d="M213.487 126.817C213.695 127.024 214.91 126.061 216.679 126C218.449 125.938 219.776 126.784 219.961 126.56C220.051 126.459 219.832 126.078 219.25 125.686C218.465 125.184 217.544 124.935 216.612 124.975C215.693 125.007 214.807 125.328 214.081 125.893C213.555 126.33 213.359 126.728 213.487 126.817Z" fill="#263238"/>
<path d="M208.123 140.139C208.123 140.038 207.003 139.887 205.233 139.719C204.78 139.691 204.348 139.618 204.259 139.31C204.205 138.844 204.295 138.373 204.516 137.96C204.89 136.84 205.293 135.678 205.726 134.472C207.406 129.51 208.61 125.433 208.408 125.366C208.207 125.299 206.684 129.286 205.004 134.236L203.839 137.759C203.575 138.314 203.514 138.944 203.665 139.54C203.736 139.697 203.842 139.836 203.975 139.946C204.108 140.056 204.264 140.133 204.432 140.172C204.686 140.231 204.945 140.257 205.205 140.251C207.008 140.268 208.123 140.24 208.123 140.139Z" fill="#263238"/>
<path d="M213.36 141.176C213.069 141.176 213.136 143.091 211.54 144.536C209.944 145.981 207.894 145.819 207.889 146.087C207.889 146.211 208.353 146.446 209.221 146.435C210.347 146.412 211.429 145.992 212.273 145.247C213.089 144.533 213.593 143.528 213.679 142.447C213.735 141.63 213.505 141.159 213.36 141.176Z" fill="#263238"/>
<path d="M213.282 121.765C213.512 122.213 215.018 121.765 216.872 121.715C218.725 121.665 220.282 122.006 220.456 121.547C220.528 121.323 220.204 120.914 219.543 120.55C218.681 120.098 217.715 119.881 216.743 119.923C215.791 119.942 214.861 120.215 214.049 120.713C213.461 121.121 213.181 121.547 213.282 121.765Z" fill="#263238"/>
<path d="M196.795 122.796C197.091 123.216 198.329 122.852 199.791 122.902C201.252 122.953 202.484 123.3 202.792 122.902C202.927 122.706 202.747 122.292 202.232 121.889C201.525 121.399 200.688 121.13 199.828 121.116C198.967 121.102 198.122 121.344 197.399 121.81C196.856 122.191 196.666 122.594 196.795 122.796Z" fill="#263238"/>
<path d="M194.919 116.21C194.919 116.21 197.719 108.891 201.118 107.087C205.256 104.898 207.233 109.456 211.198 108.207C215.163 106.959 219.116 104.847 223.327 107.804C227.931 111.035 225.915 113.494 226.374 118.59C228.233 139.265 232.226 144.983 232.954 135.188C233.032 134.119 235.972 133.161 236.247 128.631C236.611 122.756 236.583 115.639 235.127 111.528C233.9 108.067 231.817 105.715 228.143 103.173C222.342 99.1634 214.575 99.3482 209.316 100.071C204.058 100.793 194.118 107.199 194.919 116.21Z" fill="#263238"/>
<path d="M232.214 134.887C232.213 134.465 232.297 134.046 232.463 133.657C232.628 133.267 232.871 132.916 233.176 132.623C233.481 132.331 233.843 132.103 234.239 131.954C234.634 131.805 235.056 131.738 235.479 131.757C237.635 131.886 240.071 133.017 240.082 137.463C240.116 145.343 232.197 143.747 232.18 143.517C232.164 143.287 232.197 138.186 232.214 134.887Z" fill="#AE7461"/>
<path d="M233.884 140.56C233.924 140.56 234.024 140.655 234.26 140.762C234.589 140.892 234.955 140.892 235.284 140.762C236.113 140.454 236.813 139.127 236.841 137.71C236.861 137.034 236.729 136.362 236.455 135.744C236.379 135.498 236.244 135.274 236.063 135.09C235.882 134.907 235.659 134.77 235.413 134.691C235.255 134.65 235.088 134.666 234.941 134.735C234.793 134.805 234.675 134.924 234.607 135.072C234.5 135.291 234.551 135.447 234.512 135.464C234.472 135.481 234.344 135.33 234.405 135.005C234.446 134.81 234.555 134.635 234.713 134.512C234.819 134.43 234.941 134.369 235.071 134.335C235.201 134.3 235.336 134.292 235.469 134.311C235.793 134.372 236.096 134.516 236.348 134.729C236.601 134.942 236.793 135.216 236.908 135.526C237.246 136.207 237.412 136.961 237.39 137.721C237.351 139.306 236.539 140.795 235.402 141.131C235.191 141.193 234.968 141.206 234.751 141.17C234.534 141.134 234.328 141.05 234.148 140.924C233.901 140.739 233.862 140.56 233.884 140.56Z" fill="#6F4439"/>
<path d="M231.521 119.644C230.524 120.378 229.466 121.134 228.239 121.324C227.013 121.515 225.579 120.831 225.327 119.616C225.215 119.056 225.327 118.435 224.952 118.026C224.504 117.533 223.714 117.718 223.059 117.813C221.912 117.941 220.756 117.672 219.783 117.05C218.811 116.429 218.081 115.492 217.717 114.397C217.157 115.293 215.802 115.299 214.917 114.761C214.032 114.223 213.41 113.316 212.677 112.549C211.943 111.782 210.963 111.104 209.927 111.289C209.367 111.395 208.807 111.759 208.247 111.731C207.206 111.675 206.662 110.483 206.466 109.491C206.27 108.5 206.108 107.251 205.218 106.747C204.327 106.243 203.342 106.596 202.418 106.747C201.494 106.899 200.239 106.747 199.959 105.823C199.909 105.576 199.909 105.32 199.961 105.073C200.013 104.825 200.116 104.591 200.262 104.384C200.866 103.409 201.782 102.666 202.862 102.277C203.941 101.887 205.121 101.874 206.209 102.239C206.55 100.915 207.277 99.7224 208.296 98.811C209.315 97.8997 210.582 97.3109 211.936 97.1191C213.289 96.9274 214.67 97.1412 215.902 97.7336C217.134 98.326 218.163 99.2704 218.859 100.447C219.668 99.6604 220.656 99.0802 221.737 98.7558C222.818 98.4314 223.962 98.3725 225.071 98.5841C226.18 98.7957 227.221 99.2714 228.107 99.9711C228.993 100.671 229.697 101.574 230.16 102.603C231.108 102.333 232.115 102.344 233.057 102.635C233.999 102.926 234.836 103.485 235.467 104.243C236.097 105.002 236.493 105.927 236.607 106.906C236.72 107.886 236.547 108.878 236.107 109.76C237.552 110.522 238.812 111.883 238.907 113.512C239.002 115.142 237.462 116.816 235.878 116.447C236.273 117.079 236.4 117.843 236.232 118.57C236.064 119.297 235.614 119.927 234.982 120.322C234.349 120.717 233.585 120.844 232.858 120.676C232.132 120.508 231.501 120.059 231.106 119.426" fill="#263238"/>
<path d="M236.448 116.412C236.49 116.683 236.472 116.96 236.397 117.224C236.321 117.488 236.19 117.733 236.011 117.941C235.641 118.457 235.088 118.813 234.466 118.938C234.07 119.019 233.661 119.011 233.268 118.914C232.876 118.817 232.51 118.634 232.198 118.378L232.528 118.316C232.141 119.067 231.634 119.75 231.027 120.338C230.624 120.737 230.149 121.056 229.627 121.279C228.949 121.535 228.207 121.575 227.505 121.392C226.803 121.21 226.175 120.814 225.707 120.259C225.372 119.773 225.136 119.225 225.013 118.647C224.94 118.444 224.911 118.228 224.929 118.014C224.962 118.014 225.035 118.215 225.181 118.574C225.359 119.103 225.622 119.601 225.959 120.047C226.749 121.167 229.196 121.643 230.697 119.991C231.264 119.434 231.746 118.796 232.125 118.098L232.259 117.863L232.461 118.036C232.72 118.263 233.026 118.43 233.357 118.527C233.687 118.624 234.035 118.647 234.376 118.596C234.923 118.504 235.42 118.22 235.776 117.795C236.089 117.383 236.317 116.913 236.448 116.412Z" fill="#455A64"/>
<path d="M143.359 219.52C143.359 219.52 128.503 219.077 127.612 218.797C126.257 218.495 124.852 218.495 123.496 218.797C122.438 219.133 118.21 220.634 118.21 220.634L109.25 223.025C109.25 223.025 100.239 228.9 100.419 230.081C100.598 231.263 101.589 232.069 103.219 231.459C104.848 230.849 112.974 226.615 112.974 226.615L121.934 225.669C121.934 225.669 134.153 230.059 136.623 229.841C139.092 229.622 145.415 228.553 145.415 228.553C145.415 228.553 146.305 222.219 145.857 221.217C145.409 220.214 143.359 219.52 143.359 219.52Z" fill="#AE7461"/>
<path d="M101.063 235.323C101.063 235.323 108.595 227.254 110.678 226.167C112.761 225.081 124.375 223.171 124.375 223.171C124.375 223.171 128.094 221.631 129.455 222.175C130.815 222.718 145.235 224.896 145.868 224.975C146.501 225.053 142.788 237.675 142.788 237.675C139.192 238.193 135.531 238.039 131.991 237.222C126.19 235.861 124.191 234.047 124.191 234.047L118.4 232.523L114.85 233.873C114.85 233.873 114.217 239.126 111.675 238.851L110.499 238.034L111.406 232.232L107.687 233.772C107.687 233.772 104.781 238.129 102.608 237.491C100.435 236.852 101.063 235.323 101.063 235.323Z" fill="#AE7461"/>
<path d="M101.062 235.323C101.009 235.529 100.99 235.743 101.006 235.956C101.032 236.212 101.129 236.457 101.286 236.661C101.511 236.939 101.804 237.153 102.137 237.283C102.541 237.482 102.998 237.549 103.442 237.473C103.968 237.33 104.46 237.08 104.887 236.74C105.946 235.886 106.868 234.873 107.619 233.738L111.332 232.187L111.483 232.12V232.282C111.215 234.029 110.923 235.989 110.593 238.089L110.548 237.989L111.724 238.801H111.674C111.914 238.82 112.155 238.787 112.381 238.705C112.607 238.623 112.813 238.493 112.984 238.325C113.354 237.966 113.648 237.538 113.852 237.065C114.289 236.064 114.581 235.006 114.72 233.923V233.85L114.787 233.822L118.327 232.467H118.366H118.405L124.207 233.979H124.24C125.467 234.857 126.819 235.546 128.25 236.023C129.74 236.552 131.265 236.977 132.814 237.294C134.42 237.615 136.049 237.802 137.686 237.854C139.371 237.915 141.058 237.821 142.726 237.574L142.614 237.675C142.871 236.785 143.174 235.833 143.42 234.875C144.221 232.019 145.022 229.213 145.599 226.436C145.671 226.096 145.726 225.752 145.761 225.405C145.767 225.327 145.767 225.249 145.761 225.17C145.727 225.114 145.761 225.131 145.761 225.17H145.694L145.173 225.092L143.101 224.778L139.041 224.14C136.381 223.709 133.799 223.283 131.319 222.813C130.703 222.684 130.098 222.577 129.482 222.393C128.916 222.223 128.316 222.203 127.74 222.337C126.59 222.561 125.464 222.899 124.38 223.345H124.352C120.298 224.022 116.585 224.694 113.343 225.467C112.563 225.647 111.794 225.873 111.041 226.145C110.369 226.457 109.751 226.875 109.21 227.382C108.09 228.312 107.16 229.23 106.303 230.059C104.59 231.739 103.291 233.072 102.383 233.979L101.37 235.026C101.135 235.261 101.011 235.373 101.011 235.373C101.011 235.373 101.118 235.245 101.342 234.998L102.327 233.929C103.207 233.005 104.495 231.638 106.191 229.958C107.043 229.124 107.989 228.194 109.087 227.253C109.361 227.018 109.647 226.777 109.949 226.553C110.258 226.322 110.597 226.134 110.957 225.993C111.719 225.716 112.497 225.484 113.287 225.299C116.535 224.504 120.242 223.821 124.302 223.121H124.274C125.374 222.664 126.516 222.317 127.684 222.085C128.304 221.943 128.951 221.964 129.56 222.146C130.12 222.32 130.747 222.426 131.358 222.555C133.827 223.02 136.398 223.434 139.075 223.86L143.135 224.493L145.207 224.812L145.727 224.89H145.839H145.901C145.938 224.915 145.969 224.948 145.992 224.987C146.014 225.026 146.027 225.07 146.03 225.114C146.038 225.211 146.038 225.309 146.03 225.405C145.996 225.765 145.942 226.122 145.867 226.475C145.307 229.275 144.484 232.075 143.683 234.937C143.409 235.9 143.123 236.857 142.877 237.737V237.826H142.787C141.103 238.078 139.399 238.171 137.697 238.106C136.045 238.06 134.4 237.872 132.78 237.546C131.217 237.229 129.678 236.798 128.177 236.258C127.446 235.998 126.73 235.697 126.032 235.357C125.339 235.03 124.683 234.628 124.078 234.158L124.134 234.186L118.343 232.657H118.422L114.871 234.007L114.95 233.906C114.806 235.016 114.502 236.098 114.048 237.121C113.833 237.621 113.518 238.072 113.124 238.448C112.928 238.636 112.695 238.781 112.439 238.873C112.183 238.964 111.911 239.001 111.64 238.98H111.612L110.436 238.162L110.38 238.123V238.056C110.711 235.961 111.024 234.001 111.299 232.254L111.427 232.355L107.703 233.884L107.737 233.856C106.967 235 106.022 236.017 104.937 236.869C104.494 237.212 103.985 237.462 103.442 237.602C102.977 237.679 102.5 237.604 102.081 237.389C101.738 237.251 101.438 237.023 101.213 236.729C101.054 236.513 100.959 236.257 100.939 235.989C100.918 235.76 100.961 235.53 101.062 235.323Z" fill="#6F4439"/>
<path d="M123.86 228.48C123.674 228.501 123.487 228.501 123.3 228.48C122.936 228.452 122.41 228.402 121.755 228.335L119.47 228.077L118.809 228.004C118.592 227.968 118.371 227.968 118.154 228.004C117.679 228.077 117.208 228.174 116.743 228.295C114.856 228.855 112.963 229.208 112.263 230.328C111.96 230.736 111.733 231.195 111.591 231.683C111.49 232.031 111.462 232.243 111.445 232.243C111.415 232.056 111.429 231.865 111.484 231.683C111.586 231.164 111.796 230.671 112.1 230.239C112.312 229.935 112.571 229.669 112.868 229.449C113.211 229.208 113.589 229.019 113.988 228.889C114.875 228.566 115.778 228.287 116.692 228.055C117.168 227.927 117.65 227.828 118.137 227.758C118.379 227.721 118.624 227.721 118.865 227.758L119.52 227.847L121.805 228.161C122.455 228.256 122.976 228.34 123.34 228.402C123.516 228.404 123.691 228.43 123.86 228.48Z" fill="#6F4439"/>
<path d="M103.645 232.641C103.834 232.415 104.042 232.205 104.266 232.014C104.686 231.627 105.302 231.084 106.081 230.434C106.859 229.785 107.805 229.023 108.881 228.234C109.441 227.842 110.001 227.438 110.639 227.058C110.963 226.864 111.298 226.689 111.641 226.531C112.006 226.389 112.381 226.271 112.761 226.178C115.341 225.554 117.961 225.105 120.601 224.834L122.987 224.538C123.277 224.489 123.572 224.465 123.866 224.465C123.585 224.553 123.296 224.615 123.004 224.65L120.635 225.036C118.636 225.389 115.83 225.635 112.851 226.458C112.487 226.549 112.13 226.663 111.781 226.8C111.448 226.95 111.122 227.118 110.807 227.304C110.185 227.674 109.609 228.066 109.06 228.452C107.94 229.225 107.016 229.964 106.221 230.591L104.35 232.098C104.129 232.297 103.894 232.478 103.645 232.641Z" fill="#6F4439"/>
<path d="M197.462 180.04C194.779 183.834 192.407 187.838 190.367 192.012C187.673 197.612 178.971 216.68 178.971 216.68L143.506 218.54L144.032 232.243C144.032 232.243 178.282 244.445 185.948 242.088C193.615 239.73 201.785 230.888 201.785 230.888L205.453 173.096C205.453 173.096 202.412 172.53 197.462 180.04Z" fill="#407BFF"/>
<path d="M204.875 173.236C204.875 173.236 195.781 193.861 194.453 202.597C191.816 219.957 190.931 230.793 190.931 230.793L187.84 257.634H248.404C248.404 257.634 250.409 207.889 249.121 191.212C248.157 178.713 238.581 170.929 234.667 166.656C234.432 166.398 233.357 162.898 233.357 162.898L205.133 170.128L204.875 173.236Z" fill="#407BFF"/>
<path d="M201.946 176.365C201.933 176.433 201.91 176.499 201.879 176.561C201.817 176.701 201.745 176.892 201.644 177.121L200.742 179.277C199.964 181.148 198.838 183.864 197.707 187.313C196.391 191.346 195.346 195.462 194.577 199.633C193.675 204.343 192.947 209.568 192.337 215.072C191.217 226.093 190.214 236.067 189.481 243.302C189.105 246.903 188.803 249.82 188.59 251.853C188.478 252.85 188.394 253.628 188.333 254.177C188.299 254.435 188.277 254.631 188.26 254.782C188.252 254.852 188.239 254.921 188.221 254.989C188.216 254.92 188.216 254.851 188.221 254.782C188.221 254.631 188.249 254.429 188.265 254.172C188.316 253.612 188.383 252.844 188.467 251.842C188.657 249.804 188.932 246.886 189.268 243.28C189.968 236.056 190.892 226.065 192.068 215.039C192.673 209.534 193.412 204.298 194.308 199.583C195.09 195.397 196.159 191.269 197.505 187.229C198.665 183.785 199.818 181.069 200.63 179.216C201.033 178.28 201.364 177.564 201.588 177.082C201.694 176.847 201.778 176.668 201.845 176.522C201.876 176.468 201.91 176.416 201.946 176.365Z" fill="#263238"/>
<g opacity="0.3">
<path d="M233.413 208.835C232.853 203.342 230.383 197.826 225.864 194.656L188.938 247.386C195.456 250.903 202.697 254.531 209.937 252.986C213.857 252.151 217.296 249.855 220.107 247.027C225.948 241.153 229.117 233.151 231.341 225.187C232.825 219.856 233.967 214.329 233.413 208.835Z" fill="black"/>
</g>
<path d="M237.597 202.468C232.999 218.747 222.645 238.61 219.464 242.603C217.168 245.539 214.237 247.917 210.891 249.559C207.546 251.201 203.871 252.064 200.144 252.084C195.978 252.084 160.765 245.224 150.304 243.174C149.444 243.004 148.653 242.584 148.028 241.968C147.404 241.352 146.975 240.566 146.793 239.708L146.703 239.277L142.027 238L144.531 225.394L145.029 224.694L195.39 226.279L210.039 185.472C210.319 185.007 214.547 171.315 226.022 171.937" fill="#407BFF"/>
<path d="M226.022 171.948H225.641C225.267 171.937 224.894 171.946 224.521 171.976C223.062 172.062 221.63 172.401 220.287 172.978C218.142 173.956 216.251 175.414 214.76 177.24C212.746 179.713 211.174 182.514 210.112 185.522C206.411 195.86 201.387 209.904 195.502 226.34L195.474 226.43H195.379L145.04 224.851L145.163 224.789L144.665 225.489V225.433C143.943 229.079 143.175 232.954 142.425 236.874L142.195 238.039L142.089 237.865L146.787 239.131L146.877 239.159V239.243C147.014 240.28 147.502 241.238 148.26 241.959C148.638 242.307 149.074 242.586 149.548 242.782C150.036 242.961 150.541 243.091 151.055 243.168L157.215 244.372L169.255 246.685C177.145 248.18 184.744 249.603 191.996 250.829C193.811 251.132 195.603 251.389 197.372 251.669C198.257 251.781 199.142 251.904 200.01 251.944C200.881 251.954 201.753 251.911 202.619 251.815C205.967 251.455 209.207 250.417 212.139 248.763C214.862 247.199 217.272 245.145 219.246 242.704C220.137 241.529 220.953 240.298 221.687 239.019C222.421 237.77 223.115 236.532 223.771 235.317C227.887 227.631 231.493 219.682 234.567 211.523C235.631 208.633 236.393 206.365 236.875 204.803C237.11 204.036 237.295 203.448 237.435 203.044C237.575 202.641 237.625 202.451 237.625 202.451C237.625 202.451 237.575 202.652 237.463 203.05L236.947 204.82C236.483 206.371 235.738 208.644 234.707 211.54C231.668 219.721 228.083 227.689 223.978 235.39C223.328 236.611 222.634 237.848 221.906 239.103C221.169 240.395 220.348 241.637 219.447 242.821C217.45 245.302 215.005 247.388 212.24 248.97C209.283 250.645 206.015 251.698 202.636 252.067C201.759 252.168 200.876 252.213 199.993 252.201C199.097 252.162 198.218 252.039 197.327 251.927C195.552 251.675 193.755 251.367 191.94 251.092C184.66 249.872 177.083 248.455 169.187 246.965L157.147 244.652L150.987 243.454C150.456 243.373 149.934 243.238 149.431 243.051C148.922 242.844 148.455 242.546 148.053 242.172C147.251 241.411 146.732 240.4 146.58 239.304L146.687 239.416L141.988 238.151L141.859 238.112V237.983C141.932 237.613 142.016 237.216 142.095 236.818C142.873 232.898 143.64 229.023 144.335 225.377V225.344L144.833 224.644L144.878 224.582H145.04L195.401 226.184L195.278 226.268L209.972 185.477C211.045 182.467 212.633 179.666 214.665 177.2C216.176 175.365 218.093 173.906 220.265 172.939C221.618 172.368 223.06 172.04 224.527 171.97C224.899 171.945 225.274 171.945 225.647 171.97L226.022 171.948Z" fill="#263238"/>
<path d="M184.296 223.059C183.627 221.781 182.812 220.586 181.866 219.497C180.855 218.476 179.727 217.578 178.506 216.82C178.923 216.931 179.318 217.111 179.676 217.352C180.574 217.879 181.391 218.534 182.101 219.296C182.81 220.058 183.406 220.918 183.871 221.849C184.074 222.228 184.217 222.636 184.296 223.059Z" fill="#263238"/>
<path d="M201.483 236.162C201.432 236.162 201.331 235.518 201.04 234.482C200.654 233.162 200.099 231.897 199.388 230.719C198.668 229.547 197.796 228.476 196.795 227.533C196.028 226.805 195.491 226.413 195.519 226.379C195.666 226.433 195.804 226.511 195.927 226.609C196.279 226.843 196.616 227.099 196.935 227.376C199.066 229.226 200.571 231.691 201.242 234.432C201.345 234.842 201.418 235.259 201.46 235.68C201.493 235.839 201.5 236.001 201.483 236.162Z" fill="#263238"/>
<g opacity="0.3">
<path d="M188.047 225.971L190.976 226.083C191.452 214.575 193.82 203.123 195.848 191.771C190.679 202.333 189.324 214.289 188.047 225.971Z" fill="black"/>
</g>
<path d="M233.688 166.655C233.6 166.701 233.506 166.733 233.408 166.751L232.602 166.975L229.634 167.764C227.131 168.431 223.675 169.383 219.834 170.351C215.992 171.32 212.481 172.071 209.916 172.491C208.634 172.703 207.592 172.855 206.87 172.927L206.035 173.011C205.939 173.025 205.841 173.025 205.744 173.011C205.836 172.977 205.932 172.954 206.03 172.944L206.853 172.804C207.57 172.698 208.606 172.513 209.877 172.278C212.425 171.807 215.925 171.029 219.761 170.038C223.597 169.047 227.041 168.145 229.583 167.529C230.843 167.221 231.868 166.969 232.579 166.829L233.397 166.661C233.493 166.646 233.591 166.645 233.688 166.655Z" fill="#263238"/>
</svg>
