<svg width="563" height="563" viewBox="0 0 563 563" fill="none" xmlns="http://www.w3.org/2000/svg">
<g opacity="0.8">
<path d="M252.275 220.693C259.378 220.318 279.73 220.048 286.115 219.713C284.713 215.623 283.497 212.29 282.427 208.909C268.597 165.206 294.458 118.604 338.834 107.24C384.183 95.625 428.872 125.002 437.598 172.168C445.517 214.961 412.84 259.934 368.642 264.021C342.831 266.408 301.715 264.742 275.693 264.587C273.441 264.573 269.996 262.74 269.157 260.843C263.549 248.178 258.218 235.269 252.275 220.693ZM393.628 184.706C393.571 164.536 378.427 149.411 358.398 149.527C338.555 149.642 323.18 165.136 323.225 184.97C323.27 204.782 338.783 220.166 358.663 220.116C378.734 220.062 393.684 204.923 393.628 184.706Z" fill="#000047"/>
<path d="M83.9375 396.068C90.4796 395.724 95.631 395.454 102.576 395.088C101.174 390.998 99.9577 387.665 98.888 384.284C85.0579 340.581 110.919 293.979 155.295 282.615C200.645 271 245.333 300.377 254.059 347.543C261.978 390.336 229.301 435.309 185.103 439.396C159.292 441.783 133.096 440.117 107.074 439.962C104.822 439.948 101.376 438.115 100.538 436.218C94.9301 423.553 89.88 410.644 83.9375 396.068ZM210.089 360.081C210.033 339.911 194.888 324.786 174.859 324.902C155.016 325.017 139.641 340.511 139.686 360.345C139.731 380.157 155.244 395.541 175.124 395.49C195.195 395.437 210.145 380.298 210.089 360.081Z" fill="#000047"/>
<path d="M98.8088 167.578C111.915 172.864 124.589 177.7 136.952 183.237C139.049 184.178 140.445 187.986 141.062 190.717C145.301 209.507 160.01 221.226 178.383 220.1C195.383 219.058 209.751 205.394 211.217 188.876C212.92 169.678 201.824 154.15 182.645 150.308C176.905 149.159 174.149 146.662 172.241 141.542C168.052 130.313 163.43 119.244 159.002 108.153C184.602 97.3574 222.294 111.922 241.597 139.267C263.261 169.959 260.55 210.616 234.976 238.623C209.692 266.308 168.897 273.095 137.4 254.851C106.181 236.77 88.976 199.094 98.8088 167.578Z" fill="#1565D8"/>
<path d="M394.096 280.092C385.677 280.092 445.588 280.109 437.901 280.109C437.901 285.3 437.901 334.036 437.901 337.94C437.901 368.854 437.605 399.777 438.089 430.683C438.224 439.328 435.308 442.112 426.914 441.448C419.533 440.865 412.036 440.887 404.653 441.442C396.633 442.044 393.821 439.359 393.93 431.131C394.353 399.915 394.099 368.688 394.096 337.467C394.096 333.839 394.096 285.381 394.096 280.092Z" fill="#1565D8"/>
<path d="M147.064 437.219C141.868 419.462 137.293 403.228 132.142 387.18C131.638 385.609 127.601 384.427 125.163 384.354C114.962 384.044 104.71 383.771 94.5532 384.508C91.5271 384.728 86.9583 387.734 86.1194 390.411C77.4042 418.212 77.5309 417.925 66.7832 452.8C66.7832 452.8 104.527 477.691 113.087 447.663C115.525 439.108 119.325 436.054 127.877 437.09C133.58 437.779 139.436 437.219 147.064 437.219Z" fill="#000047"/>
<path d="M361.024 374.883L345.986 370.069L365.891 305.544L371.017 284.597L388.273 283.68L381.225 310.315L361.024 374.883Z" fill="#1565D8"/>
<path d="M362.952 368.543C347.647 368.543 334.723 368.844 321.819 368.461C308.254 368.056 299.609 358.994 299.693 346.105C299.778 333.187 308.555 324.063 321.932 323.779C337.412 323.449 352.908 323.41 368.385 323.784C374.803 323.939 377.925 321.589 379.51 315.469C382.429 304.201 385.917 293.081 389.619 280.352C377.334 280.352 366.578 280.352 355.822 280.352C344.671 280.352 333.521 280.262 322.371 280.377C290.024 280.707 264.109 301.737 257.142 333.215C250.788 361.919 266.392 392.546 294.331 406.154C297.368 407.635 300.482 408.958 304.147 410.619C301.442 420.432 298.784 430.079 295.727 441.164C310.481 441.164 323.705 441.291 336.922 440.998C338.538 440.962 341.046 438.971 341.552 437.381C348.587 415.345 355.338 393.225 362.952 368.543Z" fill="#000047"/>
</g>
</svg>
