<svg width="355" height="356" viewBox="0 0 355 356" fill="none" xmlns="http://www.w3.org/2000/svg">
<path opacity="0.2" d="M6.13169 139.781C35.1883 151.51 63.2839 162.24 90.693 174.525C95.3423 176.61 98.4377 185.061 99.8044 191.119C109.203 232.807 141.811 258.807 182.544 256.309C220.231 253.998 252.084 223.682 255.335 187.034C259.111 144.44 234.51 109.99 191.992 101.465C179.267 98.9172 173.158 93.3775 168.926 82.017C159.64 57.1039 149.393 32.5468 139.576 7.93979C196.329 -16.0115 279.892 16.3024 322.684 76.9707C370.713 145.065 364.703 235.268 308.006 297.404C251.952 358.828 161.512 373.885 91.6853 333.409C22.476 293.294 -15.667 209.705 6.13169 139.781Z" fill="#9D9D9D" fill-opacity="0.6"/>
</svg>
