<svg width="381" height="316" viewBox="0 0 381 316" fill="none" xmlns="http://www.w3.org/2000/svg">
<path opacity="0.2" d="M-0.00195385 257.846C14.548 257.083 26.0051 256.482 41.4503 255.669C38.3324 246.576 35.6278 239.167 33.2487 231.652C2.48982 134.501 60.007 30.9052 158.701 5.64298C259.561 -20.1762 358.95 45.1289 378.358 149.976C395.97 245.106 323.295 345.078 224.996 354.165C167.591 359.471 109.329 355.767 51.4549 355.422C46.4463 355.391 38.7832 351.317 36.9175 347.1C24.4461 318.946 13.2144 290.249 -0.00195385 257.846ZM280.566 177.848C280.441 133.012 246.758 99.3893 202.213 99.6459C158.081 99.9025 123.885 134.345 123.985 178.436C124.085 222.478 158.588 256.676 202.801 256.563C247.44 256.445 280.691 222.791 280.566 177.848Z" fill="#9D9D9D" fill-opacity="0.6"/>
</svg>
