<svg width="335" height="335" viewBox="0 0 335 335" fill="none" xmlns="http://www.w3.org/2000/svg">
<g clip-path="url(#clip0_498_1240)">
<path d="M335 0H0V335H335V0Z" fill="#F1F3E1"/>
<path d="M26.2486 213.925C30.743 200.746 42.9738 191.758 56.8549 187.539C60.4655 186.441 64.3421 185.942 67.5883 184.069C75.3536 179.59 77.7187 169.643 77.9391 160.93C79.1706 112.186 127.8 105.595 137.136 106.458C174.168 109.881 169.184 138.645 190.821 154.701C204.802 165.075 226.724 148.613 242.191 156.691C255.317 163.545 255.273 182.952 267.273 191.498C275.885 197.632 282.539 189.169 297.201 202.237C316.068 219.053 321.151 265.421 295.014 291.963L51.7086 293.005C42.75 291.49 8.58071 265.734 26.2486 213.925Z" fill="#E4E8C4"/>
<path d="M236.456 270.388C243.94 257.792 252.589 245.886 262.254 234.874C263.705 239.543 266.174 243.892 269.441 247.53C270.852 243.125 264.971 236.543 266.992 232.382C267.838 230.638 297.778 213.925 320.743 209.974C319.376 226.781 316.04 242.951 308.48 259.816C305.511 258.085 300.391 258.556 297.423 256.826C299.477 261.485 303.368 263.5 304.815 266.254C293.174 279.317 276.322 293.227 270.842 295.224C259.385 299.401 246.962 296.574 235.802 292.84C229.847 290.847 228.376 290.464 230.177 284.242C231.576 279.406 233.894 274.699 236.456 270.388Z" fill="#CBD593"/>
<path d="M244.461 294.338C261.346 266.846 283.191 242.62 308.818 223.017C309.494 222.501 308.827 221.336 308.141 221.86C282.324 241.608 260.316 265.963 243.304 293.661C242.852 294.399 244.01 295.073 244.461 294.338Z" fill="#F4F0FF"/>
<path d="M245.177 267.329C248.414 271.189 250.223 275.717 250.548 280.745C250.569 281.071 250.84 281.464 251.218 281.415C259.822 280.312 268.458 280.035 277.115 280.585C277.976 280.64 277.973 279.3 277.115 279.245C269.25 278.746 261.629 279.334 253.794 279.759C252.03 279.854 252.093 280.012 251.67 278.398C251.251 276.799 251.04 275.221 250.458 273.657C249.457 270.963 247.966 268.577 246.125 266.381C245.569 265.719 244.625 266.671 245.177 267.329Z" fill="#F4F0FF"/>
<path d="M258.909 250.474C261.562 255.027 263.222 259.899 263.857 265.13C263.9 265.484 264.129 265.808 264.527 265.8C271.582 265.656 278.611 265.968 285.626 266.737C286.483 266.831 286.476 265.49 285.626 265.397C282.123 265.013 278.614 264.72 275.093 264.564C273.333 264.486 271.572 264.438 269.81 264.421C268.73 264.41 266.334 264.875 265.453 264.216C264.221 263.294 264.025 258.815 263.475 257.179C262.606 254.594 261.437 252.151 260.065 249.797C259.632 249.053 258.473 249.726 258.909 250.474Z" fill="#F4F0FF"/>
<path d="M276.562 234.311C278.313 238.269 279.402 242.354 279.857 246.657C279.901 247.077 280.25 247.435 280.705 247.303C288.573 245.018 296.553 243.227 304.643 241.932C305.492 241.796 305.132 240.504 304.287 240.639C296.196 241.935 288.217 243.725 280.348 246.011C280.631 246.226 280.914 246.441 281.197 246.656C280.716 242.109 279.568 237.815 277.719 233.634C277.371 232.848 276.216 233.529 276.562 234.311Z" fill="#F4F0FF"/>
<path d="M212.813 182.913C213.659 173.636 214.959 164.168 219.293 155.923C223.627 147.678 231.578 140.784 240.867 140.096C249.993 139.422 260.318 145.006 265.15 152.778C269.981 160.55 269.738 170.136 268.74 179.233C267.682 188.88 264.328 198.106 261 207.223C251.191 234.095 242.133 253.581 225.62 276.941C208.625 300.983 189.109 297.68 198.609 285.439C217.5 253.259 209.544 218.741 212.813 182.913Z" fill="#98AB26"/>
<path d="M204.763 296.634C214.586 282.038 221.238 265.109 227.171 248.64C234.675 227.81 240.761 206.326 244.564 184.502C246.388 174.032 247.691 163.422 247.725 152.782C247.727 151.92 246.387 151.918 246.385 152.782C246.319 173.045 242.071 193.305 236.924 212.819C231.584 233.069 224.864 253.094 216.29 272.214C212.622 280.392 208.618 288.509 203.605 295.958C203.123 296.675 204.283 297.347 204.763 296.634Z" fill="#F4F0FF"/>
<path d="M227.635 156.735C232.573 165.597 237.174 174.754 244.135 182.248C244.338 182.467 244.695 182.496 244.947 182.352C251.937 178.392 259.632 175.921 266.237 171.217C266.933 170.721 266.265 169.558 265.561 170.06C262.176 172.47 258.462 174.377 254.736 176.196C251.837 177.611 248.586 179.716 245.472 180.567C244.32 180.882 245.181 180.993 244.309 180.465C243.584 180.027 242.617 178.514 242.092 177.857C240.205 175.497 238.517 172.982 236.926 170.415C234.027 165.74 231.47 160.863 228.793 156.059C228.373 155.306 227.215 155.981 227.635 156.735Z" fill="#F4F0FF"/>
<path d="M218.111 184.445C225.326 190.037 231.123 197.433 237.489 203.925C237.933 204.378 238.632 205.396 239.299 205.569C240.89 205.983 244.271 203.312 245.619 202.558C251.784 199.114 257.464 195.018 262.489 190.049C263.104 189.442 262.156 188.494 261.542 189.101C256.868 193.723 251.619 197.585 245.92 200.849C244.543 201.637 240.59 204.468 239.439 203.983C238.491 203.584 237.354 201.849 236.66 201.116C231.016 195.142 225.578 188.549 219.059 183.497C218.385 182.975 217.43 183.917 218.111 184.445Z" fill="#F4F0FF"/>
<path d="M66.3107 285.52C57.2121 282.008 38.0011 273.799 43.5132 267.944C46.0298 266.309 49.1613 265.648 52.1234 266.126C53.7321 264.141 50.6474 261.79 48.2394 260.939C41.8141 258.667 17.1729 250.891 23.7824 243.894C25.9492 241.298 34.7865 242.127 34.3664 241.746C27.1277 235.181 23.0742 231.148 17.4094 222.439C13.8188 216.918 10.7409 205.947 16.998 204.01C21.0106 203.921 24.2239 207.248 26.4939 210.559C28.7639 213.869 32.5179 219.838 36.564 223.653C36.3797 220.684 34.8676 204.963 43.3799 208.551C48.7004 210.793 51.0956 226.478 55.6047 232.247C56.2071 233.018 57.1826 233.855 58.0382 233.379C58.5675 233.085 58.7376 232.425 58.9949 231.876C60.5399 228.587 65.8745 229.314 68.0439 232.229C70.2134 235.144 70.2838 239.045 70.74 242.65C71.1963 246.254 72.5041 250.272 75.8367 251.72C76.3138 249.635 76.8417 247.45 78.2849 245.873C79.7281 244.296 82.4034 243.629 84.0121 245.037C84.7872 245.716 85.1732 246.725 85.5182 247.696C91.1502 263.538 102.625 283.549 109.163 298.419C107.881 297.43 73.4254 288.266 66.3107 285.52Z" fill="#98AB26"/>
<path d="M20.5475 216.644C45.503 248.409 77.2221 273.922 108.691 298.894C109.359 299.425 110.313 298.483 109.638 297.947C78.1695 272.975 46.451 247.462 21.4949 215.697C20.9629 215.018 20.0209 215.973 20.5475 216.644Z" fill="#F4F0FF"/>
<path d="M30.6847 248.327C37.6996 249.961 44.9999 250.785 52.2064 250.805C52.6057 250.806 53.0131 250.37 52.8523 249.957C49.5532 241.47 45.8709 232.519 44.5336 223.474C44.4076 222.624 43.1165 222.986 43.2412 223.831C44.5785 232.875 48.2608 241.826 51.5599 250.313C51.775 250.031 51.9907 249.748 52.2058 249.465C45.1145 249.445 37.9421 248.642 31.0405 247.035C30.2016 246.84 29.8438 248.131 30.6847 248.327Z" fill="#F4F0FF"/>
<path d="M50.9273 272.553C55.4786 273.041 60.0078 273.698 64.5846 273.92C68.5784 274.114 73.1592 274.316 76.8328 272.461C77.1605 272.296 77.2409 271.846 77.0734 271.545C71.5713 261.651 68.8887 250.335 64.3809 239.976C64.0379 239.188 62.8828 239.869 63.2238 240.652C67.7336 251.017 70.4082 262.316 75.9163 272.221C75.9967 271.915 76.0764 271.61 76.1568 271.304C72.2534 273.275 67.0696 272.766 62.8513 272.477C58.8601 272.203 54.9031 271.639 50.9273 271.213C50.0704 271.121 50.0771 272.462 50.9273 272.553Z" fill="#F4F0FF"/>
<path d="M124.742 267.97C117.361 263.297 110.088 259.898 102.708 255.224C92.8798 249.001 31.607 213.925 36.2595 162.227C37.0836 153.072 42.2479 142.148 51.1543 139.876C77.5054 133.153 77.4531 166.469 78.8407 173.662C82.0178 190.131 90.6233 205.159 101.251 218.135C111.878 231.11 124.533 242.251 137.056 253.408C139.789 255.843 142.761 258.866 142.402 262.508C142.27 263.837 141.691 265.075 141.12 266.282C137.838 273.224 129.84 271.199 124.742 267.97Z" fill="#CBD593"/>
<path d="M52.1456 148.395C51.3577 158.502 52.5596 167.693 56.0778 177.166C58.9407 184.875 62.4522 192.344 66.5405 199.479C76.0371 216.05 88.5942 230.778 103.144 243.124C112.52 251.079 122.695 258.022 133.39 264.078C134.142 264.503 134.818 263.346 134.066 262.921C100.945 244.166 73.0161 215.953 58.7149 180.294C57.0413 176.12 55.3341 171.811 54.3613 167.411C52.9884 161.204 52.9938 154.704 53.4856 148.395C53.5526 147.536 52.2126 147.54 52.1456 148.395Z" fill="#F4F0FF"/>
<path d="M40.0985 161.25C44.7335 165.858 49.4858 170.098 55.0884 173.505C55.4689 173.736 55.9473 173.509 56.0726 173.104C58.0645 166.677 61.2102 160.314 65.5625 155.154C66.1152 154.499 65.1719 153.546 64.6151 154.207C60.1047 159.555 56.8471 166.081 54.7808 172.748C55.1091 172.615 55.4368 172.482 55.7651 172.348C50.2644 169.003 45.5931 164.823 41.0465 160.303C40.4335 159.695 39.4861 160.641 40.0985 161.25Z" fill="#F4F0FF"/>
<path d="M43.3818 184.807C47.5385 186.827 51.6389 188.962 55.7835 191.006C57.7312 191.966 59.6796 192.935 61.6695 193.805C62.4192 194.134 63.4758 194.812 64.328 194.711C64.6175 194.677 64.9002 194.528 64.9739 194.219C66.6415 187.288 68.4157 180.293 70.9282 173.614C71.2324 172.806 69.9373 172.457 69.6364 173.258C67.9527 177.733 66.669 182.36 65.4382 186.976C64.9625 188.76 64.5015 190.549 64.056 192.341C63.9508 192.765 63.8503 193.19 63.7424 193.614C63.7163 193.717 64.4553 193.7 63.8356 193.253C62.8044 192.512 61.1509 192.111 59.9871 191.56C58.1077 190.669 56.2445 189.745 54.3839 188.817C50.9394 187.099 47.5204 185.33 44.0585 183.648C43.286 183.274 42.6053 184.429 43.3818 184.807Z" fill="#F4F0FF"/>
<path d="M52.7788 206.526C60.2137 209.738 67.8832 212.675 75.7698 214.572C76.1195 214.655 76.4981 214.463 76.5939 214.103C78.3707 207.464 79.1278 200.649 79.5727 193.806C79.629 192.945 78.2883 192.948 78.2327 193.806C77.7952 200.53 77.0475 207.224 75.3015 213.747C75.5762 213.591 75.8509 213.435 76.1256 213.278C68.3549 211.411 60.7799 208.534 53.4541 205.368C52.6716 205.03 51.9888 206.184 52.7788 206.526Z" fill="#F4F0FF"/>
<path d="M49.326 237.067C48.0698 230.02 47.7595 222.188 51.8398 216.306C55.2307 211.418 61.1307 208.783 67.008 207.857C71.4923 207.15 125.541 202.76 127.52 204.728C129.352 206.55 135.025 209.904 137.297 219.346C140.024 230.678 148.283 279.013 145.955 289.134C139.505 290.74 77.8499 291.053 68.2575 291.138C67.8649 287.549 51.3735 248.551 49.326 237.067Z" fill="#617262"/>
<path d="M154.287 189.385C169.251 192.791 175.135 224.123 177.412 231.736C179.901 240.057 183.463 248.056 187.983 255.473C190.257 259.205 192.829 263.86 190.613 267.626C189.214 270.004 186.279 271.066 183.524 271.194C178.036 271.448 172.741 268.688 168.825 264.837C164.909 260.985 162.176 256.113 159.647 251.237C152.16 236.799 147.768 225.873 144.35 209.974C144.161 209.103 142.744 186.757 154.287 189.385Z" fill="#D8702A"/>
<path d="M186.837 274.462C188.75 276.412 196.906 277.407 197.577 276.94C196.869 272.692 192.693 275.105 192.177 271.829C193.447 270.941 194.954 271.21 196.198 271.21C197.284 271.209 198.298 272.173 198.758 273.34C199.453 275.105 199.195 275.654 199.466 277.531C199.733 279.382 201.613 280.735 201.614 279.555C201.616 277.387 201.619 274.04 201.621 271.872C202.156 273.8 202.535 279.891 205.132 279.316C205.765 276.401 204.417 273.834 204.404 270.851C205.141 273.382 205.132 279.316 207.728 278.475C207.834 275.754 206.826 273.005 206.932 270.285C207.515 272.685 208.436 277.884 209.872 277.046C210.305 274.428 209.591 271.659 209.026 269.066C208.683 267.489 208.768 265.962 207.622 264.826C206.918 264.128 196.976 262.2 192.853 262.443C190.251 262.596 186.943 262.197 185.305 263.499C178.93 268.561 184.695 272.278 186.837 274.462Z" fill="#FFBB8E"/>
<path d="M86.4002 219.818C89.8045 236.373 101.042 238.49 103.135 255.261C104.532 266.453 99.8525 280.318 96.6686 291.138C122.531 292.047 148.716 291.575 167.829 290.749C167.13 275.077 160.87 254.262 162.321 238.642C163.152 229.685 165.131 221.373 163.862 212.469C162.593 203.564 158.748 190.667 154.287 189.385C145.616 186.892 138.33 184.648 128.34 183.562C123.977 183.088 111.171 181.754 100.118 183.31C93.1759 184.288 87.2947 185.587 84.8029 186.598C68.3176 193.286 83.4549 205.496 86.4002 219.818Z" fill="#ED7C2A"/>
<path d="M129.163 201.879C130.797 201.758 137.805 189.233 137.271 187.683C135.391 183.377 131.91 187.723 130.786 184.531C129.888 181.98 134.316 170.369 131.828 167.392C130.343 165.614 115.506 160.114 112.873 165.133C111.631 167.498 106.975 178.111 106.975 180.871C106.975 182.478 124.588 202.216 129.163 201.879Z" fill="#EAA27A"/>
<path d="M142.46 263.499C143.411 264.616 145.121 268.43 146.183 271.652C146.535 272.72 147.04 276.115 147.04 276.115C144.349 277.413 143.389 270.874 142.46 269.033C142.187 271.056 142.578 278.593 141.869 278.529C139.274 277.885 139.554 272.221 139.746 269.506C139.511 271.309 139.011 272.94 138.48 274.68C137.94 276.453 137.3 278.121 136.454 278.986C134.789 278.711 135.905 273.498 136.206 271.171C135.255 275.173 132.811 279.317 132.811 279.317C131.131 279.317 131.28 276.897 131.818 275.524C132.358 274.145 133.688 272.466 132.901 271.21C133.066 272.416 130.615 274.154 129.443 274.481C128.269 274.808 124.985 273.669 123.814 273.336C118.221 271.744 105.267 272.312 106.998 266.083C108.183 261.816 113.631 258.286 117.559 258.884C121.009 259.408 125.825 263.5 129.715 263.5C136.677 263.499 139.672 262.434 142.46 263.499Z" fill="#FFBB8E"/>
<path d="M124.285 260.263C117.272 256.293 88.0704 243.476 87.8158 242.832C86.8402 240.364 100.728 217.075 101.602 210.204C102.475 203.333 102.343 197.317 97.4276 192.437C90.889 185.946 84.8021 186.598 84.8021 186.598C80.2622 188.189 79.0622 189.686 76.74 191.937C73.4503 195.125 71.5522 199.447 69.7338 203.651C64.3658 216.06 58.9729 228.544 55.7991 241.687C54.9315 245.281 54.2481 249.149 55.572 252.601C56.4618 254.922 58.191 256.832 60.1059 258.418C67.839 264.819 78.3741 266.358 88.329 267.653C98.6517 268.996 109.36 271.992 119.683 273.336C121.806 273.612 126.508 261.522 124.285 260.263Z" fill="#D8702A"/>
<path d="M100.072 184.064C100.064 186.808 102.245 189.415 103.39 191.908C105.327 196.126 107.265 200.343 109.202 204.56C111.683 201.316 114.162 198.07 116.643 194.825C120.155 198.705 124.563 201.77 129.423 203.711C131.729 200.73 134.035 197.748 136.341 194.766C137.28 197.574 138.526 200.28 140.048 202.82C141.393 196.236 142.549 188.729 138.516 183.353C136.604 180.804 133.632 179.077 130.47 178.678C129.261 182.696 131.988 186.848 131.958 191.044C131.933 194.454 130.104 197.556 128.331 200.469C126.021 199.008 123.795 197.413 121.67 195.694C120.608 194.835 119.536 193.9 118.99 192.648C118.523 191.576 118.47 190.335 117.851 189.344C117.214 188.324 116.087 187.739 115.168 186.963C111.391 183.771 108.983 177.565 108.983 174.059C106.056 174.06 100.087 178.803 100.072 184.064Z" fill="#D8702A"/>
<path d="M129.417 206.872C133.135 224.308 136.605 242.03 135.564 259.946C135.514 260.808 136.854 260.805 136.904 259.946C137.952 241.916 134.45 224.061 130.71 206.516C130.53 205.673 129.238 206.029 129.417 206.872Z" fill="#D8702A"/>
<path d="M136.455 155.633C136.008 158.403 136.155 161.418 137.695 163.764C139.236 166.11 142.467 167.481 144.987 166.246C148.227 164.659 148.54 160.21 148.145 156.624C147.895 154.361 147.504 152.004 146.133 150.185C141.558 144.119 137.191 151.055 136.455 155.633Z" fill="#C3CAB2"/>
<path d="M114.741 167.667C117.537 173.376 122.981 177.928 129.273 178.838C131.766 179.198 134.46 178.952 136.539 177.528C137.929 176.576 138.941 175.173 139.841 173.748C143.852 167.396 146.178 159.99 146.52 152.485C146.789 146.562 145.415 139.896 140.496 136.585C136.759 134.07 131.922 134.115 127.419 134.251C125.1 134.321 122.693 134.413 120.628 135.472C118.481 136.573 116.972 138.582 115.55 140.532C110.391 147.608 110.905 159.836 114.741 167.667Z" fill="#FFBB8E"/>
<path d="M128.664 170.086C130.592 171.897 133.359 172.471 135.825 171.468C136.613 171.147 136.269 169.85 135.469 170.175C133.438 171.002 131.224 170.652 129.611 169.138C128.984 168.548 128.034 169.493 128.664 170.086Z" fill="#E28E60"/>
<path d="M125.687 143.6C126.067 144.334 126.079 145.197 126.305 145.991C126.792 147.7 128.369 149.044 130.134 149.253C131.899 149.463 133.747 148.524 134.619 146.976C134.925 146.432 135.134 145.806 135.611 145.404C136.682 144.499 138.36 145.267 139.29 146.318C140.218 147.369 140.813 149.014 142.183 149.316C146.132 150.186 147.038 147.425 147.651 144.875C148.248 146.668 152.396 146.005 153.659 144.599C154.922 143.193 154.722 140.895 153.634 139.35C152.546 137.804 150.781 136.883 149.009 136.224C148.36 135.982 147.68 135.756 147.168 135.289C145.326 133.61 146.889 130.525 146.332 128.096C145.709 125.38 142.079 124.061 139.634 125.398C137.81 126.396 136.645 128.459 134.667 129.105C134.609 128.65 128.252 126.179 128.178 127.881C128.178 127.881 125.464 125.992 121.192 127.068C119.114 127.591 117.189 129.485 117.174 131.628C115.236 131.22 114.85 131.257 112.951 131.82C111.052 132.384 109.331 133.947 109.131 135.917C109.059 136.624 109.18 137.35 109.015 138.041C108.591 139.827 106.392 140.452 105.862 142.031C105.09 144.33 106.101 146.428 106.423 148.861C106.95 152.843 106.125 156.315 111.227 156.001C114.608 155.793 117.299 157.455 118.441 154.683C118.983 153.365 122.136 136.751 125.687 143.6Z" fill="#241F3F"/>
<path d="M104.376 153.725C103.93 156.496 104.297 160.177 105.837 162.523C107.377 164.869 110.608 166.24 113.128 165.005C116.368 163.418 116.681 158.969 116.286 155.383C116.037 153.12 115.645 150.763 114.275 148.945C109.7 142.878 105.112 149.148 104.376 153.725Z" fill="#C3CAB2"/>
<path d="M111.813 148.961C111.909 143.252 113.218 136.774 118.115 133.202C121.565 130.687 128.295 128.234 134.667 129.105C134.667 129.105 132.922 127.49 131.124 127.197C125.914 126.349 120.609 127.85 116.382 130.96C110.782 135.08 109.091 142.361 108.981 148.962C108.951 150.785 111.783 150.785 111.813 148.961Z" fill="#C3CAB2"/>
<path d="M110.301 160.159C111.427 167.218 117.422 173.449 124.644 174.107C125.502 174.186 125.497 172.845 124.644 172.767C117.987 172.161 112.618 166.229 111.593 159.803C111.458 158.954 110.166 159.314 110.301 160.159Z" fill="#C3CAB2"/>
<path d="M130.055 172.927C130.055 174.666 128.645 176.077 126.906 176.077C125.166 176.077 123.756 174.666 123.756 172.927C123.756 171.188 125.166 169.777 126.906 169.777C128.645 169.777 130.055 171.188 130.055 172.927Z" fill="#C3CAB2"/>
<path d="M136.634 162.57C136.798 163.861 137.417 165.101 138.379 166.061C138.669 166.35 139.013 166.672 138.974 167.062C138.907 167.73 137.889 167.852 137.166 167.729C135.694 167.48 134.267 167.015 132.956 166.357C132.84 166.298 132.723 166.238 132.634 166.15C132.484 166.005 132.422 165.801 132.389 165.604C132.195 164.444 132.8 163.316 133.177 162.193C133.602 160.929 133.47 154.673 135.628 155.139C138.055 155.662 136.451 161.132 136.634 162.57Z" fill="#E28E60"/>
<path d="M105.663 158.179C105.687 159.608 105.839 161.198 106.905 162.152C108.125 163.244 110.331 162.868 111.121 161.435C111.502 160.744 111.565 159.929 111.614 159.141C111.741 157.09 111.815 155.008 111.371 153C111 151.325 109.987 149.512 108.286 149.294C105.581 148.95 105.635 156.582 105.663 158.179Z" fill="#617262"/>
<path d="M130.834 156.711C130.834 157.833 130.28 158.742 129.595 158.742C128.91 158.742 128.355 157.832 128.355 156.711C128.355 155.59 128.91 154.681 129.595 154.681C130.28 154.681 130.834 155.591 130.834 156.711Z" fill="#241F3F"/>
<path d="M141.3 159.29C141.985 159.29 142.54 158.381 142.54 157.26C142.54 156.138 141.985 155.229 141.3 155.229C140.615 155.229 140.061 156.138 140.061 157.26C140.061 158.381 140.615 159.29 141.3 159.29Z" fill="#241F3F"/>
<path d="M126.299 152.619C127.325 151.571 128.756 151.271 130.129 151.764C130.941 152.057 131.292 150.763 130.485 150.472C128.683 149.823 126.685 150.309 125.352 151.672C124.748 152.289 125.695 153.237 126.299 152.619Z" fill="#241F3F"/>
<path d="M140.575 152.281C141.604 152.382 142.537 152.763 143.38 153.357C144.086 153.854 144.757 152.693 144.056 152.2C143.014 151.465 141.839 151.065 140.575 150.941C139.717 150.858 139.723 152.198 140.575 152.281Z" fill="#241F3F"/>
<path d="M304.655 297.712H38.2092C35.0019 297.712 32.4023 295.112 32.4023 291.905V291.244C32.4023 288.038 35.0019 285.438 38.2092 285.438H304.655C307.861 285.438 310.462 288.037 310.462 291.244V291.905C310.461 295.112 307.861 297.712 304.655 297.712Z" fill="#98AB26"/>
<path d="M296.504 297.712H46.3594V298.177C46.3594 302.687 50.0156 306.343 54.5253 306.343H288.338C292.848 306.343 296.504 302.687 296.504 298.177V297.712Z" fill="#CBD593"/>
<path d="M257.2 259.945H163.342C159.69 259.945 156.843 256.779 157.231 253.147L163 199.111C163.334 195.987 165.969 193.617 169.111 193.617H262.969C266.622 193.617 269.468 196.784 269.08 200.415L263.311 254.452C262.977 257.576 260.342 259.945 257.2 259.945Z" fill="#C3CAB2"/>
<path d="M260.741 259.945H166.883C163.231 259.945 160.384 256.779 160.772 253.147L166.54 199.111C166.874 195.987 169.51 193.617 172.651 193.617H266.51C270.162 193.617 273.008 196.784 272.621 200.415L266.851 254.452C266.518 257.576 263.883 259.945 260.741 259.945Z" fill="#617262"/>
<path d="M218.138 232.382H211.947C209.615 232.382 207.725 234.272 207.725 236.604V281.662H222.359V236.604C222.36 234.272 220.469 232.382 218.138 232.382Z" fill="#C3CAB2"/>
<path d="M237.939 281.661H190.73V285.438H237.939V281.661Z" fill="#617262"/>
<path d="M196.867 281.661H141.301V285.438H196.867V281.661Z" fill="#C3CAB2"/>
<path d="M118.711 276.94H113.457C109.888 276.94 106.996 279.833 106.996 283.401C106.996 284.526 107.908 285.438 109.033 285.438H123.136C124.261 285.438 125.173 284.526 125.173 283.401C125.172 279.833 122.279 276.94 118.711 276.94Z" fill="#C3CAB2"/>
<path d="M208.366 74.9198C207.811 71.2261 205.514 68.0114 204.655 64.3767C202.967 57.2324 207.06 49.8377 206.171 42.5507C204.948 32.5188 193.467 25.6346 183.618 27.9039C179.525 28.8472 176.963 29.7249 173.046 28.8787C161.519 26.3903 153.05 31.8461 150.747 38.1006C145.204 53.1542 153.606 55.5534 155.772 68.1635C156.686 73.4826 148.404 82.1966 158.915 94.6084C162.459 98.7939 167.951 101.245 173.423 102.204C172.251 104.843 170.604 107.874 168.72 109.363C168.72 109.363 176.219 107.281 180.8 102.835C193.939 103.03 211.911 98.5225 208.366 74.9198Z" fill="#617262"/>
<path d="M189.828 77.8485L186.289 73.4519C185.285 72.2044 183.459 72.0068 182.211 73.0111L181.145 73.8694C180.52 74.3725 179.605 74.274 179.102 73.6483L174.712 68.1945L174.189 67.5446L169.799 62.0908C169.296 61.4656 169.395 60.5511 170.02 60.0479L171.086 59.1897C172.335 58.1853 172.532 56.3596 171.527 55.1114L167.988 50.7148C166.984 49.4666 165.158 49.2696 163.91 50.274L162.748 51.21C159.714 53.6521 159.234 58.0909 161.675 61.1253L164.43 64.5476L169.731 71.1337L170.254 71.7843L175.555 78.3704L178.31 81.7928C180.752 84.8265 185.19 85.3063 188.225 82.8648L189.387 81.9288C190.636 80.9218 190.833 79.096 189.828 77.8485Z" fill="#C3CAB2"/>
<path d="M185.719 67.8231C185.681 67.8231 185.641 67.8197 185.601 67.8124C185.237 67.748 184.994 67.3996 185.059 67.0358C185.551 64.262 185.133 62.0289 183.815 60.3988C181.565 57.6156 177.379 57.4381 177.337 57.4367C176.967 57.424 176.678 57.1145 176.69 56.7446C176.703 56.3748 177.046 56.08 177.381 56.0974C177.576 56.1034 182.207 56.289 184.85 59.5479C186.429 61.4943 186.942 64.0925 186.377 67.2697C186.321 67.5953 186.038 67.8231 185.719 67.8231Z" fill="white"/>
<path d="M189.933 67.6007C189.913 67.6007 189.891 67.6 189.87 67.598C189.501 67.5632 189.231 67.2362 189.266 66.8684C190.394 54.9035 178.89 53.4215 178.399 53.3645C178.032 53.3217 177.769 52.9893 177.811 52.6222C177.855 52.255 178.192 51.9937 178.553 52.0332C178.686 52.0487 191.853 53.7103 190.599 66.9943C190.567 67.3407 190.275 67.6007 189.933 67.6007Z" fill="white"/>
<path d="M194.107 66.8837C193.739 66.8837 193.44 66.5869 193.437 66.2177C193.347 52.539 180.475 49.5495 179.927 49.4289C179.566 49.3491 179.337 48.992 179.416 48.6309C179.495 48.2698 179.855 48.042 180.213 48.1197C180.357 48.1512 194.68 51.4449 194.776 66.2097C194.779 66.5795 194.481 66.8817 194.111 66.8837C194.11 66.8837 194.108 66.8837 194.107 66.8837Z" fill="white"/>
<path d="M312.393 77.0902C308.611 73.0648 302.798 71.8756 297.815 69.4904C290.529 66.0024 284.909 59.8491 279.739 53.6429C274.108 46.8833 267.014 38.2939 257.462 38.1605C247.484 38.0212 237.402 44.1758 231.096 51.5089C223.97 59.7968 220.152 70.5369 218.68 81.3675C217.592 89.376 217.779 97.8481 221.318 105.114C222.217 106.961 223.373 108.708 224.728 110.283C223.164 113.075 220.835 116.461 218.094 117.99C218.094 117.99 225.421 117.785 230.117 114.906C233.221 116.821 236.755 117.913 240.415 117.738C246.477 117.447 252.498 113.883 258.308 115.639C261.209 116.516 263.55 118.607 265.991 120.405C275.227 127.206 287.953 130.162 298.425 125.484C310.703 119.999 316.843 105.562 316.939 92.1149C316.977 86.7516 316.068 80.9997 312.393 77.0902Z" fill="#FFC278"/>
<path d="M289.821 71.1963H239.312V107.901H289.821V71.1963Z" fill="white"/>
<path d="M243.521 75.0711C242.966 75.0711 242.516 74.6216 242.516 74.0661V69.1905C242.516 68.6351 242.966 68.1855 243.521 68.1855C244.075 68.1855 244.526 68.6351 244.526 69.1905V74.0661C244.526 74.6216 244.075 75.0711 243.521 75.0711Z" fill="#617262"/>
<path d="M249.532 75.0711C248.978 75.0711 248.527 74.6216 248.527 74.0661V69.1905C248.527 68.6351 248.978 68.1855 249.532 68.1855C250.087 68.1855 250.537 68.6351 250.537 69.1905V74.0661C250.537 74.6216 250.088 75.0711 249.532 75.0711Z" fill="#617262"/>
<path d="M255.546 75.0711C254.991 75.0711 254.541 74.6216 254.541 74.0661V69.1905C254.541 68.6351 254.991 68.1855 255.546 68.1855C256.101 68.1855 256.551 68.6351 256.551 69.1905V74.0661C256.551 74.6216 256.101 75.0711 255.546 75.0711Z" fill="#617262"/>
<path d="M261.56 75.0711C261.005 75.0711 260.555 74.6216 260.555 74.0661V69.1905C260.555 68.6351 261.005 68.1855 261.56 68.1855C262.114 68.1855 262.565 68.6351 262.565 69.1905V74.0661C262.565 74.6216 262.114 75.0711 261.56 75.0711Z" fill="#617262"/>
<path d="M267.571 75.0711C267.017 75.0711 266.566 74.6216 266.566 74.0661V69.1905C266.566 68.6351 267.017 68.1855 267.571 68.1855C268.126 68.1855 268.576 68.6351 268.576 69.1905V74.0661C268.576 74.6216 268.126 75.0711 267.571 75.0711Z" fill="#617262"/>
<path d="M273.585 75.0711C273.03 75.0711 272.58 74.6216 272.58 74.0661V69.1905C272.58 68.6351 273.03 68.1855 273.585 68.1855C274.14 68.1855 274.59 68.6351 274.59 69.1905V74.0661C274.59 74.6216 274.14 75.0711 273.585 75.0711Z" fill="#617262"/>
<path d="M279.597 75.0711C279.042 75.0711 278.592 74.6216 278.592 74.0661V69.1905C278.592 68.6351 279.042 68.1855 279.597 68.1855C280.152 68.1855 280.602 68.6351 280.602 69.1905V74.0661C280.602 74.6216 280.152 75.0711 279.597 75.0711Z" fill="#617262"/>
<path d="M285.61 75.0711C285.056 75.0711 284.605 74.6216 284.605 74.0661V69.1905C284.605 68.6351 285.056 68.1855 285.61 68.1855C286.165 68.1855 286.615 68.6351 286.615 69.1905V74.0661C286.615 74.6216 286.165 75.0711 285.61 75.0711Z" fill="#617262"/>
<path d="M258.832 79.5859H253.701V84.7168H258.832V79.5859Z" fill="#2F7D7F"/>
<path d="M266.877 79.5859H261.746V84.7168H266.877V79.5859Z" fill="#2F7D7F"/>
<path d="M274.92 79.5859H269.789V84.7168H274.92V79.5859Z" fill="#2F7D7F"/>
<path d="M282.965 79.5859H277.834V84.7168H282.965V79.5859Z" fill="#FFC278"/>
<path d="M250.787 86.9834H245.656V92.1143H250.787V86.9834Z" fill="#FFC278"/>
<path d="M258.832 86.9834H253.701V92.1143H258.832V86.9834Z" fill="#2F7D7F"/>
<path d="M266.875 86.9834H261.744V92.1143H266.875V86.9834Z" fill="#2F7D7F"/>
<path d="M274.92 86.9834H269.789V92.1143H274.92V86.9834Z" fill="#2F7D7F"/>
<path d="M282.963 86.9834H277.832V92.1143H282.963V86.9834Z" fill="#FFC278"/>
<path d="M250.787 94.3809H245.656V99.5117H250.787V94.3809Z" fill="#FFC278"/>
<path d="M258.832 94.3809H253.701V99.5117H258.832V94.3809Z" fill="#2F7D7F"/>
<path d="M266.875 94.3809H261.744V99.5117H266.875V94.3809Z" fill="#2F7D7F"/>
<path d="M274.92 94.3809H269.789V99.5117H274.92V94.3809Z" fill="#2F7D7F"/>
<path d="M56.6425 67.9638C43.1868 77.7605 26.7116 67.8948 17.8622 86.8893C14.2114 94.7249 15.6586 102.354 19.3302 110.732C23.5974 120.468 29.6575 124.303 38.4198 124.744C43.4817 124.999 47.7321 122.801 52.6513 119.784C56.2291 121.969 61.0624 124.281 65.5367 124.304C65.5367 124.304 61.6239 121.471 60.3757 115.047C62.2383 113.966 64.2349 112.882 66.4184 111.845C80.0918 105.351 84.9721 111.206 93.2225 101.216C106.714 84.8793 84.6813 47.5496 56.6425 67.9638Z" fill="#FFB583"/>
<path d="M71.3015 77.1282L76.5509 95.7837C76.7794 96.5971 76.6052 97.4192 76.155 98.065C75.8099 98.5488 75.3034 98.9273 74.691 99.0995L40.9552 108.592C40.3435 108.764 39.7157 108.714 39.1669 108.473C38.448 108.165 37.8685 107.546 37.6393 106.733L32.3899 88.0774C32.1614 87.2646 32.3329 86.4332 32.7859 85.796C33.1309 85.3123 33.6401 84.9424 34.2518 84.7702L67.9877 75.2777C68.5994 75.1055 69.2292 75.1644 69.7739 75.3882C70.4948 75.7038 71.073 76.3148 71.3015 77.1282Z" fill="white"/>
<path d="M60.158 90.3296L76.1555 98.0647C75.8105 98.5485 75.304 98.927 74.6916 99.0992L73.0045 99.5742L58.6679 92.6458L56.5413 95.9516C56.349 96.2417 56.075 96.4413 55.7607 96.5298C55.4545 96.6162 55.1082 96.5907 54.802 96.4413L51.255 94.7315L42.6435 108.117L39.1682 108.473L48.7847 93.5302L32.7871 85.795C33.1322 85.3113 33.6414 84.9414 34.2531 84.7693L35.9401 84.2949L54.8971 93.4612L66.3012 75.7517L67.9882 75.2767C68.5999 75.1045 69.2297 75.1635 69.7745 75.3872L60.158 90.3296Z" fill="#CBD593"/>
<path d="M139.681 64.2988C138.27 61.9484 135.911 60.0061 135.552 57.2886C135.379 55.9734 135.387 54.5597 135.909 53.3403C139.162 45.7565 136.841 37.1879 130.057 32.1106C124.663 28.0746 117.405 27.1238 111.453 29.8594C102.441 34.0014 97.2743 41.9804 101.747 54.7761C102.999 58.3565 104.668 61.9263 104.678 65.7198C104.686 68.6471 102.61 75.8308 108.808 82.3955C112.544 86.3512 117.258 87.9873 122.165 87.7005C122.765 89.5069 123.364 92.6498 122.695 97.2695C122.695 97.2695 128.67 92.2673 129.138 86.0939C143.718 81.0695 141.855 67.9195 139.681 64.2988Z" fill="#2F7D7F"/>
<path d="M118.145 69.1631C116.823 69.1631 115.752 70.2344 115.752 71.555C115.752 72.8762 116.823 73.9476 118.145 73.9476C119.466 73.9476 120.536 72.8762 120.536 71.555C120.537 70.2338 119.466 69.1631 118.145 69.1631Z" fill="white"/>
<path d="M124.588 47.4472C122.965 45.8218 120.78 45.0098 118.033 45.0098C115.422 45.0098 113.314 45.8124 111.708 47.4184C110.944 48.1822 110.347 49.0251 109.918 49.9457C109.19 51.5094 110.12 53.4183 111.67 53.636C112.644 53.7727 113.588 53.1804 113.992 52.1687C114.299 51.4002 114.698 50.7805 115.19 50.3095C116.007 49.5256 117.023 49.1343 118.238 49.1343C119.497 49.1343 120.499 49.5102 121.242 50.2612C121.986 51.013 122.358 51.9155 122.358 52.9687C122.358 53.7265 122.148 54.4206 121.728 55.0497C121.456 55.4477 120.621 56.2892 119.225 57.5743C117.829 58.8587 116.898 60.0151 116.433 61.0429C116.23 61.4911 116.074 62.5417 115.964 63.5835C115.811 65.0113 116.806 66.2648 118.077 66.2648C119.125 66.2648 120.03 65.3965 120.176 64.2227C120.232 63.7765 120.315 63.4234 120.425 63.1621C120.669 62.5839 121.296 61.8194 122.306 60.8687C124.259 59.0315 125.533 57.5796 126.129 56.5137C126.724 55.447 127.023 54.3167 127.023 53.1221C127.023 50.9641 126.212 49.0726 124.588 47.4472Z" fill="white"/>
</g>
<defs>
<clipPath id="clip0_498_1240">
<rect width="335" height="335" fill="white"/>
</clipPath>
</defs>
</svg>
