<svg width="80" height="80" viewBox="0 0 80 80" fill="none" xmlns="http://www.w3.org/2000/svg">
<path d="M23.467 70.0003H10.8337V32.1003H23.467V70.0003ZM24.7337 17.367C24.7337 13.367 21.567 10.1337 17.567 10.0003C13.5003 9.90033 10.1003 13.1003 10.0003 17.167C9.90033 21.2336 13.1003 24.6337 17.167 24.7337C21.3003 24.767 24.667 21.5004 24.7337 17.367ZM69.8337 47.1003C69.8337 35.3003 62.2004 31.7003 55.7004 31.7003C51.1337 31.567 46.8337 33.8003 44.3337 37.6003V32.1337H32.1337V70.0337H44.767V50.367C44.767 50.167 44.767 49.967 44.767 49.767C44.767 49.767 44.767 49.767 44.767 49.7337C44.5003 45.7003 47.567 42.2003 51.6003 41.9337C54.9003 41.9337 57.4003 44.067 57.4003 50.067V70.0337H70.0336L69.867 47.1337L69.8337 47.1003Z" fill="#0077B5"/>
</svg>
