<svg width="80" height="80" viewBox="0 0 80 80" fill="none" xmlns="http://www.w3.org/2000/svg">
<path d="M40.0006 40.0003C41.834 40.0003 43.4034 39.3476 44.709 38.042C46.0145 36.7364 46.6673 35.167 46.6673 33.3337C46.6673 31.5003 46.0145 29.9309 44.709 28.6253C43.4034 27.3198 41.834 26.667 40.0006 26.667C38.1673 26.667 36.5979 27.3198 35.2923 28.6253C33.9868 29.9309 33.334 31.5003 33.334 33.3337C33.334 35.167 33.9868 36.7364 35.2923 38.042C36.5979 39.3476 38.1673 40.0003 40.0006 40.0003ZM40.0006 73.3337C31.0562 65.7226 24.3757 58.6531 19.959 52.1253C15.5423 45.5976 13.334 39.5559 13.334 34.0003C13.334 25.667 16.0145 19.0281 21.3757 14.0837C26.7368 9.13921 32.9451 6.66699 40.0006 6.66699C47.0562 6.66699 53.2645 9.13921 58.6256 14.0837C63.9868 19.0281 66.6673 25.667 66.6673 34.0003C66.6673 39.5559 64.459 45.5976 60.0423 52.1253C55.6256 58.6531 48.9451 65.7226 40.0006 73.3337Z" fill="#D17E11"/>
</svg>
