<svg width="80" height="80" viewBox="0 0 80 80" fill="none" xmlns="http://www.w3.org/2000/svg">
<path d="M13.3327 66.6663C11.4993 66.6663 9.9299 66.0136 8.62435 64.708C7.31879 63.4025 6.66602 61.833 6.66602 59.9997V19.9997C6.66602 18.1663 7.31879 16.5969 8.62435 15.2913C9.9299 13.9858 11.4993 13.333 13.3327 13.333H66.666C68.4993 13.333 70.0688 13.9858 71.3743 15.2913C72.6799 16.5969 73.3327 18.1663 73.3327 19.9997V59.9997C73.3327 61.833 72.6799 63.4025 71.3743 64.708C70.0688 66.0136 68.4993 66.6663 66.666 66.6663H13.3327ZM39.9993 43.333L66.666 26.6663V19.9997L39.9993 36.6663L13.3327 19.9997V26.6663L39.9993 43.333Z" fill="#D17E11"/>
</svg>
