<svg width="80" height="80" viewBox="0 0 80 80" fill="none" xmlns="http://www.w3.org/2000/svg">
<path d="M66.466 26.6337C66.4994 27.2004 66.4993 27.8004 66.4993 28.4004C66.4993 46.2004 52.766 66.7004 27.6327 66.7004C19.8993 66.7004 12.6993 64.5004 6.66602 60.667C7.76602 60.8004 8.8327 60.8337 9.96603 60.8337C16.366 60.8337 22.2327 58.7004 26.9327 55.1004C20.9327 54.967 15.8993 51.1004 14.166 45.767C14.9993 45.9004 15.866 45.967 16.7327 45.967C17.966 45.967 19.1994 45.8004 20.3327 45.5004C14.066 44.2337 9.36601 38.8337 9.36601 32.3004V32.1337C11.1993 33.1337 13.2994 33.767 15.5327 33.8337C11.866 31.4004 9.43269 27.3004 9.43269 22.6337C9.43269 20.1337 10.0993 17.8337 11.2993 15.8337C18.0327 24.0004 28.1327 29.3337 39.466 29.9337C39.266 28.9337 39.1327 27.9004 39.1327 26.867C39.1327 19.4337 45.2327 13.4004 52.7993 13.4004C56.7327 13.4004 60.2994 15.0337 62.766 17.6337C65.866 17.067 68.7993 15.9337 71.4327 14.4004C70.4327 17.5337 68.266 20.167 65.4327 21.8004C68.166 21.5004 70.8327 20.767 73.2994 19.7337C71.4327 22.4004 69.0993 24.767 66.4327 26.7004L66.466 26.6337Z" fill="#1DA1F2"/>
</svg>
