<svg width="25" height="24" viewBox="0 0 25 24" fill="none" xmlns="http://www.w3.org/2000/svg">
<path d="M18.3809 4H6.38086C4.38086 4 3.38086 5 3.38086 7L3.38086 17C3.38086 19 4.38086 20 6.38086 20H18.3809C20.3809 20 21.3809 19 21.3809 17L21.3809 7C21.3809 5 20.3809 4 18.3809 4ZM9.13086 13.75C9.68286 13.75 10.1309 13.301 10.1309 12.75H11.6309C11.6309 14.128 10.5099 15.25 9.13086 15.25C7.75186 15.25 6.63086 14.128 6.63086 12.75L6.63086 11.25C6.63086 9.872 7.75186 8.75 9.13086 8.75C10.5099 8.75 11.6309 9.872 11.6309 11.25H10.1309C10.1309 10.699 9.68286 10.25 9.13086 10.25C8.57886 10.25 8.13086 10.699 8.13086 11.25L8.13086 12.75C8.13086 13.301 8.57886 13.75 9.13086 13.75ZM15.6309 13.75C16.1829 13.75 16.6309 13.301 16.6309 12.75H18.1309C18.1309 14.128 17.0099 15.25 15.6309 15.25C14.2519 15.25 13.1309 14.128 13.1309 12.75L13.1309 11.25C13.1309 9.872 14.2519 8.75 15.6309 8.75C17.0099 8.75 18.1309 9.872 18.1309 11.25H16.6309C16.6309 10.699 16.1829 10.25 15.6309 10.25C15.0789 10.25 14.6309 10.699 14.6309 11.25L14.6309 12.75C14.6309 13.301 15.0789 13.75 15.6309 13.75Z" fill="#25314C"/>
</svg>
