<svg width="25" height="24" viewBox="0 0 25 24" fill="none" xmlns="http://www.w3.org/2000/svg">
<path d="M7.21014 12.75C7.36014 15.83 8.40014 18.97 10.2101 21.76C5.97014 20.82 2.74016 17.19 2.41016 12.75H7.21014ZM10.2101 2.23999C5.97014 3.17999 2.74016 6.81 2.41016 11.25H7.21014C7.36014 8.17 8.40014 5.02999 10.2101 2.23999ZM12.5802 2H12.1801L11.8802 2.42999C9.98016 5.12999 8.87014 8.23 8.71014 11.25H16.0502C15.8902 8.23 14.7802 5.12999 12.8802 2.42999L12.5802 2ZM8.71014 12.75C8.87014 15.77 9.98016 18.87 11.8802 21.57L12.1801 22H12.5802L12.8802 21.57C14.7802 18.87 15.8902 15.77 16.0502 12.75H8.71014ZM17.5502 12.75C17.4002 15.83 16.3602 18.97 14.5502 21.76C18.7902 20.82 22.0202 17.19 22.3502 12.75H17.5502ZM22.3502 11.25C22.0202 6.81 18.7902 3.17999 14.5502 2.23999C16.3602 5.02999 17.4002 8.17 17.5502 11.25H22.3502Z" fill="#25314C"/>
</svg>
