<svg width="25" height="24" viewBox="0 0 25 24" fill="none" xmlns="http://www.w3.org/2000/svg">
<path d="M12.3809 2C6.85786 2 2.38086 6.477 2.38086 12C2.38086 17.523 6.85786 22 12.3809 22C17.9039 22 22.3809 17.523 22.3809 12C22.3809 6.477 17.9039 2 12.3809 2ZM13.1309 16.5C13.1309 16.914 12.7949 17.25 12.3809 17.25C11.9669 17.25 11.6309 16.914 11.6309 16.5L11.6309 11.929C11.6309 11.515 11.9669 11.179 12.3809 11.179C12.7949 11.179 13.1309 11.515 13.1309 11.929L13.1309 16.5ZM12.4009 9.5C11.8489 9.5 11.3958 9.052 11.3958 8.5C11.3958 7.948 11.8389 7.5 12.3909 7.5H12.4009C12.9539 7.5 13.4009 7.948 13.4009 8.5C13.4009 9.052 12.9529 9.5 12.4009 9.5Z" fill="#25314C"/>
</svg>
